<svg width="25" height="24" viewBox="0 0 25 24" fill="none" xmlns="http://www.w3.org/2000/svg">
<path fill-rule="evenodd" clip-rule="evenodd" d="M4.23598 6.16775C4.8806 6.16775 5.49882 5.91168 5.95464 5.45586C6.41046 5.00004 6.66653 4.38182 6.66653 3.7372C6.66653 3.09257 6.41046 2.47435 5.95464 2.01853C5.49882 1.56272 4.8806 1.30664 4.23598 1.30664C3.59135 1.30664 2.97313 1.56272 2.51731 2.01853C2.0615 2.47435 1.80542 3.09257 1.80542 3.7372C1.80542 4.38182 2.0615 5.00004 2.51731 5.45586C2.97313 5.91168 3.59135 6.16775 4.23598 6.16775ZM6.66653 22.6955V8.1122H1.80542V22.6955H6.66653ZM8.61098 8.1122H12.986V10.0041C13.6821 9.08928 15.1696 8.1122 17.8471 8.1122C22.0568 8.1122 23.1943 12.3122 23.1943 14.9178V22.6955H18.3332V14.9178C18.3332 13.9455 17.8471 12.0011 15.9026 12.0011C14.5221 12.0011 13.5499 12.9811 12.986 13.8979V22.6955H8.61098V8.1122Z" fill="white"/>
</svg>
