<svg width="25" height="24" viewBox="0 0 25 24" fill="none" xmlns="http://www.w3.org/2000/svg">
<g clip-path="url(#clip0_707_1833)">
<path d="M10.0513 9.10634C9.65755 8.84384 8.35088 7.93676 8.35088 7.93676C9.45338 6.3603 10.9073 5.74634 12.9184 5.74634C14.3403 5.74634 15.5478 6.22322 16.4096 7.12884C17.2715 8.03447 17.763 9.32947 17.8753 10.9847C18.3536 11.1859 18.7935 11.4212 19.195 11.6905C20.8123 12.777 21.7019 14.403 21.7019 16.2653C21.7019 20.2261 18.4557 23.6663 12.5786 23.6663C7.53275 23.6663 2.2915 20.7307 2.2915 11.9909C2.2915 3.29926 7.36942 0.333008 12.564 0.333008C14.9644 0.333008 20.5936 0.687382 22.7082 7.67717L20.7248 8.19197C19.0857 3.21176 15.6542 2.41842 12.5086 2.41842C7.30963 2.41842 4.36817 5.58447 4.36817 12.3205C4.36817 18.3624 7.65525 21.5707 12.5786 21.5707C16.6284 21.5707 19.6471 19.4663 19.6471 16.3849C19.6471 14.2878 17.8855 13.283 17.795 13.283C17.4509 15.0826 16.5292 18.1101 12.4809 18.1101C10.1213 18.1101 8.08692 16.4797 8.08692 14.3447C8.08692 11.2968 10.9803 10.1928 13.264 10.1928C14.1186 10.1928 15.1511 10.2511 15.6892 10.359C15.6892 9.43009 14.9017 7.83905 12.9184 7.83905C11.0955 7.83905 10.6346 8.42967 10.0498 9.10488L10.0513 9.10634ZM13.544 12.2768C10.569 12.2768 10.184 13.5455 10.184 14.3418C10.184 15.6222 11.705 16.0451 12.5173 16.0451C14.0048 16.0451 15.5317 15.6338 15.7723 12.5115C15.0422 12.3412 14.2936 12.2623 13.544 12.2768Z" fill="white"/>
</g>
<defs>
<clipPath id="clip0_707_1833">
<rect width="23.3333" height="23.3333" fill="white" transform="translate(0.833252 0.333008)"/>
</clipPath>
</defs>
</svg>
