<svg width="24" height="24" viewBox="0 0 24 24" fill="none" xmlns="http://www.w3.org/2000/svg">
<g clip-path="url(#clip0_2876_1851)">
<path d="M19.7505 4.2369C18.2379 3.54222 16.6416 3.0467 15.0014 2.76273C14.9866 2.76023 14.9713 2.76239 14.9577 2.76892C14.9442 2.77545 14.9329 2.78602 14.9256 2.79918C14.72 3.16372 14.4925 3.64052 14.3336 4.0138C12.5658 3.74574 10.7676 3.74574 8.99979 4.0138C8.82325 3.59763 8.62266 3.19207 8.39905 2.79918C8.39172 2.78602 8.3805 2.77545 8.36692 2.76892C8.35335 2.76239 8.33808 2.76023 8.32322 2.76273C6.68283 3.04561 5.08619 3.54137 3.57411 4.2369C3.56111 4.24173 3.55025 4.25103 3.54349 4.26314C0.519339 8.78187 -0.310334 13.1898 0.0964825 17.5423C0.0993988 17.5637 0.109606 17.5817 0.127103 17.5962C1.88847 18.9001 3.8581 19.896 5.95231 20.5416C5.9671 20.5463 5.98299 20.5461 5.99767 20.5412C6.01236 20.5362 6.02507 20.5266 6.03397 20.5139C6.48404 19.9015 6.88162 19.2556 7.22671 18.5761C7.23389 18.5621 7.23634 18.5462 7.23371 18.5307C7.23109 18.5152 7.22352 18.5009 7.21213 18.4901L7.18589 18.474C6.55796 18.2319 5.94958 17.9419 5.36615 17.6064C5.34986 17.5972 5.33775 17.5821 5.33232 17.5642C5.32689 17.5462 5.32856 17.5269 5.33698 17.5102L5.35886 17.4825C5.48231 17.3902 5.60285 17.2954 5.72047 17.1982C5.73078 17.1899 5.74314 17.1846 5.75624 17.1828C5.76934 17.181 5.78268 17.1828 5.79483 17.188C9.61366 18.9319 13.7474 18.9319 17.5196 17.188C17.5321 17.1822 17.5461 17.1801 17.5597 17.1819C17.5734 17.1837 17.5863 17.1893 17.5969 17.1982C17.7145 17.2954 17.8351 17.3902 17.9585 17.4825C17.9688 17.4895 17.9771 17.4991 17.9826 17.5102C17.9882 17.5213 17.9908 17.5337 17.9902 17.5461C17.9896 17.5585 17.9858 17.5706 17.9793 17.5811C17.9727 17.5917 17.9636 17.6004 17.9527 17.6064C17.3718 17.9472 16.7624 18.237 16.1315 18.4726C16.1214 18.4762 16.1123 18.482 16.1047 18.4896C16.0972 18.4971 16.0914 18.5063 16.0877 18.5163C16.0842 18.526 16.0827 18.5364 16.0835 18.5467C16.0843 18.557 16.0872 18.567 16.0921 18.5761C16.4421 19.2541 16.843 19.9015 17.2834 20.5139C17.2923 20.5266 17.305 20.5362 17.3197 20.5412C17.3344 20.5461 17.3503 20.5463 17.3651 20.5416C19.4634 19.8996 21.4365 18.9034 23.199 17.5962C23.2078 17.59 23.2151 17.582 23.2204 17.5727C23.2256 17.5634 23.2288 17.553 23.2296 17.5423C23.7166 12.5103 22.4145 8.13884 19.7797 4.2646C19.7774 4.25799 19.7736 4.25202 19.7685 4.2472C19.7634 4.24238 19.7573 4.23884 19.7505 4.2369ZM7.79684 14.8914C6.64638 14.8914 5.70006 13.8357 5.70006 12.5409C5.70006 11.2461 6.62888 10.189 7.79684 10.189C8.97355 10.189 9.91112 11.2534 9.89362 12.5409C9.89362 13.8357 8.9648 14.8914 7.79684 14.8914ZM15.5482 14.8914C14.3992 14.8914 13.4514 13.8357 13.4514 12.5409C13.4514 11.2461 14.3803 10.189 15.5482 10.189C16.7249 10.189 17.664 11.2534 17.645 12.5409C17.645 13.8357 16.7249 14.8914 15.5482 14.8914Z" fill="white"/>
</g>
<defs>
<clipPath id="clip0_2876_1851">
<rect width="23.33" height="23.33" fill="white"/>
</clipPath>
</defs>
</svg>
