<svg width="325" height="356" viewBox="0 0 325 356" fill="none" xmlns="http://www.w3.org/2000/svg">
<g opacity="0.5">
<path d="M272.662 252.214C252.744 326.55 176.636 370.744 102.669 350.925C28.7023 331.105 -15.1126 254.778 4.80552 180.442C24.7237 106.106 100.844 61.9154 174.811 81.7347L269.089 106.997C290.71 112.79 313.903 98.3033 313.903 98.3033L272.662 252.214ZM149.939 172.106C125.394 165.53 100.139 180.195 93.529 204.862C86.9194 229.53 101.459 254.858 126.004 261.435C150.549 268.012 175.805 253.347 182.414 228.679L194.382 184.015L149.939 172.106Z" fill="url(#paint0_linear_2909_3688)"/>
<path d="M234.49 34.329C241.1 9.6616 266.356 -5.00374 290.901 1.57307C315.446 8.14988 329.985 33.4783 323.375 58.1457C316.766 82.8131 291.51 97.4785 266.965 90.9017L222.522 78.9933L234.49 34.329Z" fill="url(#paint1_linear_2909_3688)"/>
</g>
<defs>
<linearGradient id="paint0_linear_2909_3688" x1="304.216" y1="1.67459" x2="133.593" y2="263.653" gradientUnits="userSpaceOnUse">
<stop stop-color="#333333"/>
<stop offset="1" stop-color="#1F1F1F"/>
</linearGradient>
<linearGradient id="paint1_linear_2909_3688" x1="304.216" y1="1.67459" x2="133.593" y2="263.653" gradientUnits="userSpaceOnUse">
<stop stop-color="#333333"/>
<stop offset="1" stop-color="#1F1F1F"/>
</linearGradient>
</defs>
</svg>
