<svg width="20" height="20" viewBox="0 0 20 20" fill="none" xmlns="http://www.w3.org/2000/svg">
<path d="M8.55513 9.03807C10.683 9.03807 12.4081 7.31299 12.4081 5.18501C12.4081 3.05711 10.683 1.33203 8.55513 1.33203C6.42715 1.33203 4.70215 3.05711 4.70215 5.18501C4.70215 7.31299 6.42715 9.03807 8.55513 9.03807Z" stroke="white" stroke-linecap="round" stroke-linejoin="round"/>
<path d="M1.8125 16.7431V15.7799C1.8125 12.0559 4.83133 9.03711 8.55525 9.03711C9.58937 9.03711 10.5691 9.26998 11.445 9.68598" stroke="white" stroke-linecap="round" stroke-linejoin="round"/>
<path d="M13.0198 13.2893L14.0207 11.1672C14.1491 10.8948 14.5203 10.8948 14.6487 11.1672L15.6496 13.2893L17.8877 13.6316C18.1749 13.6756 18.2893 14.045 18.0815 14.257L16.4622 15.9077L16.8443 18.2395C16.8934 18.539 16.5932 18.7673 16.3362 18.6259L14.3347 17.5244L12.3333 18.6259C12.0763 18.7673 11.7759 18.539 11.8251 18.2395L12.2072 15.9076L10.5879 14.257C10.38 14.045 10.4945 13.6756 10.7817 13.6316L13.0198 13.2893Z" stroke="white" stroke-linecap="round" stroke-linejoin="round"/>
</svg>
