<svg width="24" height="12" viewBox="0 0 24 12" fill="none" xmlns="http://www.w3.org/2000/svg">
<g clip-path="url(#clip0_2877_1876)">
<mask id="mask0_2877_1876" style="mask-type:luminance" maskUnits="userSpaceOnUse" x="0" y="0" width="24" height="12">
<path d="M24 0H0V11.9931H24V0Z" fill="white"/>
</mask>
<g mask="url(#mask0_2877_1876)">
<path d="M3.81314 0C2.23683 0 1.1502 0.675557 0.327886 1.4395C0.327886 1.4395 -0.00415606 1.74684 3.94264e-05 1.75621L3.45353 5.1293L6.90638 1.75621C6.2525 0.876933 5.01965 0 3.81314 0Z" fill="#FCF6F5"/>
<path d="M12.3404 0C10.7642 0 9.67752 0.675556 8.85516 1.4395C8.85516 1.4395 8.55192 1.73865 8.53817 1.75621L4.26953 5.92603L7.71764 9.29384L15.4337 1.75621C14.7798 0.876934 13.5476 0 12.3404 0Z" fill="#FCF6F5"/>
<path d="M20.8917 0C19.3154 0 18.2288 0.675556 17.4064 1.4395C17.4064 1.4395 17.0906 1.74099 17.0786 1.75621L8.53955 10.0976L9.44339 10.9804C10.8417 12.3462 13.1306 12.3462 14.529 10.9804L23.9741 1.75621H23.985C23.3311 0.876934 22.0988 0 20.8917 0Z" fill="#FCF6F5"/>
</g>
</g>
<defs>
<clipPath id="clip0_2877_1876">
<rect width="24" height="12" fill="white"/>
</clipPath>
</defs>
</svg>
