<svg width="275" height="104" viewBox="0 0 275 104" fill="none" xmlns="http://www.w3.org/2000/svg">
<path d="M67 59.4417C67 77.9755 52.0015 93 33.5 93C14.9985 93 0 77.9755 0 59.4417C0 40.908 15.0014 25.8835 33.5029 25.8835H57.0852C62.4933 25.8835 67 21.068 67 21.068V59.4417ZM33.3498 48.4563C27.2102 48.4563 22.2332 53.442 22.2332 59.5922C22.2332 65.7424 27.2102 70.7282 33.3498 70.7282C39.4893 70.7282 44.4664 65.7424 44.4664 59.5922V48.4563H33.3498Z" fill="white"/>
<path d="M44.4664 11.1359C44.4664 4.98572 49.4434 0 55.583 0C61.7225 0 66.6995 4.98572 66.6995 11.1359C66.6995 17.2861 61.7225 22.2718 55.583 22.2718H44.4664V11.1359Z" fill="white"/>
<path d="M267.772 0H275V41.4595H267.772V37.44C265.642 40.1759 262.616 41.5438 258.694 41.5438C254.921 41.5438 251.69 40.1196 249 37.2714C246.348 34.3856 245.022 30.8627 245.022 26.7027C245.022 22.5427 246.348 19.0386 249 16.1903C251.69 13.3045 254.921 11.8616 258.694 11.8616C262.616 11.8616 265.642 13.2296 267.772 15.9654V0ZM254.435 32.4368C255.93 33.8984 257.797 34.6292 260.039 34.6292C262.28 34.6292 264.129 33.8984 265.586 32.4368C267.043 30.9377 267.772 29.0263 267.772 26.7027C267.772 24.3791 267.043 22.4865 265.586 21.0249C264.129 19.5258 262.28 18.7762 260.039 18.7762C257.797 18.7762 255.93 19.5258 254.435 21.0249C252.978 22.4865 252.25 24.3791 252.25 26.7027C252.25 29.0263 252.978 30.9377 254.435 32.4368Z" fill="white"/>
<path d="M220.302 29.6822C221.273 33.205 223.907 34.9665 228.203 34.9665C230.967 34.9665 233.059 34.0296 234.479 32.1557L240.306 35.5287C237.542 39.5387 233.47 41.5438 228.091 41.5438C223.459 41.5438 219.742 40.1384 216.94 37.3276C214.138 34.5168 212.737 30.9751 212.737 26.7027C212.737 22.4678 214.12 18.9449 216.884 16.1341C219.648 13.2858 223.197 11.8616 227.53 11.8616C231.64 11.8616 235.02 13.2858 237.673 16.1341C240.362 18.9823 241.707 22.5052 241.707 26.7027C241.707 27.6396 241.614 28.6328 241.427 29.6822H220.302ZM220.19 24.0605H234.479C234.068 22.1492 233.209 20.725 231.901 19.7881C230.631 18.8512 229.174 18.3827 227.53 18.3827C225.588 18.3827 223.982 18.8887 222.711 19.9005C221.441 20.875 220.601 22.2616 220.19 24.0605Z" fill="white"/>
<path d="M202.489 17.4832C203.162 15.6843 204.264 14.3351 205.795 13.4356C207.364 12.5362 209.101 12.0865 211.006 12.0865V20.1816C208.802 19.9192 206.823 20.369 205.067 21.5308C203.348 22.6926 202.489 24.6227 202.489 27.321V41.4595H195.261V12.0865H202.489V17.4832Z" fill="white"/>
<path d="M187.104 8.93838C185.908 8.93838 184.862 8.50739 183.966 7.64541C183.107 6.74595 182.677 5.69658 182.677 4.4973C182.677 3.29802 183.107 2.24865 183.966 1.34919C184.862 0.44973 185.908 0 187.104 0C188.337 0 189.383 0.44973 190.242 1.34919C191.138 2.24865 191.587 3.29802 191.587 4.4973C191.587 5.69658 191.138 6.74595 190.242 7.64541C189.383 8.50739 188.337 8.93838 187.104 8.93838ZM183.518 41.4595V11.9459H190.746V41.4595H183.518Z" fill="white"/>
<path d="M165.448 11.8616C169.221 11.8616 172.433 13.3045 175.086 16.1903C177.775 19.0386 179.12 22.5427 179.12 26.7027C179.12 30.8627 177.775 34.3856 175.086 37.2714C172.433 40.1196 169.221 41.5438 165.448 41.5438C161.525 41.5438 158.5 40.1759 156.37 37.44V52H149.142V11.9459H156.37V15.9654C158.5 13.2296 161.525 11.8616 165.448 11.8616ZM158.556 32.4368C160.012 33.8984 161.862 34.6292 164.103 34.6292C166.344 34.6292 168.194 33.8984 169.65 32.4368C171.145 30.9377 171.892 29.0263 171.892 26.7027C171.892 24.3791 171.145 22.4865 169.65 21.0249C168.194 19.5258 166.344 18.7762 164.103 18.7762C161.862 18.7762 160.012 19.5258 158.556 21.0249C157.099 22.4865 156.37 24.3791 156.37 26.7027C156.37 29.0263 157.099 30.9377 158.556 32.4368Z" fill="white"/>
<path d="M131.164 20.6314C131.164 21.3809 131.649 21.9993 132.62 22.4865C133.629 22.9362 134.843 23.3485 136.263 23.7232C137.682 24.0605 139.102 24.5103 140.521 25.0724C141.941 25.5971 143.136 26.4966 144.107 27.7708C145.116 29.045 145.62 30.6378 145.62 32.5492C145.62 35.435 144.537 37.6649 142.37 39.2389C140.241 40.7755 137.57 41.5438 134.357 41.5438C128.605 41.5438 124.682 39.3139 122.59 34.8541L128.866 31.3124C129.688 33.7485 131.518 34.9665 134.357 34.9665C136.935 34.9665 138.224 34.1607 138.224 32.5492C138.224 31.7996 137.72 31.2 136.711 30.7503C135.74 30.2631 134.544 29.8321 133.125 29.4573C131.705 29.0825 130.286 28.6141 128.866 28.0519C127.447 27.4897 126.233 26.609 125.224 25.4097C124.253 24.173 123.767 22.6364 123.767 20.8C123.767 18.0267 124.776 15.853 126.793 14.2789C128.847 12.6674 131.388 11.8616 134.414 11.8616C136.692 11.8616 138.766 12.3863 140.633 13.4357C142.501 14.4476 143.977 15.9092 145.06 17.8205L138.896 21.1935C138 19.2822 136.505 18.3265 134.414 18.3265C133.48 18.3265 132.695 18.5326 132.06 18.9449C131.462 19.3571 131.164 19.9193 131.164 20.6314Z" fill="white"/>
<path d="M108.433 11.8616C111.496 11.8616 114.018 12.8923 115.998 14.9535C118.015 17.0148 119.024 19.8631 119.024 23.4984V41.4595H111.795V24.3978C111.795 22.524 111.291 21.0998 110.282 20.1254C109.274 19.1135 107.929 18.6076 106.248 18.6076C104.38 18.6076 102.886 19.1885 101.765 20.3503C100.644 21.5121 100.084 23.2548 100.084 25.5784V41.4595H92.8557V11.9459H100.084V15.7968C101.84 13.1733 104.623 11.8616 108.433 11.8616Z" fill="white"/>
<path d="M81 0H88.7327V41.4595H81V0Z" fill="white"/>
<path d="M267.268 70.6553H260.913V83.5728C260.913 84.5337 261.157 85.2359 261.644 85.6795C262.132 86.123 262.844 86.3817 263.781 86.4556C264.719 86.4926 265.881 86.4741 267.268 86.4002V92.8865C262.282 93.4409 258.757 92.9789 256.695 91.5006C254.671 90.0222 253.658 87.3796 253.658 83.5728V70.6553H248.766V63.7808H253.658V58.1815L260.913 56.0193V63.7808H267.268V70.6553Z" fill="white"/>
<path d="M232.833 72.3462C232.833 73.0854 233.32 73.6952 234.295 74.1757C235.307 74.6192 236.526 75.0257 237.95 75.3953C239.375 75.7279 240.8 76.1715 242.224 76.7259C243.649 77.2433 244.849 78.1303 245.824 79.3869C246.836 80.6436 247.342 82.2143 247.342 84.0993C247.342 86.9451 246.255 89.1442 244.08 90.6965C241.943 92.2118 239.263 92.9695 236.038 92.9695C230.264 92.9695 226.328 90.7704 224.228 86.3723L230.527 82.8796C231.352 85.282 233.189 86.4831 236.038 86.4831C238.625 86.4831 239.919 85.6885 239.919 84.0993C239.919 83.3601 239.413 82.7687 238.4 82.3252C237.425 81.8447 236.226 81.4197 234.801 81.0501C233.376 80.6805 231.952 80.2185 230.527 79.6641C229.102 79.1097 227.884 78.2412 226.871 77.0585C225.897 75.8388 225.409 74.3235 225.409 72.5125C225.409 69.7775 226.421 67.6338 228.446 66.0815C230.508 64.4923 233.058 63.6977 236.094 63.6977C238.381 63.6977 240.462 64.2151 242.337 65.25C244.212 66.2479 245.692 67.6893 246.78 69.5742L240.594 72.9006C239.694 71.0156 238.194 70.0732 236.094 70.0732C235.157 70.0732 234.37 70.2764 233.732 70.683C233.133 71.0895 232.833 71.6439 232.833 72.3462Z" fill="white"/>
<path d="M216.684 63.7808H224.445L214.21 92.8865C212.747 96.8781 210.798 99.761 208.361 101.535C205.961 103.346 202.962 104.159 199.363 103.974V97.3216C201.312 97.3586 202.849 96.952 203.974 96.102C205.136 95.2519 206.055 93.8844 206.73 91.9995L195.201 63.7808H203.131L210.442 83.7945L216.684 63.7808Z" fill="white"/>
<path d="M184.456 92.8863L184.456 52H191.71L191.711 92.8863H184.456Z" fill="white"/>
<path d="M174.137 63.7808H181.392V92.8864H174.137V89.0056C171.963 91.7037 168.907 93.0527 164.97 93.0527C161.221 93.0527 157.997 91.6482 155.297 88.8393C152.635 85.9934 151.304 82.5192 151.304 78.4167C151.304 74.3142 152.635 70.8585 155.297 68.0496C157.997 65.2038 161.221 63.7808 164.97 63.7808C168.907 63.7808 171.963 65.1298 174.137 67.8279V63.7808ZM160.753 84.0715C162.215 85.5129 164.071 86.2337 166.32 86.2337C168.57 86.2337 170.426 85.5129 171.888 84.0715C173.387 82.5932 174.137 80.7082 174.137 78.4167C174.137 76.1253 173.387 74.2588 171.888 72.8174C170.426 71.339 168.57 70.5998 166.32 70.5998C164.071 70.5998 162.215 71.339 160.753 72.8174C159.29 74.2588 158.559 76.1253 158.559 78.4167C158.559 80.7082 159.29 82.5932 160.753 84.0715Z" fill="white"/>
<path d="M137.349 63.7808C140.423 63.7808 142.954 64.7972 144.941 66.83C146.966 68.8627 147.978 71.6717 147.978 75.2567V92.9695H140.723V76.1437C140.723 74.2958 140.217 72.8913 139.205 71.9304C138.193 70.9325 136.843 70.4335 135.156 70.4335C133.281 70.4335 131.781 71.0064 130.657 72.1521C129.532 73.2979 128.97 75.0165 128.97 77.308V92.9695H121.715V63.864H128.97V67.6616C130.732 65.0744 133.525 63.7808 137.349 63.7808Z" fill="white"/>
<path d="M109.794 92.8864L107.432 85.9011H91.7415L89.3795 92.8864H81L94.7784 52H104.395L118.23 92.8864H109.794ZM94.216 76.6704H105.014L99.6149 60.8148L94.216 76.6704Z" fill="white"/>
</svg>
