<svg width="212" height="32" viewBox="0 0 212 32" fill="none" xmlns="http://www.w3.org/2000/svg">
<path d="M19.242 17.2236C19.242 22.5939 14.9346 26.9474 9.62102 26.9474C4.30748 26.9474 0 22.5939 0 17.2236C0 11.8534 4.30832 7.49991 9.62186 7.49991H16.3946C17.9477 7.49991 19.242 6.10458 19.242 6.10458V17.2236ZM9.57788 14.0405C7.81464 14.0405 6.38525 15.4852 6.38525 17.2672C6.38525 19.0493 7.81464 20.494 9.57788 20.494C11.3411 20.494 12.7705 19.0493 12.7705 17.2672V14.0405H9.57788Z" fill="white"/>
<path d="M12.7705 3.22671C12.7705 1.44465 14.1999 0 15.9631 0C17.7264 0 19.1558 1.44465 19.1558 3.22671C19.1558 5.00877 17.7264 6.45341 15.9631 6.45341H12.7705V3.22671Z" fill="white"/>
<path d="M113.669 7.07368H117.14V26.9474H113.669V25.0206C112.646 26.3321 111.193 26.9878 109.309 26.9878C107.497 26.9878 105.945 26.3051 104.653 24.9398C103.379 23.5565 102.742 21.8678 102.742 19.8737C102.742 17.8796 103.379 16.1999 104.653 14.8345C105.945 13.4512 107.497 12.7596 109.309 12.7596C111.193 12.7596 112.646 13.4153 113.669 14.7267V7.07368ZM107.264 22.6223C107.981 23.323 108.878 23.6733 109.955 23.6733C111.031 23.6733 111.919 23.323 112.619 22.6223C113.319 21.9037 113.669 20.9875 113.669 19.8737C113.669 18.7599 113.319 17.8526 112.619 17.152C111.919 16.4334 111.031 16.0741 109.955 16.0741C108.878 16.0741 107.981 16.4334 107.264 17.152C106.564 17.8526 106.214 18.7599 106.214 19.8737C106.214 20.9875 106.564 21.9037 107.264 22.6223Z" fill="white"/>
<path d="M90.8704 21.3019C91.3369 22.9906 92.6017 23.8349 94.6649 23.8349C95.9926 23.8349 96.9973 23.3858 97.679 22.4876L100.478 24.1044C99.1502 26.0267 97.1946 26.9878 94.6111 26.9878C92.3864 26.9878 90.6013 26.3141 89.2557 24.9667C87.9101 23.6194 87.2374 21.9217 87.2374 19.8737C87.2374 17.8437 87.9012 16.1549 89.2288 14.8076C90.5564 13.4422 92.2608 12.7596 94.342 12.7596C96.3155 12.7596 97.9392 13.4422 99.213 14.8076C100.505 16.1729 101.151 17.8616 101.151 19.8737C101.151 20.3228 101.106 20.7989 101.016 21.3019H90.8704ZM90.8166 18.6072H97.679C97.4817 17.6909 97.069 17.0083 96.4411 16.5592C95.8311 16.11 95.1314 15.8855 94.342 15.8855C93.4091 15.8855 92.6376 16.128 92.0276 16.6131C91.4176 17.0801 91.0139 17.7448 90.8166 18.6072Z" fill="white"/>
<path d="M82.3155 15.4543C82.6385 14.592 83.1677 13.9452 83.9033 13.5141C84.6568 13.0829 85.4911 12.8674 86.4061 12.8674V16.7478C85.3475 16.622 84.3967 16.8376 83.5534 17.3945C82.7282 17.9514 82.3155 18.8766 82.3155 20.1701V26.9474H78.8439V12.8674H82.3155V15.4543Z" fill="white"/>
<path d="M74.9264 11.3583C74.3523 11.3583 73.85 11.1517 73.4194 10.7385C73.0067 10.3074 72.8004 9.80435 72.8004 9.22947C72.8004 8.6546 73.0067 8.15158 73.4194 7.72042C73.85 7.28926 74.3523 7.07368 74.9264 7.07368C75.5185 7.07368 76.0208 7.28926 76.4335 7.72042C76.8641 8.15158 77.0793 8.6546 77.0793 9.22947C77.0793 9.80435 76.8641 10.3074 76.4335 10.7385C76.0208 11.1517 75.5185 11.3583 74.9264 11.3583ZM73.2041 26.9474V12.8H76.6757V26.9474H73.2041Z" fill="white"/>
<path d="M64.5257 12.7596C66.3378 12.7596 67.8807 13.4512 69.1545 14.8345C70.4463 16.1999 71.0921 17.8796 71.0921 19.8737C71.0921 21.8678 70.4463 23.5565 69.1545 24.9398C67.8807 26.3051 66.3378 26.9878 64.5257 26.9878C62.6419 26.9878 61.1887 26.3321 60.1661 25.0206V32H56.6945V12.8H60.1661V14.7267C61.1887 13.4153 62.6419 12.7596 64.5257 12.7596ZM61.2156 22.6223C61.9153 23.323 62.8034 23.6733 63.8799 23.6733C64.9563 23.6733 65.8444 23.323 66.5441 22.6223C67.2617 21.9037 67.6206 20.9875 67.6206 19.8737C67.6206 18.7599 67.2617 17.8526 66.5441 17.152C65.8444 16.4334 64.9563 16.0741 63.8799 16.0741C62.8034 16.0741 61.9153 16.4334 61.2156 17.152C60.5159 17.8526 60.1661 18.7599 60.1661 19.8737C60.1661 20.9875 60.5159 21.9037 61.2156 22.6223Z" fill="white"/>
<path d="M48.0601 16.9634C48.0601 17.3227 48.2933 17.6191 48.7598 17.8526C49.2442 18.0682 49.8273 18.2658 50.509 18.4455C51.1908 18.6072 51.8726 18.8227 52.5543 19.0922C53.2361 19.3437 53.8102 19.7749 54.2767 20.3857C54.7611 20.9965 55.0033 21.76 55.0033 22.6762C55.0033 24.0595 54.483 25.1284 53.4424 25.8829C52.4198 26.6195 51.137 26.9878 49.594 26.9878C46.8311 26.9878 44.9473 25.9189 43.9426 23.7811L46.9567 22.0834C47.3514 23.2511 48.2305 23.8349 49.594 23.8349C50.832 23.8349 51.4509 23.4487 51.4509 22.6762C51.4509 22.3169 51.2087 22.0295 50.7243 21.8139C50.2579 21.5804 49.6838 21.3738 49.002 21.1941C48.3202 21.0145 47.6385 20.7899 46.9567 20.5204C46.275 20.2509 45.6919 19.8288 45.2075 19.2539C44.741 18.6611 44.5078 17.9245 44.5078 17.0442C44.5078 15.7148 44.9922 14.6728 45.961 13.9183C46.9477 13.1458 48.1677 12.7596 49.621 12.7596C50.7154 12.7596 51.7111 13.0111 52.6081 13.5141C53.5052 13.9992 54.2139 14.6998 54.7341 15.616L51.7739 17.2328C51.3433 16.3166 50.6257 15.8585 49.621 15.8585C49.1724 15.8585 48.7957 15.9573 48.4907 16.1549C48.2036 16.3526 48.0601 16.622 48.0601 16.9634Z" fill="white"/>
<path d="M37.1435 12.7596C38.6146 12.7596 39.8256 13.2536 40.7765 14.2417C41.7453 15.2298 42.2297 16.5951 42.2297 18.3377V26.9474H38.7581V18.7688C38.7581 17.8706 38.5159 17.1879 38.0315 16.7208C37.5471 16.2358 36.9013 15.9933 36.0939 15.9933C35.1969 15.9933 34.4792 16.2717 33.941 16.8286C33.4028 17.3855 33.1336 18.2209 33.1336 19.3347V26.9474H29.6621V12.8H33.1336V14.6459C33.9769 13.3884 35.3135 12.7596 37.1435 12.7596Z" fill="white"/>
<path d="M23.9682 7.07368H27.6819V26.9474H23.9682V7.07368Z" fill="white"/>
<path d="M212 16.0161H208.948V22.2082C208.948 22.6688 209.065 23.0054 209.299 23.218C209.533 23.4306 209.875 23.5546 210.325 23.5901C210.776 23.6078 211.334 23.5989 212 23.5635V26.6727C209.605 26.9385 207.913 26.717 206.922 26.0084C205.95 25.2997 205.464 24.033 205.464 22.2082V16.0161H203.114V12.7208H205.464V10.0368L208.948 9.00036V12.7208H212V16.0161Z" fill="white"/>
<path d="M195.462 16.8267C195.462 17.181 195.696 17.4733 196.164 17.7036C196.65 17.9162 197.235 18.1111 197.92 18.2883C198.604 18.4477 199.288 18.6603 199.972 18.9261C200.657 19.1741 201.233 19.5993 201.701 20.2017C202.187 20.804 202.43 21.557 202.43 22.4605C202.43 23.8247 201.908 24.8788 200.864 25.6229C199.837 26.3493 198.55 26.7125 197.001 26.7125C194.228 26.7125 192.338 25.6584 191.329 23.5501L194.354 21.8759C194.75 23.0275 195.633 23.6033 197.001 23.6033C198.244 23.6033 198.865 23.2223 198.865 22.4605C198.865 22.1062 198.622 21.8227 198.136 21.6101C197.668 21.3798 197.091 21.1761 196.407 20.9989C195.723 20.8218 195.039 20.6003 194.354 20.3345C193.67 20.0688 193.085 19.6525 192.599 19.0855C192.131 18.5009 191.896 17.7745 191.896 16.9064C191.896 15.5954 192.383 14.5678 193.355 13.8237C194.345 13.0619 195.57 12.681 197.028 12.681C198.127 12.681 199.126 12.929 200.026 13.4251C200.927 13.9034 201.638 14.5944 202.16 15.4979L199.189 17.0924C198.757 16.1889 198.037 15.7371 197.028 15.7371C196.578 15.7371 196.2 15.8345 195.894 16.0294C195.606 16.2243 195.462 16.49 195.462 16.8267Z" fill="white"/>
<path d="M187.706 12.7208H191.434L186.518 26.6727C185.815 28.5861 184.879 29.968 183.709 30.8184C182.556 31.6865 181.116 32.0763 179.387 31.9877V28.7987C180.324 28.8164 181.062 28.6215 181.602 28.2141C182.16 27.8066 182.601 27.1511 182.925 26.2475L177.389 12.7208H181.197L184.708 22.3144L187.706 12.7208Z" fill="white"/>
<path d="M172.228 26.6726L172.228 7.07368H175.712L175.712 26.6726H172.228Z" fill="white"/>
<path d="M167.272 12.7208H170.756V26.6726H167.272V24.8124C166.228 26.1057 164.76 26.7524 162.87 26.7524C161.069 26.7524 159.521 26.0791 158.224 24.7327C156.946 23.3685 156.306 21.7031 156.306 19.7366C156.306 17.7701 156.946 16.1136 158.224 14.7671C159.521 13.4029 161.069 12.7208 162.87 12.7208C164.76 12.7208 166.228 13.3675 167.272 14.6608V12.7208ZM160.844 22.4472C161.546 23.1382 162.438 23.4837 163.518 23.4837C164.598 23.4837 165.49 23.1382 166.192 22.4472C166.912 21.7386 167.272 20.835 167.272 19.7366C167.272 18.6382 166.912 17.7435 166.192 17.0525C165.49 16.3439 164.598 15.9896 163.518 15.9896C162.438 15.9896 161.546 16.3439 160.844 17.0525C160.142 17.7435 159.791 18.6382 159.791 19.7366C159.791 20.835 160.142 21.7386 160.844 22.4472Z" fill="white"/>
<path d="M149.604 12.7208C151.081 12.7208 152.296 13.208 153.25 14.1825C154.223 15.1569 154.709 16.5033 154.709 18.2218V26.7125H151.225V18.647C151.225 17.7612 150.982 17.088 150.495 16.6273C150.009 16.149 149.361 15.9098 148.551 15.9098C147.65 15.9098 146.93 16.1844 146.39 16.7336C145.85 17.2829 145.58 18.1067 145.58 19.2051V26.7125H142.095V12.7607H145.58V14.5811C146.426 13.3409 147.767 12.7208 149.604 12.7208Z" fill="white"/>
<path d="M136.37 26.6727L135.236 23.3242H127.7L126.566 26.6727H122.541L129.159 7.07368H133.777L140.422 26.6727H136.37ZM128.889 18.8995H134.074L131.482 11.2991L128.889 18.8995Z" fill="white"/>
</svg>
