<svg width="400" height="314" viewBox="0 0 400 314" fill="none" xmlns="http://www.w3.org/2000/svg">
<path d="M366.971 279.396C340.168 379.425 237.753 438.895 138.22 412.225C38.6873 385.556 -20.2721 282.846 6.53072 182.816C33.3335 82.7871 135.765 23.3216 235.297 49.9914L362.163 83.9849C391.257 91.7806 422.466 72.2868 422.466 72.2868L366.971 279.396ZM201.83 171.6C168.801 162.75 134.815 182.484 125.921 215.677C117.027 248.871 136.592 282.954 169.621 291.804C202.65 300.654 236.635 280.92 245.529 247.726L261.634 187.624L201.83 171.6Z" fill="url(#paint0_linear_164_1615)"/>
<path d="M315.605 -13.7999C324.499 -46.9935 358.484 -66.7279 391.513 -57.8778C424.542 -49.0278 444.107 -14.9447 435.213 18.2489C426.319 51.4425 392.333 71.1769 359.305 62.3268L299.501 46.3024L315.605 -13.7999Z" fill="url(#paint1_linear_164_1615)"/>
<defs>
<linearGradient id="paint0_linear_164_1615" x1="272.713" y1="-89.7101" x2="138.22" y2="412.225" gradientUnits="userSpaceOnUse">
<stop stop-color="#333333"/>
<stop offset="1" stop-color="#1F1F1F"/>
</linearGradient>
<linearGradient id="paint1_linear_164_1615" x1="272.713" y1="-89.7101" x2="138.22" y2="412.225" gradientUnits="userSpaceOnUse">
<stop stop-color="#333333"/>
<stop offset="1" stop-color="#1F1F1F"/>
</linearGradient>
</defs>
</svg>
