<svg width="847" height="344" viewBox="0 0 847 344" fill="none" xmlns="http://www.w3.org/2000/svg">
<rect x="0.5" y="0.5" width="846" height="343" rx="15.5" fill="#1F1F1F"/>
<rect x="0.5" y="0.5" width="846" height="343" rx="15.5" stroke="url(#paint0_linear_1639_1384)"/>
<path d="M26.56 26C27.88 26 28.98 26.44 29.86 27.32C30.7533 28.2 31.2 29.2933 31.2 30.6C31.2 31.8933 30.7533 32.9867 29.86 33.88C28.98 34.76 27.88 35.2 26.56 35.2H23.7V40H21.4V26H26.56ZM26.56 33.04C27.24 33.04 27.8 32.8133 28.24 32.36C28.68 31.8933 28.9 31.3067 28.9 30.6C28.9 29.8933 28.68 29.3133 28.24 28.86C27.8 28.3933 27.24 28.16 26.56 28.16H23.7V33.04H26.56ZM37.0738 40.26C35.6071 40.26 34.3604 39.7533 33.3338 38.74C32.3071 37.7267 31.7938 36.48 31.7938 35C31.7938 33.52 32.3071 32.2733 33.3338 31.26C34.3604 30.2467 35.6071 29.74 37.0738 29.74C38.5538 29.74 39.8004 30.2467 40.8138 31.26C41.8404 32.2733 42.3538 33.52 42.3538 35C42.3538 36.48 41.8404 37.7267 40.8138 38.74C39.8004 39.7533 38.5538 40.26 37.0738 40.26ZM34.8538 37.26C35.4538 37.86 36.1938 38.16 37.0738 38.16C37.9538 38.16 38.6938 37.86 39.2938 37.26C39.8938 36.66 40.1938 35.9067 40.1938 35C40.1938 34.0933 39.8938 33.34 39.2938 32.74C38.6938 32.14 37.9538 31.84 37.0738 31.84C36.1938 31.84 35.4538 32.14 34.8538 32.74C34.2538 33.34 33.9538 34.0933 33.9538 35C33.9538 35.9067 34.2538 36.66 34.8538 37.26ZM46.4669 31.68C47.0135 30.44 48.0402 29.82 49.5469 29.82V32.16C48.7202 32.1067 48.0002 32.3067 47.3869 32.76C46.7735 33.2 46.4669 33.9333 46.4669 34.96V40H44.3069V30H46.4669V31.68ZM56.9767 32.08H54.4967V36.88C54.4967 37.2933 54.5901 37.5933 54.7767 37.78C54.9634 37.9533 55.2367 38.0533 55.5967 38.08C55.9701 38.0933 56.4301 38.0867 56.9767 38.06V40C55.3234 40.2 54.1367 40.06 53.4167 39.58C52.6967 39.0867 52.3367 38.1867 52.3367 36.88V32.08H50.4967V30H52.3367V27.84L54.4967 27.2V30H56.9767V32.08ZM63.6484 27.82C62.0751 27.6733 61.2884 28.3333 61.2884 29.8V30H63.6484V32.08H61.2884V40H59.1284V32.08H57.6084V30H59.1284V29.8C59.1284 28.4267 59.5084 27.3867 60.2684 26.68C61.0418 25.96 62.1684 25.6467 63.6484 25.74V27.82ZM69.1636 40.26C67.6969 40.26 66.4503 39.7533 65.4236 38.74C64.3969 37.7267 63.8836 36.48 63.8836 35C63.8836 33.52 64.3969 32.2733 65.4236 31.26C66.4503 30.2467 67.6969 29.74 69.1636 29.74C70.6436 29.74 71.8903 30.2467 72.9036 31.26C73.9303 32.2733 74.4436 33.52 74.4436 35C74.4436 36.48 73.9303 37.7267 72.9036 38.74C71.8903 39.7533 70.6436 40.26 69.1636 40.26ZM66.9436 37.26C67.5436 37.86 68.2836 38.16 69.1636 38.16C70.0436 38.16 70.7836 37.86 71.3836 37.26C71.9836 36.66 72.2836 35.9067 72.2836 35C72.2836 34.0933 71.9836 33.34 71.3836 32.74C70.7836 32.14 70.0436 31.84 69.1636 31.84C68.2836 31.84 67.5436 32.14 66.9436 32.74C66.3436 33.34 66.0436 34.0933 66.0436 35C66.0436 35.9067 66.3436 36.66 66.9436 37.26ZM76.3967 40V25.4H78.5567V40H76.3967ZM83.1047 28.1C82.838 28.3667 82.518 28.5 82.1447 28.5C81.7714 28.5 81.4447 28.3667 81.1647 28.1C80.898 27.82 80.7647 27.4933 80.7647 27.12C80.7647 26.7467 80.898 26.4267 81.1647 26.16C81.4314 25.88 81.758 25.74 82.1447 25.74C82.5314 25.74 82.858 25.88 83.1247 26.16C83.3914 26.4267 83.5247 26.7467 83.5247 27.12C83.5247 27.4933 83.3847 27.82 83.1047 28.1ZM81.0647 40V30H83.2247V40H81.0647ZM90.4527 40.26C88.986 40.26 87.7393 39.7533 86.7127 38.74C85.686 37.7267 85.1727 36.48 85.1727 35C85.1727 33.52 85.686 32.2733 86.7127 31.26C87.7393 30.2467 88.986 29.74 90.4527 29.74C91.9327 29.74 93.1793 30.2467 94.1927 31.26C95.2193 32.2733 95.7327 33.52 95.7327 35C95.7327 36.48 95.2193 37.7267 94.1927 38.74C93.1793 39.7533 91.9327 40.26 90.4527 40.26ZM88.2327 37.26C88.8327 37.86 89.5727 38.16 90.4527 38.16C91.3327 38.16 92.0727 37.86 92.6727 37.26C93.2727 36.66 93.5727 35.9067 93.5727 35C93.5727 34.0933 93.2727 33.34 92.6727 32.74C92.0727 32.14 91.3327 31.84 90.4527 31.84C89.5727 31.84 88.8327 32.14 88.2327 32.74C87.6327 33.34 87.3327 34.0933 87.3327 35C87.3327 35.9067 87.6327 36.66 88.2327 37.26ZM106.386 40L101.526 26H104.046L107.766 37.22L111.506 26H114.006L109.146 40H106.386ZM122.09 30H124.25V40H122.09V38.56C121.277 39.6933 120.11 40.26 118.59 40.26C117.217 40.26 116.043 39.7533 115.07 38.74C114.097 37.7133 113.61 36.4667 113.61 35C113.61 33.52 114.097 32.2733 115.07 31.26C116.043 30.2467 117.217 29.74 118.59 29.74C120.11 29.74 121.277 30.3 122.09 31.42V30ZM116.67 37.3C117.27 37.9 118.023 38.2 118.93 38.2C119.837 38.2 120.59 37.9 121.19 37.3C121.79 36.6867 122.09 35.92 122.09 35C122.09 34.08 121.79 33.32 121.19 32.72C120.59 32.1067 119.837 31.8 118.93 31.8C118.023 31.8 117.27 32.1067 116.67 32.72C116.07 33.32 115.77 34.08 115.77 35C115.77 35.92 116.07 36.6867 116.67 37.3ZM126.768 40V25.4H128.928V40H126.768ZM138.176 30H140.336V40H138.176V38.72C137.522 39.7467 136.489 40.26 135.076 40.26C133.929 40.26 133.002 39.8933 132.296 39.16C131.589 38.4267 131.236 37.42 131.236 36.14V30H133.396V35.92C133.396 36.6667 133.596 37.24 133.996 37.64C134.396 38.04 134.942 38.24 135.636 38.24C136.396 38.24 137.009 38.0067 137.476 37.54C137.942 37.06 138.176 36.3333 138.176 35.36V30ZM144.562 35.92C144.722 36.68 145.088 37.2667 145.662 37.68C146.235 38.08 146.935 38.28 147.762 38.28C148.908 38.28 149.768 37.8667 150.342 37.04L152.122 38.08C151.135 39.5333 149.675 40.26 147.742 40.26C146.115 40.26 144.802 39.7667 143.802 38.78C142.802 37.78 142.302 36.52 142.302 35C142.302 33.5067 142.795 32.26 143.782 31.26C144.768 30.2467 146.035 29.74 147.582 29.74C149.048 29.74 150.248 30.2533 151.182 31.28C152.128 32.3067 152.602 33.5533 152.602 35.02C152.602 35.2467 152.575 35.5467 152.522 35.92H144.562ZM144.542 34.16H150.422C150.275 33.3467 149.935 32.7333 149.402 32.32C148.882 31.9067 148.268 31.7 147.562 31.7C146.762 31.7 146.095 31.92 145.562 32.36C145.028 32.8 144.688 33.4 144.542 34.16Z" fill="white"/>
<rect x="625.5" y="20.5" width="201" height="29" rx="14.5" fill="#DE50EC" fill-opacity="0.1"/>
<rect x="625.5" y="20.5" width="201" height="29" rx="14.5" stroke="#DE50EC"/>
<path d="M645.772 29.2H646.892V39H645.604V30.6L643.518 31.216L643.196 30.096L645.772 29.2ZM655.102 29.2H656.39V39H655.102V34.59H650.342V39H649.04V29.2H650.342V33.358H655.102V29.2ZM659.58 33.176C659.981 32.308 660.709 31.874 661.764 31.874V33.148C661.166 33.12 660.653 33.2787 660.224 33.624C659.794 33.9693 659.58 34.5247 659.58 35.29V39H658.361V32H659.58V33.176Z" fill="#DE50EC"/>
<path d="M686.252 29.2H687.372V39H686.084V30.6L683.998 31.216L683.676 30.096L686.252 29.2ZM693.343 29.2C694.677 29.2 695.783 29.676 696.661 30.628C697.547 31.5707 697.991 32.728 697.991 34.1C697.991 35.472 697.547 36.634 696.661 37.586C695.783 38.5287 694.677 39 693.343 39H689.521V29.2H693.343ZM693.343 37.768C694.341 37.768 695.158 37.418 695.793 36.718C696.427 36.018 696.745 35.1453 696.745 34.1C696.745 33.0547 696.427 32.182 695.793 31.482C695.158 30.782 694.341 30.432 693.343 30.432H690.823V37.768H693.343Z" fill="#DE50EC"/>
<path d="M721.777 29.2H722.897V39H721.609V30.6L719.523 31.216L719.201 30.096L721.777 29.2ZM727.159 39L724.345 29.2H725.717L727.957 37.264L730.337 29.2H731.653L734.033 37.264L736.273 29.2H737.645L734.831 39H733.319L730.995 31.174L728.671 39H727.159Z" fill="#DE50EC"/>
<rect x="748" y="24" width="37" height="22" rx="11" fill="#1F1F1F"/>
<path d="M761.144 29.2H762.264V39H760.976V30.6L758.89 31.216L758.568 30.096L761.144 29.2ZM773.582 29.2V39H772.294V31.342L769.088 36.676H768.92L765.714 31.356V39H764.412V29.2H765.882L769.004 34.38L772.112 29.2H773.582Z" fill="#DE50EC"/>
<path d="M798.052 29.2H799.172V39H797.884V30.6L795.798 31.216L795.476 30.096L798.052 29.2ZM808.615 29.2L805.143 35.038V39H803.841V35.024L800.383 29.2H801.839L804.499 33.792L807.159 29.2H808.615Z" fill="#DE50EC"/>
<path d="M26.65 72.918C27.098 73.1327 27.4527 73.4407 27.714 73.842C27.9847 74.2433 28.12 74.7053 28.12 75.228C28.12 76.012 27.8447 76.67 27.294 77.202C26.7433 77.734 26.0713 78 25.278 78H21.05V68.2H24.97C25.7353 68.2 26.384 68.4567 26.916 68.97C27.448 69.4833 27.714 70.118 27.714 70.874C27.714 71.742 27.3593 72.4233 26.65 72.918ZM24.97 69.418H22.352V72.414H24.97C25.3807 72.414 25.726 72.2693 26.006 71.98C26.286 71.6907 26.426 71.336 26.426 70.916C26.426 70.5053 26.2813 70.1553 25.992 69.866C25.712 69.5673 25.3713 69.418 24.97 69.418ZM25.278 76.782C25.7167 76.782 26.0853 76.628 26.384 76.32C26.6827 76.012 26.832 75.634 26.832 75.186C26.832 74.7473 26.678 74.374 26.37 74.066C26.0713 73.758 25.7073 73.604 25.278 73.604H22.352V76.782H25.278ZM35.6618 68.2V69.432H32.7638V78H31.4758V69.432H28.5918V68.2H35.6618ZM40.9958 78.182C39.5118 78.182 38.2845 77.692 37.3138 76.712C36.3525 75.732 35.8718 74.528 35.8718 73.1C35.8718 71.672 36.3525 70.468 37.3138 69.488C38.2845 68.508 39.5118 68.018 40.9958 68.018C41.8918 68.018 42.7132 68.2327 43.4598 68.662C44.2158 69.0913 44.8038 69.67 45.2238 70.398L44.0898 71.056C43.8098 70.5147 43.3898 70.0853 42.8298 69.768C42.2792 69.4413 41.6678 69.278 40.9958 69.278C39.8665 69.278 38.9425 69.642 38.2238 70.37C37.5145 71.098 37.1598 72.008 37.1598 73.1C37.1598 74.1827 37.5145 75.088 38.2238 75.816C38.9425 76.544 39.8665 76.908 40.9958 76.908C41.6678 76.908 42.2792 76.7493 42.8298 76.432C43.3898 76.1053 43.8098 75.676 44.0898 75.144L45.2238 75.788C44.8132 76.516 44.2298 77.0993 43.4738 77.538C42.7178 77.9673 41.8918 78.182 40.9958 78.182ZM47.3835 72.652C47.1315 72.652 46.9168 72.5633 46.7395 72.386C46.5621 72.2087 46.4735 71.994 46.4735 71.742C46.4735 71.49 46.5621 71.2753 46.7395 71.098C46.9168 70.9207 47.1315 70.832 47.3835 70.832C47.6448 70.832 47.8595 70.9207 48.0275 71.098C48.2048 71.2753 48.2935 71.49 48.2935 71.742C48.2935 71.994 48.2048 72.2087 48.0275 72.386C47.8595 72.5633 47.6448 72.652 47.3835 72.652ZM47.3835 78.154C47.1315 78.154 46.9168 78.0653 46.7395 77.888C46.5621 77.7107 46.4735 77.496 46.4735 77.244C46.4735 76.992 46.5621 76.7773 46.7395 76.6C46.9168 76.4227 47.1315 76.334 47.3835 76.334C47.6448 76.334 47.8595 76.4227 48.0275 76.6C48.2048 76.7773 48.2935 76.992 48.2935 77.244C48.2935 77.496 48.2048 77.7107 48.0275 77.888C47.8595 78.0653 47.6448 78.154 47.3835 78.154ZM59.8038 75.382C59.8038 76.1473 59.5518 76.7773 59.0478 77.272C58.5438 77.7667 57.8904 78.0607 57.0878 78.154V79.4H56.2058V78.168C55.4404 78.112 54.7871 77.902 54.2458 77.538C53.7138 77.174 53.3264 76.684 53.0838 76.068L54.2038 75.424C54.5211 76.292 55.1884 76.782 56.2058 76.894V73.506C55.7858 73.3567 55.4451 73.2213 55.1838 73.1C54.9318 72.9693 54.6658 72.7967 54.3858 72.582C54.1058 72.3673 53.8958 72.106 53.7558 71.798C53.6251 71.4807 53.5598 71.1167 53.5598 70.706C53.5598 69.95 53.8118 69.334 54.3158 68.858C54.8198 68.382 55.4498 68.1067 56.2058 68.032V66.8H57.0878V68.046C57.6478 68.1207 58.1471 68.3167 58.5858 68.634C59.0244 68.9513 59.3651 69.3807 59.6078 69.922L58.5158 70.538C58.2451 69.8567 57.7691 69.4507 57.0878 69.32V72.54C57.5171 72.6987 57.8578 72.8387 58.1098 72.96C58.3618 73.0813 58.6371 73.254 58.9358 73.478C59.2344 73.6927 59.4538 73.9587 59.5938 74.276C59.7338 74.5933 59.8038 74.962 59.8038 75.382ZM54.8478 70.706C54.8478 71.0607 54.9551 71.35 55.1698 71.574C55.3844 71.798 55.7298 72.008 56.2058 72.204V69.306C55.7951 69.362 55.4638 69.516 55.2118 69.768C54.9691 70.0107 54.8478 70.3233 54.8478 70.706ZM57.0878 76.866C57.5358 76.8007 57.8811 76.6373 58.1238 76.376C58.3758 76.1053 58.5018 75.7787 58.5018 75.396C58.5018 75.0133 58.3851 74.71 58.1518 74.486C57.9278 74.2527 57.5731 74.0333 57.0878 73.828V76.866ZM60.795 78V76.936L64.253 73.408C65.177 72.484 65.639 71.6907 65.639 71.028C65.639 70.4773 65.471 70.048 65.135 69.74C64.799 69.432 64.3883 69.278 63.903 69.278C62.979 69.278 62.307 69.7167 61.887 70.594L60.795 69.95C61.103 69.3153 61.5277 68.8347 62.069 68.508C62.6197 68.1813 63.2263 68.018 63.889 68.018C64.7103 68.018 65.4243 68.2887 66.031 68.83C66.6377 69.3713 66.941 70.0993 66.941 71.014C66.941 72.0033 66.3577 73.0813 65.191 74.248L62.685 76.74H67.123V78H60.795ZM75.2537 74.92V76.138H74.0637V78H72.7617V76.138H67.7637V74.92L71.2777 68.2H72.6777L69.1637 74.92H72.7617V72.148H74.0637V74.92H75.2537ZM78.2928 76.558L77.3828 79.96H76.3328L76.8928 76.558H78.2928ZM85.862 76.796C85.1993 77.72 84.2707 78.182 83.076 78.182C81.8813 78.182 80.9527 77.72 80.29 76.796C79.6273 75.872 79.296 74.64 79.296 73.1C79.296 71.56 79.6273 70.328 80.29 69.404C80.9527 68.48 81.8813 68.018 83.076 68.018C84.2707 68.018 85.1993 68.48 85.862 69.404C86.5247 70.328 86.856 71.56 86.856 73.1C86.856 74.64 86.5247 75.872 85.862 76.796ZM81.242 75.914C81.6713 76.5767 82.2827 76.908 83.076 76.908C83.8693 76.908 84.4807 76.5767 84.91 75.914C85.3487 75.2513 85.568 74.3133 85.568 73.1C85.568 71.8867 85.3487 70.9487 84.91 70.286C84.4807 69.614 83.8693 69.278 83.076 69.278C82.2827 69.278 81.6713 69.6093 81.242 70.272C80.8127 70.9347 80.598 71.8773 80.598 73.1C80.598 74.3133 80.8127 75.2513 81.242 75.914ZM94.6804 76.796C94.0177 77.72 93.089 78.182 91.8944 78.182C90.6997 78.182 89.771 77.72 89.1084 76.796C88.4457 75.872 88.1144 74.64 88.1144 73.1C88.1144 71.56 88.4457 70.328 89.1084 69.404C89.771 68.48 90.6997 68.018 91.8944 68.018C93.089 68.018 94.0177 68.48 94.6804 69.404C95.343 70.328 95.6744 71.56 95.6744 73.1C95.6744 74.64 95.343 75.872 94.6804 76.796ZM90.0604 75.914C90.4897 76.5767 91.101 76.908 91.8944 76.908C92.6877 76.908 93.299 76.5767 93.7284 75.914C94.167 75.2513 94.3864 74.3133 94.3864 73.1C94.3864 71.8867 94.167 70.9487 93.7284 70.286C93.299 69.614 92.6877 69.278 91.8944 69.278C91.101 69.278 90.4897 69.6093 90.0604 70.272C89.631 70.9347 89.4164 71.8773 89.4164 73.1C89.4164 74.3133 89.631 75.2513 90.0604 75.914ZM103.499 76.796C102.836 77.72 101.907 78.182 100.713 78.182C99.5181 78.182 98.5894 77.72 97.9267 76.796C97.2641 75.872 96.9327 74.64 96.9327 73.1C96.9327 71.56 97.2641 70.328 97.9267 69.404C98.5894 68.48 99.5181 68.018 100.713 68.018C101.907 68.018 102.836 68.48 103.499 69.404C104.161 70.328 104.493 71.56 104.493 73.1C104.493 74.64 104.161 75.872 103.499 76.796ZM98.8787 75.914C99.3081 76.5767 99.9194 76.908 100.713 76.908C101.506 76.908 102.117 76.5767 102.547 75.914C102.985 75.2513 103.205 74.3133 103.205 73.1C103.205 71.8867 102.985 70.9487 102.547 70.286C102.117 69.614 101.506 69.278 100.713 69.278C99.9194 69.278 99.3081 69.6093 98.8787 70.272C98.4494 70.9347 98.2347 71.8773 98.2347 73.1C98.2347 74.3133 98.4494 75.2513 98.8787 75.914Z" fill="white"/>
<rect x="118.5" y="62.5" width="62" height="23" rx="11.5" fill="#05B353" fill-opacity="0.12"/>
<rect x="118.5" y="62.5" width="62" height="23" rx="11.5" stroke="#05B353"/>
<path d="M133.856 72.296V73.292H131.768V75.38H130.772V73.292H128.696V72.296H130.772V70.22H131.768V72.296H133.856ZM136.915 68.6H137.875V77H136.771V69.8L134.983 70.328L134.707 69.368L136.915 68.6ZM145.524 74.36V75.404H144.504V77H143.388V75.404H139.104V74.36L142.116 68.6H143.316L140.304 74.36H143.388V71.984H144.504V74.36H145.524ZM147.229 77.132C147.013 77.132 146.829 77.056 146.677 76.904C146.525 76.752 146.449 76.568 146.449 76.352C146.449 76.136 146.525 75.952 146.677 75.8C146.829 75.648 147.013 75.572 147.229 75.572C147.453 75.572 147.637 75.648 147.781 75.8C147.933 75.952 148.009 76.136 148.009 76.352C148.009 76.568 147.933 76.752 147.781 76.904C147.637 77.056 147.453 77.132 147.229 77.132ZM149.127 77V76.088L152.091 73.064C152.883 72.272 153.279 71.592 153.279 71.024C153.279 70.552 153.135 70.184 152.847 69.92C152.559 69.656 152.207 69.524 151.791 69.524C150.999 69.524 150.423 69.9 150.063 70.652L149.127 70.1C149.391 69.556 149.755 69.144 150.219 68.864C150.691 68.584 151.211 68.444 151.779 68.444C152.483 68.444 153.095 68.676 153.615 69.14C154.135 69.604 154.395 70.228 154.395 71.012C154.395 71.86 153.895 72.784 152.895 73.784L150.747 75.92H154.551V77H149.127ZM161.108 71.264C161.108 71.912 160.936 72.476 160.592 72.956H160.604L157.892 77H156.632L158.624 74.06C158.448 74.076 158.312 74.084 158.216 74.084C157.368 74.084 156.672 73.824 156.128 73.304C155.592 72.776 155.324 72.096 155.324 71.264C155.324 70.432 155.592 69.756 156.128 69.236C156.672 68.708 157.368 68.444 158.216 68.444C159.064 68.444 159.756 68.708 160.292 69.236C160.836 69.756 161.108 70.432 161.108 71.264ZM156.92 69.992C156.592 70.312 156.428 70.736 156.428 71.264C156.428 71.792 156.592 72.22 156.92 72.548C157.256 72.868 157.688 73.028 158.216 73.028C158.744 73.028 159.172 72.868 159.5 72.548C159.836 72.22 160.004 71.792 160.004 71.264C160.004 70.736 159.84 70.312 159.512 69.992C159.184 69.672 158.752 69.512 158.216 69.512C157.688 69.512 157.256 69.672 156.92 69.992ZM164.001 72.164C163.457 72.164 163.005 71.984 162.645 71.624C162.285 71.264 162.105 70.824 162.105 70.304C162.105 69.792 162.285 69.356 162.645 68.996C163.013 68.628 163.465 68.444 164.001 68.444C164.545 68.444 164.997 68.624 165.357 68.984C165.717 69.344 165.897 69.784 165.897 70.304C165.897 70.824 165.717 71.264 165.357 71.624C165.005 71.984 164.553 72.164 164.001 72.164ZM163.305 71.012C163.489 71.196 163.721 71.288 164.001 71.288C164.281 71.288 164.509 71.192 164.685 71C164.869 70.808 164.961 70.576 164.961 70.304C164.961 70.032 164.869 69.804 164.685 69.62C164.509 69.428 164.281 69.332 164.001 69.332C163.721 69.332 163.489 69.428 163.305 69.62C163.129 69.804 163.041 70.032 163.041 70.304C163.041 70.584 163.129 70.82 163.305 71.012ZM162.669 75.812L168.249 69.572L168.837 69.896L163.245 76.148L162.669 75.812ZM168.981 76.604C168.621 76.964 168.169 77.144 167.625 77.144C167.081 77.144 166.629 76.964 166.269 76.604C165.909 76.244 165.729 75.804 165.729 75.284C165.729 74.764 165.909 74.324 166.269 73.964C166.629 73.604 167.081 73.424 167.625 73.424C168.169 73.424 168.621 73.604 168.981 73.964C169.341 74.324 169.521 74.764 169.521 75.284C169.521 75.804 169.341 76.244 168.981 76.604ZM166.929 75.98C167.113 76.164 167.345 76.256 167.625 76.256C167.905 76.256 168.133 76.164 168.309 75.98C168.493 75.788 168.585 75.556 168.585 75.284C168.585 75.012 168.493 74.784 168.309 74.6C168.133 74.408 167.905 74.312 167.625 74.312C167.345 74.312 167.113 74.408 166.929 74.6C166.753 74.784 166.665 75.012 166.665 75.284C166.665 75.556 166.753 75.788 166.929 75.98Z" fill="#05B353"/>
<path d="M110.376 315.6H111.336V324H110.232V316.8L108.444 317.328L108.168 316.368L110.376 315.6ZM115.745 318.504C116.585 318.504 117.277 318.768 117.821 319.296C118.365 319.816 118.637 320.492 118.637 321.324C118.637 322.156 118.365 322.836 117.821 323.364C117.277 323.892 116.585 324.156 115.745 324.156C114.897 324.156 114.201 323.892 113.657 323.364C113.121 322.836 112.853 322.156 112.853 321.324C112.853 320.676 113.021 320.116 113.357 319.644L116.057 315.6H117.329L115.349 318.528C115.525 318.512 115.657 318.504 115.745 318.504ZM114.449 322.608C114.785 322.928 115.217 323.088 115.745 323.088C116.273 323.088 116.701 322.928 117.029 322.608C117.365 322.28 117.533 321.852 117.533 321.324C117.533 320.796 117.365 320.372 117.029 320.052C116.701 319.732 116.273 319.572 115.745 319.572C115.209 319.572 114.777 319.732 114.449 320.052C114.121 320.372 113.957 320.796 113.957 321.324C113.957 321.852 114.121 322.28 114.449 322.608ZM120.294 325.2H119.67L124.47 314.4H125.094L120.294 325.2ZM129.022 318.504C129.862 318.504 130.554 318.768 131.098 319.296C131.642 319.816 131.914 320.492 131.914 321.324C131.914 322.156 131.642 322.836 131.098 323.364C130.554 323.892 129.862 324.156 129.022 324.156C128.174 324.156 127.478 323.892 126.934 323.364C126.398 322.836 126.13 322.156 126.13 321.324C126.13 320.676 126.298 320.116 126.634 319.644L129.334 315.6H130.606L128.626 318.528C128.802 318.512 128.934 318.504 129.022 318.504ZM127.726 322.608C128.062 322.928 128.494 323.088 129.022 323.088C129.55 323.088 129.978 322.928 130.306 322.608C130.642 322.28 130.81 321.852 130.81 321.324C130.81 320.796 130.642 320.372 130.306 320.052C129.978 319.732 129.55 319.572 129.022 319.572C128.486 319.572 128.054 319.732 127.726 320.052C127.398 320.372 127.234 320.796 127.234 321.324C127.234 321.852 127.398 322.28 127.726 322.608Z" fill="white"/>
<path d="M223.099 324V323.088L226.063 320.064C226.855 319.272 227.251 318.592 227.251 318.024C227.251 317.552 227.107 317.184 226.819 316.92C226.531 316.656 226.179 316.524 225.763 316.524C224.971 316.524 224.395 316.9 224.035 317.652L223.099 317.1C223.363 316.556 223.727 316.144 224.191 315.864C224.663 315.584 225.183 315.444 225.751 315.444C226.455 315.444 227.067 315.676 227.587 316.14C228.107 316.604 228.367 317.228 228.367 318.012C228.367 318.86 227.867 319.784 226.867 320.784L224.719 322.92H228.523V324H223.099ZM229.667 324V323.088L232.631 320.064C233.423 319.272 233.819 318.592 233.819 318.024C233.819 317.552 233.675 317.184 233.387 316.92C233.099 316.656 232.747 316.524 232.331 316.524C231.539 316.524 230.963 316.9 230.603 317.652L229.667 317.1C229.931 316.556 230.295 316.144 230.759 315.864C231.231 315.584 231.751 315.444 232.319 315.444C233.023 315.444 233.635 315.676 234.155 316.14C234.675 316.604 234.935 317.228 234.935 318.012C234.935 318.86 234.435 319.784 233.435 320.784L231.287 322.92H235.091V324H229.667ZM236.883 325.2H236.259L241.059 314.4H241.683L236.883 325.2ZM245.611 318.504C246.451 318.504 247.143 318.768 247.687 319.296C248.231 319.816 248.503 320.492 248.503 321.324C248.503 322.156 248.231 322.836 247.687 323.364C247.143 323.892 246.451 324.156 245.611 324.156C244.763 324.156 244.067 323.892 243.523 323.364C242.987 322.836 242.719 322.156 242.719 321.324C242.719 320.676 242.887 320.116 243.223 319.644L245.923 315.6H247.195L245.215 318.528C245.391 318.512 245.523 318.504 245.611 318.504ZM244.315 322.608C244.651 322.928 245.083 323.088 245.611 323.088C246.139 323.088 246.567 322.928 246.895 322.608C247.231 322.28 247.399 321.852 247.399 321.324C247.399 320.796 247.231 320.372 246.895 320.052C246.567 319.732 246.139 319.572 245.611 319.572C245.075 319.572 244.643 319.732 244.315 320.052C243.987 320.372 243.823 320.796 243.823 321.324C243.823 321.852 243.987 322.28 244.315 322.608Z" fill="white"/>
<path d="M339.765 324V323.088L342.729 320.064C343.521 319.272 343.917 318.592 343.917 318.024C343.917 317.552 343.773 317.184 343.485 316.92C343.197 316.656 342.845 316.524 342.429 316.524C341.637 316.524 341.061 316.9 340.701 317.652L339.765 317.1C340.029 316.556 340.393 316.144 340.857 315.864C341.329 315.584 341.849 315.444 342.417 315.444C343.121 315.444 343.733 315.676 344.253 316.14C344.773 316.604 345.033 317.228 345.033 318.012C345.033 318.86 344.533 319.784 343.533 320.784L341.385 322.92H345.189V324H339.765ZM350.739 319.656C351.147 319.864 351.467 320.144 351.699 320.496C351.931 320.848 352.047 321.248 352.047 321.696C352.047 322.464 351.779 323.068 351.243 323.508C350.707 323.94 350.015 324.156 349.167 324.156C348.327 324.156 347.639 323.94 347.103 323.508C346.567 323.068 346.299 322.464 346.299 321.696C346.299 321.248 346.415 320.848 346.647 320.496C346.879 320.144 347.199 319.864 347.607 319.656C346.919 319.224 346.575 318.612 346.575 317.82C346.575 317.06 346.827 316.476 347.331 316.068C347.843 315.652 348.455 315.444 349.167 315.444C349.887 315.444 350.499 315.652 351.003 316.068C351.515 316.476 351.771 317.06 351.771 317.82C351.771 318.612 351.427 319.224 350.739 319.656ZM349.167 316.512C348.743 316.512 348.387 316.624 348.099 316.848C347.819 317.072 347.679 317.404 347.679 317.844C347.679 318.268 347.823 318.6 348.111 318.84C348.399 319.072 348.751 319.188 349.167 319.188C349.583 319.188 349.935 319.072 350.223 318.84C350.511 318.6 350.655 318.268 350.655 317.844C350.655 317.404 350.515 317.072 350.235 316.848C349.955 316.624 349.599 316.512 349.167 316.512ZM349.167 323.088C349.703 323.088 350.131 322.964 350.451 322.716C350.779 322.46 350.943 322.096 350.943 321.624C350.943 321.16 350.779 320.804 350.451 320.556C350.131 320.3 349.703 320.172 349.167 320.172C348.639 320.172 348.211 320.3 347.883 320.556C347.563 320.804 347.403 321.16 347.403 321.624C347.403 322.096 347.563 322.46 347.883 322.716C348.211 322.964 348.639 323.088 349.167 323.088ZM353.819 325.2H353.195L357.995 314.4H358.619L353.819 325.2ZM362.547 318.504C363.387 318.504 364.079 318.768 364.623 319.296C365.167 319.816 365.439 320.492 365.439 321.324C365.439 322.156 365.167 322.836 364.623 323.364C364.079 323.892 363.387 324.156 362.547 324.156C361.699 324.156 361.003 323.892 360.459 323.364C359.923 322.836 359.655 322.156 359.655 321.324C359.655 320.676 359.823 320.116 360.159 319.644L362.859 315.6H364.131L362.151 318.528C362.327 318.512 362.459 318.504 362.547 318.504ZM361.251 322.608C361.587 322.928 362.019 323.088 362.547 323.088C363.075 323.088 363.503 322.928 363.831 322.608C364.167 322.28 364.335 321.852 364.335 321.324C364.335 320.796 364.167 320.372 363.831 320.052C363.503 319.732 363.075 319.572 362.547 319.572C362.011 319.572 361.579 319.732 361.251 320.052C360.923 320.372 360.759 320.796 360.759 321.324C360.759 321.852 360.923 322.28 361.251 322.608Z" fill="white"/>
<path d="M462.708 321.36V322.404H461.688V324H460.572V322.404H456.288V321.36L459.3 315.6H460.5L457.488 321.36H460.572V318.984H461.688V321.36H462.708ZM464.281 325.2H463.657L468.457 314.4H469.081L464.281 325.2ZM469.997 315.6H475.241V316.596L472.181 324H471.017L474.053 316.656H469.997V315.6Z" fill="white"/>
<path d="M568.043 315.6H569.003V324H567.899V316.8L566.111 317.328L565.835 316.368L568.043 315.6ZM576.352 322.968C575.784 323.76 574.988 324.156 573.964 324.156C572.94 324.156 572.144 323.76 571.576 322.968C571.008 322.176 570.724 321.12 570.724 319.8C570.724 318.48 571.008 317.424 571.576 316.632C572.144 315.84 572.94 315.444 573.964 315.444C574.988 315.444 575.784 315.84 576.352 316.632C576.92 317.424 577.204 318.48 577.204 319.8C577.204 321.12 576.92 322.176 576.352 322.968ZM572.392 322.212C572.76 322.78 573.284 323.064 573.964 323.064C574.644 323.064 575.168 322.78 575.536 322.212C575.912 321.644 576.1 320.84 576.1 319.8C576.1 318.76 575.912 317.956 575.536 317.388C575.168 316.812 574.644 316.524 573.964 316.524C573.284 316.524 572.76 316.808 572.392 317.376C572.024 317.944 571.84 318.752 571.84 319.8C571.84 320.84 572.024 321.644 572.392 322.212ZM579.062 325.2H578.438L583.238 314.4H583.862L579.062 325.2ZM584.778 315.6H590.022V316.596L586.962 324H585.798L588.834 316.656H584.778V315.6Z" fill="white"/>
<path d="M682.709 315.6H683.669V324H682.565V316.8L680.777 317.328L680.501 316.368L682.709 315.6ZM688.079 318.504C688.919 318.504 689.611 318.768 690.155 319.296C690.699 319.816 690.971 320.492 690.971 321.324C690.971 322.156 690.699 322.836 690.155 323.364C689.611 323.892 688.919 324.156 688.079 324.156C687.231 324.156 686.535 323.892 685.991 323.364C685.455 322.836 685.187 322.156 685.187 321.324C685.187 320.676 685.355 320.116 685.691 319.644L688.391 315.6H689.663L687.683 318.528C687.859 318.512 687.991 318.504 688.079 318.504ZM686.783 322.608C687.119 322.928 687.551 323.088 688.079 323.088C688.607 323.088 689.035 322.928 689.363 322.608C689.699 322.28 689.867 321.852 689.867 321.324C689.867 320.796 689.699 320.372 689.363 320.052C689.035 319.732 688.607 319.572 688.079 319.572C687.543 319.572 687.111 319.732 686.783 320.052C686.455 320.372 686.291 320.796 686.291 321.324C686.291 321.852 686.455 322.28 686.783 322.608ZM692.628 325.2H692.004L696.804 314.4H697.428L692.628 325.2ZM698.344 315.6H703.588V316.596L700.528 324H699.364L702.4 316.656H698.344V315.6Z" fill="white"/>
<path d="M794.432 324V323.088L797.396 320.064C798.188 319.272 798.584 318.592 798.584 318.024C798.584 317.552 798.44 317.184 798.152 316.92C797.864 316.656 797.512 316.524 797.096 316.524C796.304 316.524 795.728 316.9 795.368 317.652L794.432 317.1C794.696 316.556 795.06 316.144 795.524 315.864C795.996 315.584 796.516 315.444 797.084 315.444C797.788 315.444 798.4 315.676 798.92 316.14C799.44 316.604 799.7 317.228 799.7 318.012C799.7 318.86 799.2 319.784 798.2 320.784L796.052 322.92H799.856V324H794.432ZM801 324V323.088L803.964 320.064C804.756 319.272 805.152 318.592 805.152 318.024C805.152 317.552 805.008 317.184 804.72 316.92C804.432 316.656 804.08 316.524 803.664 316.524C802.872 316.524 802.296 316.9 801.936 317.652L801 317.1C801.264 316.556 801.628 316.144 802.092 315.864C802.564 315.584 803.084 315.444 803.652 315.444C804.356 315.444 804.968 315.676 805.488 316.14C806.008 316.604 806.268 317.228 806.268 318.012C806.268 318.86 805.768 319.784 804.768 320.784L802.62 322.92H806.424V324H801ZM808.216 325.2H807.592L812.392 314.4H813.016L808.216 325.2ZM813.932 315.6H819.176V316.596L816.116 324H814.952L817.988 316.656H813.932V315.6Z" fill="white"/>
<line x1="117.859" y1="300.012" x2="117.75" y2="126" stroke="#909090" stroke-width="0.5" stroke-dasharray="2 2"/>
<line x1="175.433" y1="300.012" x2="175.324" y2="126" stroke="#909090" stroke-width="0.5" stroke-dasharray="2 2"/>
<line x1="233.007" y1="300.012" x2="232.898" y2="126" stroke="#909090" stroke-width="0.5" stroke-dasharray="2 2"/>
<line x1="290.582" y1="300.012" x2="290.473" y2="126" stroke="#909090" stroke-width="0.5" stroke-dasharray="2 2"/>
<line x1="348.156" y1="300.012" x2="348.047" y2="126" stroke="#909090" stroke-width="0.5" stroke-dasharray="2 2"/>
<line x1="405.73" y1="300.012" x2="405.621" y2="126" stroke="#909090" stroke-width="0.5" stroke-dasharray="2 2"/>
<line x1="463.305" y1="300.012" x2="463.196" y2="126" stroke="#909090" stroke-width="0.5" stroke-dasharray="2 2"/>
<line x1="520.879" y1="300.012" x2="520.77" y2="126" stroke="#909090" stroke-width="0.5" stroke-dasharray="2 2"/>
<line x1="578.453" y1="300.012" x2="578.344" y2="126" stroke="#909090" stroke-width="0.5" stroke-dasharray="2 2"/>
<line x1="636.027" y1="300.012" x2="635.918" y2="126" stroke="#909090" stroke-width="0.5" stroke-dasharray="2 2"/>
<line x1="693.602" y1="300.012" x2="693.493" y2="126" stroke="#909090" stroke-width="0.5" stroke-dasharray="2 2"/>
<line x1="751.176" y1="300.012" x2="751.067" y2="126" stroke="#909090" stroke-width="0.5" stroke-dasharray="2 2"/>
<line x1="808.75" y1="300.012" x2="808.641" y2="126" stroke="#909090" stroke-width="0.5" stroke-dasharray="2 2"/>
<path d="M47.5247 141.756C47.5247 142.412 47.3087 142.952 46.8767 143.376C46.4447 143.8 45.8847 144.052 45.1967 144.132V145.2H44.4407V144.144C43.7847 144.096 43.2247 143.916 42.7607 143.604C42.3047 143.292 41.9727 142.872 41.7647 142.344L42.7247 141.792C42.9967 142.536 43.5687 142.956 44.4407 143.052V140.148C44.0807 140.02 43.7887 139.904 43.5647 139.8C43.3487 139.688 43.1207 139.54 42.8807 139.356C42.6407 139.172 42.4607 138.948 42.3407 138.684C42.2287 138.412 42.1727 138.1 42.1727 137.748C42.1727 137.1 42.3887 136.572 42.8207 136.164C43.2527 135.756 43.7927 135.52 44.4407 135.456V134.4H45.1967V135.468C45.6767 135.532 46.1047 135.7 46.4807 135.972C46.8567 136.244 47.1487 136.612 47.3567 137.076L46.4207 137.604C46.1887 137.02 45.7807 136.672 45.1967 136.56V139.32C45.5647 139.456 45.8567 139.576 46.0727 139.68C46.2887 139.784 46.5247 139.932 46.7807 140.124C47.0367 140.308 47.2247 140.536 47.3447 140.808C47.4647 141.08 47.5247 141.396 47.5247 141.756ZM43.2767 137.748C43.2767 138.052 43.3687 138.3 43.5527 138.492C43.7367 138.684 44.0327 138.864 44.4407 139.032V136.548C44.0887 136.596 43.8047 136.728 43.5887 136.944C43.3807 137.152 43.2767 137.42 43.2767 137.748ZM45.1967 143.028C45.5807 142.972 45.8767 142.832 46.0847 142.608C46.3007 142.376 46.4087 142.096 46.4087 141.768C46.4087 141.44 46.3087 141.18 46.1087 140.988C45.9167 140.788 45.6127 140.6 45.1967 140.424V143.028ZM51.9743 139.044C52.6143 139.164 53.1383 139.44 53.5463 139.872C53.9543 140.304 54.1583 140.852 54.1583 141.516C54.1583 142.332 53.8783 142.976 53.3183 143.448C52.7583 143.92 52.0783 144.156 51.2783 144.156C50.6383 144.156 50.0703 144.012 49.5743 143.724C49.0783 143.428 48.7263 143.004 48.5183 142.452L49.4543 141.9C49.7023 142.676 50.3103 143.064 51.2783 143.064C51.7983 143.064 52.2223 142.928 52.5503 142.656C52.8783 142.384 53.0423 142.004 53.0423 141.516C53.0423 141.028 52.8783 140.648 52.5503 140.376C52.2223 140.096 51.7983 139.956 51.2783 139.956H50.9903L50.5463 139.272L52.4903 136.644H48.7583V135.6H53.7983V136.584L51.9743 139.044ZM61.0122 142.968C60.4442 143.76 59.6482 144.156 58.6242 144.156C57.6002 144.156 56.8042 143.76 56.2362 142.968C55.6682 142.176 55.3842 141.12 55.3842 139.8C55.3842 138.48 55.6682 137.424 56.2362 136.632C56.8042 135.84 57.6002 135.444 58.6242 135.444C59.6482 135.444 60.4442 135.84 61.0122 136.632C61.5802 137.424 61.8642 138.48 61.8642 139.8C61.8642 141.12 61.5802 142.176 61.0122 142.968ZM57.0522 142.212C57.4202 142.78 57.9442 143.064 58.6242 143.064C59.3042 143.064 59.8282 142.78 60.1962 142.212C60.5722 141.644 60.7602 140.84 60.7602 139.8C60.7602 138.76 60.5722 137.956 60.1962 137.388C59.8282 136.812 59.3042 136.524 58.6242 136.524C57.9442 136.524 57.4202 136.808 57.0522 137.376C56.6842 137.944 56.5002 138.752 56.5002 139.8C56.5002 140.84 56.6842 141.644 57.0522 142.212ZM68.8108 142.968C68.2428 143.76 67.4468 144.156 66.4228 144.156C65.3988 144.156 64.6028 143.76 64.0348 142.968C63.4668 142.176 63.1828 141.12 63.1828 139.8C63.1828 138.48 63.4668 137.424 64.0348 136.632C64.6028 135.84 65.3988 135.444 66.4228 135.444C67.4468 135.444 68.2428 135.84 68.8108 136.632C69.3788 137.424 69.6628 138.48 69.6628 139.8C69.6628 141.12 69.3788 142.176 68.8108 142.968ZM64.8508 142.212C65.2188 142.78 65.7428 143.064 66.4228 143.064C67.1028 143.064 67.6268 142.78 67.9948 142.212C68.3708 141.644 68.5588 140.84 68.5588 139.8C68.5588 138.76 68.3708 137.956 67.9948 137.388C67.6268 136.812 67.1028 136.524 66.4228 136.524C65.7428 136.524 65.2188 136.808 64.8508 137.376C64.4828 137.944 64.2988 138.752 64.2988 139.8C64.2988 140.84 64.4828 141.644 64.8508 142.212ZM76.6094 142.968C76.0414 143.76 75.2454 144.156 74.2214 144.156C73.1974 144.156 72.4014 143.76 71.8334 142.968C71.2654 142.176 70.9814 141.12 70.9814 139.8C70.9814 138.48 71.2654 137.424 71.8334 136.632C72.4014 135.84 73.1974 135.444 74.2214 135.444C75.2454 135.444 76.0414 135.84 76.6094 136.632C77.1774 137.424 77.4614 138.48 77.4614 139.8C77.4614 141.12 77.1774 142.176 76.6094 142.968ZM72.6494 142.212C73.0174 142.78 73.5414 143.064 74.2214 143.064C74.9014 143.064 75.4254 142.78 75.7934 142.212C76.1694 141.644 76.3574 140.84 76.3574 139.8C76.3574 138.76 76.1694 137.956 75.7934 137.388C75.4254 136.812 74.9014 136.524 74.2214 136.524C73.5414 136.524 73.0174 136.808 72.6494 137.376C72.2814 137.944 72.0974 138.752 72.0974 139.8C72.0974 140.84 72.2814 141.644 72.6494 142.212Z" fill="white"/>
<path d="M47.7356 194.756C47.7356 195.412 47.5196 195.952 47.0876 196.376C46.6556 196.8 46.0956 197.052 45.4076 197.132V198.2H44.6516V197.144C43.9956 197.096 43.4356 196.916 42.9716 196.604C42.5156 196.292 42.1836 195.872 41.9756 195.344L42.9356 194.792C43.2076 195.536 43.7796 195.956 44.6516 196.052V193.148C44.2916 193.02 43.9996 192.904 43.7756 192.8C43.5596 192.688 43.3316 192.54 43.0916 192.356C42.8516 192.172 42.6716 191.948 42.5516 191.684C42.4396 191.412 42.3836 191.1 42.3836 190.748C42.3836 190.1 42.5996 189.572 43.0316 189.164C43.4636 188.756 44.0036 188.52 44.6516 188.456V187.4H45.4076V188.468C45.8876 188.532 46.3156 188.7 46.6916 188.972C47.0676 189.244 47.3596 189.612 47.5676 190.076L46.6316 190.604C46.3996 190.02 45.9916 189.672 45.4076 189.56V192.32C45.7756 192.456 46.0676 192.576 46.2836 192.68C46.4996 192.784 46.7356 192.932 46.9916 193.124C47.2476 193.308 47.4356 193.536 47.5556 193.808C47.6756 194.08 47.7356 194.396 47.7356 194.756ZM43.4876 190.748C43.4876 191.052 43.5796 191.3 43.7636 191.492C43.9476 191.684 44.2436 191.864 44.6516 192.032V189.548C44.2996 189.596 44.0156 189.728 43.7996 189.944C43.5916 190.152 43.4876 190.42 43.4876 190.748ZM45.4076 196.028C45.7916 195.972 46.0876 195.832 46.2956 195.608C46.5116 195.376 46.6196 195.096 46.6196 194.768C46.6196 194.44 46.5196 194.18 46.3196 193.988C46.1276 193.788 45.8236 193.6 45.4076 193.424V196.028ZM48.8253 197V196.088L51.7893 193.064C52.5813 192.272 52.9773 191.592 52.9773 191.024C52.9773 190.552 52.8333 190.184 52.5453 189.92C52.2573 189.656 51.9053 189.524 51.4893 189.524C50.6973 189.524 50.1213 189.9 49.7613 190.652L48.8253 190.1C49.0893 189.556 49.4533 189.144 49.9173 188.864C50.3893 188.584 50.9093 188.444 51.4773 188.444C52.1813 188.444 52.7933 188.676 53.3133 189.14C53.8333 189.604 54.0933 190.228 54.0933 191.012C54.0933 191.86 53.5933 192.784 52.5933 193.784L50.4453 195.92H54.2493V197H48.8253ZM61.0122 195.968C60.4442 196.76 59.6482 197.156 58.6242 197.156C57.6002 197.156 56.8042 196.76 56.2362 195.968C55.6682 195.176 55.3842 194.12 55.3842 192.8C55.3842 191.48 55.6682 190.424 56.2362 189.632C56.8042 188.84 57.6002 188.444 58.6242 188.444C59.6482 188.444 60.4442 188.84 61.0122 189.632C61.5802 190.424 61.8642 191.48 61.8642 192.8C61.8642 194.12 61.5802 195.176 61.0122 195.968ZM57.0522 195.212C57.4202 195.78 57.9442 196.064 58.6242 196.064C59.3042 196.064 59.8282 195.78 60.1962 195.212C60.5722 194.644 60.7602 193.84 60.7602 192.8C60.7602 191.76 60.5722 190.956 60.1962 190.388C59.8282 189.812 59.3042 189.524 58.6242 189.524C57.9442 189.524 57.4202 189.808 57.0522 190.376C56.6842 190.944 56.5002 191.752 56.5002 192.8C56.5002 193.84 56.6842 194.644 57.0522 195.212ZM68.8108 195.968C68.2428 196.76 67.4468 197.156 66.4228 197.156C65.3988 197.156 64.6028 196.76 64.0348 195.968C63.4668 195.176 63.1828 194.12 63.1828 192.8C63.1828 191.48 63.4668 190.424 64.0348 189.632C64.6028 188.84 65.3988 188.444 66.4228 188.444C67.4468 188.444 68.2428 188.84 68.8108 189.632C69.3788 190.424 69.6628 191.48 69.6628 192.8C69.6628 194.12 69.3788 195.176 68.8108 195.968ZM64.8508 195.212C65.2188 195.78 65.7428 196.064 66.4228 196.064C67.1028 196.064 67.6268 195.78 67.9948 195.212C68.3708 194.644 68.5588 193.84 68.5588 192.8C68.5588 191.76 68.3708 190.956 67.9948 190.388C67.6268 189.812 67.1028 189.524 66.4228 189.524C65.7428 189.524 65.2188 189.808 64.8508 190.376C64.4828 190.944 64.2988 191.752 64.2988 192.8C64.2988 193.84 64.4828 194.644 64.8508 195.212ZM76.6094 195.968C76.0414 196.76 75.2454 197.156 74.2214 197.156C73.1974 197.156 72.4014 196.76 71.8334 195.968C71.2654 195.176 70.9814 194.12 70.9814 192.8C70.9814 191.48 71.2654 190.424 71.8334 189.632C72.4014 188.84 73.1974 188.444 74.2214 188.444C75.2454 188.444 76.0414 188.84 76.6094 189.632C77.1774 190.424 77.4614 191.48 77.4614 192.8C77.4614 194.12 77.1774 195.176 76.6094 195.968ZM72.6494 195.212C73.0174 195.78 73.5414 196.064 74.2214 196.064C74.9014 196.064 75.4254 195.78 75.7934 195.212C76.1694 194.644 76.3574 193.84 76.3574 192.8C76.3574 191.76 76.1694 190.956 75.7934 190.388C75.4254 189.812 74.9014 189.524 74.2214 189.524C73.5414 189.524 73.0174 189.808 72.6494 190.376C72.2814 190.944 72.0974 191.752 72.0974 192.8C72.0974 193.84 72.2814 194.644 72.6494 195.212Z" fill="white"/>
<path d="M49.6692 247.756C49.6692 248.412 49.4532 248.952 49.0212 249.376C48.5892 249.8 48.0292 250.052 47.3412 250.132V251.2H46.5852V250.144C45.9292 250.096 45.3692 249.916 44.9052 249.604C44.4492 249.292 44.1172 248.872 43.9092 248.344L44.8692 247.792C45.1412 248.536 45.7132 248.956 46.5852 249.052V246.148C46.2252 246.02 45.9332 245.904 45.7092 245.8C45.4932 245.688 45.2652 245.54 45.0252 245.356C44.7852 245.172 44.6052 244.948 44.4852 244.684C44.3732 244.412 44.3172 244.1 44.3172 243.748C44.3172 243.1 44.5332 242.572 44.9652 242.164C45.3972 241.756 45.9372 241.52 46.5852 241.456V240.4H47.3412V241.468C47.8212 241.532 48.2492 241.7 48.6252 241.972C49.0012 242.244 49.2932 242.612 49.5012 243.076L48.5652 243.604C48.3332 243.02 47.9252 242.672 47.3412 242.56V245.32C47.7092 245.456 48.0012 245.576 48.2172 245.68C48.4332 245.784 48.6692 245.932 48.9252 246.124C49.1812 246.308 49.3692 246.536 49.4892 246.808C49.6092 247.08 49.6692 247.396 49.6692 247.756ZM45.4212 243.748C45.4212 244.052 45.5132 244.3 45.6972 244.492C45.8812 244.684 46.1772 244.864 46.5852 245.032V242.548C46.2332 242.596 45.9492 242.728 45.7332 242.944C45.5252 243.152 45.4212 243.42 45.4212 243.748ZM47.3412 249.028C47.7252 248.972 48.0212 248.832 48.2292 248.608C48.4452 248.376 48.5532 248.096 48.5532 247.768C48.5532 247.44 48.4532 247.18 48.2532 246.988C48.0612 246.788 47.7572 246.6 47.3412 246.424V249.028ZM52.7029 241.6H53.6629V250H52.5589V242.8L50.7709 243.328L50.4949 242.368L52.7029 241.6ZM61.0122 248.968C60.4442 249.76 59.6482 250.156 58.6242 250.156C57.6002 250.156 56.8042 249.76 56.2362 248.968C55.6682 248.176 55.3842 247.12 55.3842 245.8C55.3842 244.48 55.6682 243.424 56.2362 242.632C56.8042 241.84 57.6002 241.444 58.6242 241.444C59.6482 241.444 60.4442 241.84 61.0122 242.632C61.5802 243.424 61.8642 244.48 61.8642 245.8C61.8642 247.12 61.5802 248.176 61.0122 248.968ZM57.0522 248.212C57.4202 248.78 57.9442 249.064 58.6242 249.064C59.3042 249.064 59.8282 248.78 60.1962 248.212C60.5722 247.644 60.7602 246.84 60.7602 245.8C60.7602 244.76 60.5722 243.956 60.1962 243.388C59.8282 242.812 59.3042 242.524 58.6242 242.524C57.9442 242.524 57.4202 242.808 57.0522 243.376C56.6842 243.944 56.5002 244.752 56.5002 245.8C56.5002 246.84 56.6842 247.644 57.0522 248.212ZM68.8108 248.968C68.2428 249.76 67.4468 250.156 66.4228 250.156C65.3988 250.156 64.6028 249.76 64.0348 248.968C63.4668 248.176 63.1828 247.12 63.1828 245.8C63.1828 244.48 63.4668 243.424 64.0348 242.632C64.6028 241.84 65.3988 241.444 66.4228 241.444C67.4468 241.444 68.2428 241.84 68.8108 242.632C69.3788 243.424 69.6628 244.48 69.6628 245.8C69.6628 247.12 69.3788 248.176 68.8108 248.968ZM64.8508 248.212C65.2188 248.78 65.7428 249.064 66.4228 249.064C67.1028 249.064 67.6268 248.78 67.9948 248.212C68.3708 247.644 68.5588 246.84 68.5588 245.8C68.5588 244.76 68.3708 243.956 67.9948 243.388C67.6268 242.812 67.1028 242.524 66.4228 242.524C65.7428 242.524 65.2188 242.808 64.8508 243.376C64.4828 243.944 64.2988 244.752 64.2988 245.8C64.2988 246.84 64.4828 247.644 64.8508 248.212ZM76.6094 248.968C76.0414 249.76 75.2454 250.156 74.2214 250.156C73.1974 250.156 72.4014 249.76 71.8334 248.968C71.2654 248.176 70.9814 247.12 70.9814 245.8C70.9814 244.48 71.2654 243.424 71.8334 242.632C72.4014 241.84 73.1974 241.444 74.2214 241.444C75.2454 241.444 76.0414 241.84 76.6094 242.632C77.1774 243.424 77.4614 244.48 77.4614 245.8C77.4614 247.12 77.1774 248.176 76.6094 248.968ZM72.6494 248.212C73.0174 248.78 73.5414 249.064 74.2214 249.064C74.9014 249.064 75.4254 248.78 75.7934 248.212C76.1694 247.644 76.3574 246.84 76.3574 245.8C76.3574 244.76 76.1694 243.956 75.7934 243.388C75.4254 242.812 74.9014 242.524 74.2214 242.524C73.5414 242.524 73.0174 242.808 72.6494 243.376C72.2814 243.944 72.0974 244.752 72.0974 245.8C72.0974 246.84 72.2814 247.644 72.6494 248.212Z" fill="white"/>
<path d="M69.7838 300.756C69.7838 301.412 69.5678 301.952 69.1358 302.376C68.7038 302.8 68.1438 303.052 67.4558 303.132V304.2H66.6998V303.144C66.0438 303.096 65.4838 302.916 65.0198 302.604C64.5638 302.292 64.2318 301.872 64.0238 301.344L64.9838 300.792C65.2558 301.536 65.8278 301.956 66.6998 302.052V299.148C66.3398 299.02 66.0478 298.904 65.8238 298.8C65.6078 298.688 65.3798 298.54 65.1398 298.356C64.8998 298.172 64.7198 297.948 64.5998 297.684C64.4878 297.412 64.4318 297.1 64.4318 296.748C64.4318 296.1 64.6478 295.572 65.0798 295.164C65.5118 294.756 66.0518 294.52 66.6998 294.456V293.4H67.4558V294.468C67.9358 294.532 68.3638 294.7 68.7398 294.972C69.1158 295.244 69.4078 295.612 69.6158 296.076L68.6798 296.604C68.4478 296.02 68.0398 295.672 67.4558 295.56V298.32C67.8238 298.456 68.1158 298.576 68.3318 298.68C68.5478 298.784 68.7838 298.932 69.0398 299.124C69.2958 299.308 69.4838 299.536 69.6038 299.808C69.7238 300.08 69.7838 300.396 69.7838 300.756ZM65.5358 296.748C65.5358 297.052 65.6278 297.3 65.8118 297.492C65.9958 297.684 66.2918 297.864 66.6998 298.032V295.548C66.3478 295.596 66.0638 295.728 65.8478 295.944C65.6398 296.152 65.5358 296.42 65.5358 296.748ZM67.4558 302.028C67.8398 301.972 68.1358 301.832 68.3438 301.608C68.5598 301.376 68.6678 301.096 68.6678 300.768C68.6678 300.44 68.5678 300.18 68.3678 299.988C68.1758 299.788 67.8718 299.6 67.4558 299.424V302.028ZM76.6094 301.968C76.0414 302.76 75.2454 303.156 74.2214 303.156C73.1974 303.156 72.4014 302.76 71.8334 301.968C71.2654 301.176 70.9814 300.12 70.9814 298.8C70.9814 297.48 71.2654 296.424 71.8334 295.632C72.4014 294.84 73.1974 294.444 74.2214 294.444C75.2454 294.444 76.0414 294.84 76.6094 295.632C77.1774 296.424 77.4614 297.48 77.4614 298.8C77.4614 300.12 77.1774 301.176 76.6094 301.968ZM72.6494 301.212C73.0174 301.78 73.5414 302.064 74.2214 302.064C74.9014 302.064 75.4254 301.78 75.7934 301.212C76.1694 300.644 76.3574 299.84 76.3574 298.8C76.3574 297.76 76.1694 296.956 75.7934 296.388C75.4254 295.812 74.9014 295.524 74.2214 295.524C73.5414 295.524 73.0174 295.808 72.6494 296.376C72.2814 296.944 72.0974 297.752 72.0974 298.8C72.0974 299.84 72.2814 300.644 72.6494 301.212Z" fill="white"/>
<path d="M119 256.516C121.805 255.598 128.377 253.853 132.224 254.22C137.032 254.679 141.239 256.975 144.845 258.353C148.452 259.73 153.26 258.812 158.369 256.516C163.478 254.22 168.887 254.68 175.499 256.516C182.11 258.353 186.318 254.679 188.121 253.149C189.924 251.618 198.928 246.568 206.898 254.22C214.867 261.873 222.08 256.975 224.484 255.598C226.888 254.22 234.401 254.679 238.007 255.598C241.614 256.516 248.225 257.435 253.034 253.149C257.842 248.863 267.459 249.322 271.966 248.863C276.474 248.404 280.381 248.557 284.288 244.272C288.195 239.986 293.304 239.374 300.216 241.823C307.128 244.272 315.242 240.905 317.646 236.772C320.05 232.64 326.662 232.027 333.273 229.732C339.884 227.436 341.988 226.517 345.895 219.783C349.802 213.049 358.517 207.998 365.429 218.865C372.341 229.732 374.238 235.668 378.14 236.772C388.959 239.833 397.264 236.772 406.901 229.732C412.741 225.465 413.813 215.038 423.43 215.038C433.046 215.038 435.15 215.344 440.56 206.314C445.969 197.284 445.969 197.284 455.886 196.825C465.803 196.366 464 196.06 467.306 184.121C470.612 172.183 470.011 163 478.726 163C487.441 163 488.042 165.296 488.643 171.112C489.244 176.928 492.55 185.346 500.063 184.121C507.576 182.897 515.089 182.897 517.794 188.713C520.498 194.529 523.203 200.039 535.525 197.743C547.846 195.447 546.343 201.264 550.851 204.172C555.359 207.08 558.965 208.763 566.178 207.539C573.39 206.314 570.385 205.396 580.002 207.539C589.619 209.681 592.924 210.906 597.733 215.038C602.541 219.171 604.849 226.877 613.864 225.5C622.88 224.123 623.096 219.037 626.743 217.5C635.821 213.674 635.825 196.916 639.232 194.425C643.915 191 643.713 180.65 650.625 183.558C657.537 186.466 656.936 185.548 659.941 189.221C662.946 192.894 665.651 194.884 674.666 194.425C683.682 193.966 684.584 194.425 687.589 197.486C690.594 200.547 699.91 207.587 706.221 202.537C712.532 197.486 719.444 191.976 722.45 186.007C725.455 180.038 728.747 171.62 736.417 175.446C744.087 179.272 745.289 184.935 752.502 183.558C759.714 182.18 762.72 180.956 768.73 185.088C774.74 189.221 775.943 191.517 784.958 189.221C793.974 186.925 795.476 188.303 800.886 191.364C806.295 194.425 805.694 194.425 809 194.425" stroke="#DE50EC" stroke-width="4" stroke-linecap="round"/>
<rect width="846" height="344" rx="16" fill="url(#paint1_linear_1639_1384)"/>
<defs>
<linearGradient id="paint0_linear_1639_1384" x1="847" y1="-1.76969e-05" x2="718.776" y2="301.198" gradientUnits="userSpaceOnUse">
<stop stop-color="white" stop-opacity="0.4"/>
<stop offset="1" stop-color="white" stop-opacity="0"/>
</linearGradient>
<linearGradient id="paint1_linear_1639_1384" x1="423" y1="0" x2="423" y2="344" gradientUnits="userSpaceOnUse">
<stop stop-color="#0A0A0A" stop-opacity="0"/>
<stop offset="1" stop-color="#0A0A0A"/>
</linearGradient>
</defs>
</svg>
