<svg width="1280" height="344" viewBox="0 0 1280 344" fill="none" xmlns="http://www.w3.org/2000/svg">
<rect x="0.5" y="0.5" width="1279" height="335" rx="15.5" fill="#1F1F1F"/>
<rect x="0.5" y="0.5" width="1279" height="335" rx="15.5" stroke="url(#paint0_linear_1639_1594)"/>
<path d="M41.46 26.8H45.6V52H41.46V41.092H30.66V52H26.52V26.8H30.66V37.132H41.46V26.8ZM58.8812 52.468C56.2412 52.468 53.9972 51.556 52.1492 49.732C50.3012 47.908 49.3772 45.664 49.3772 43C49.3772 40.336 50.3012 38.092 52.1492 36.268C53.9972 34.444 56.2412 33.532 58.8812 33.532C61.5452 33.532 63.7892 34.444 65.6132 36.268C67.4612 38.092 68.3852 40.336 68.3852 43C68.3852 45.664 67.4612 47.908 65.6132 49.732C63.7892 51.556 61.5452 52.468 58.8812 52.468ZM54.8852 47.068C55.9652 48.148 57.2972 48.688 58.8812 48.688C60.4652 48.688 61.7972 48.148 62.8772 47.068C63.9572 45.988 64.4972 44.632 64.4972 43C64.4972 41.368 63.9572 40.012 62.8772 38.932C61.7972 37.852 60.4652 37.312 58.8812 37.312C57.2972 37.312 55.9652 37.852 54.8852 38.932C53.8052 40.012 53.2652 41.368 53.2652 43C53.2652 44.632 53.8052 45.988 54.8852 47.068ZM71.9008 52V25.72H75.7888V52H71.9008ZM94.5592 26.8H98.4472V52H94.5592V49.408C93.0952 51.448 90.9952 52.468 88.2592 52.468C85.7872 52.468 83.6752 51.556 81.9232 49.732C80.1712 47.884 79.2952 45.64 79.2952 43C79.2952 40.336 80.1712 38.092 81.9232 36.268C83.6752 34.444 85.7872 33.532 88.2592 33.532C90.9952 33.532 93.0952 34.54 94.5592 36.556V26.8ZM84.8032 47.14C85.8832 48.22 87.2392 48.76 88.8712 48.76C90.5032 48.76 91.8592 48.22 92.9392 47.14C94.0192 46.036 94.5592 44.656 94.5592 43C94.5592 41.344 94.0192 39.976 92.9392 38.896C91.8592 37.792 90.5032 37.24 88.8712 37.24C87.2392 37.24 85.8832 37.792 84.8032 38.896C83.7232 39.976 83.1832 41.344 83.1832 43C83.1832 44.656 83.7232 46.036 84.8032 47.14ZM106.651 30.58C106.171 31.06 105.595 31.3 104.923 31.3C104.251 31.3 103.663 31.06 103.159 30.58C102.679 30.076 102.439 29.488 102.439 28.816C102.439 28.144 102.679 27.568 103.159 27.088C103.639 26.584 104.227 26.332 104.923 26.332C105.619 26.332 106.207 26.584 106.687 27.088C107.167 27.568 107.407 28.144 107.407 28.816C107.407 29.488 107.155 30.076 106.651 30.58ZM102.979 52V34H106.867V52H102.979ZM120.849 33.532C122.913 33.532 124.581 34.192 125.853 35.512C127.125 36.832 127.761 38.644 127.761 40.948V52H123.873V41.344C123.873 40 123.513 38.968 122.793 38.248C122.073 37.528 121.089 37.168 119.841 37.168C118.473 37.168 117.369 37.6 116.529 38.464C115.689 39.304 115.269 40.6 115.269 42.352V52H111.381V34H115.269V36.304C116.445 34.456 118.305 33.532 120.849 33.532ZM146.276 34H150.092V51.172C150.092 53.908 149.192 56.008 147.392 57.472C145.592 58.936 143.408 59.668 140.84 59.668C136.688 59.668 133.844 58.216 132.308 55.312L135.656 53.368C136.592 55.216 138.344 56.14 140.912 56.14C142.592 56.14 143.9 55.696 144.836 54.808C145.796 53.944 146.276 52.732 146.276 51.172V48.976C144.812 51.064 142.724 52.108 140.012 52.108C137.468 52.108 135.32 51.208 133.568 49.408C131.816 47.584 130.94 45.388 130.94 42.82C130.94 40.252 131.816 38.068 133.568 36.268C135.32 34.444 137.468 33.532 140.012 33.532C142.724 33.532 144.812 34.576 146.276 36.664V34ZM136.448 46.852C137.552 47.932 138.92 48.472 140.552 48.472C142.184 48.472 143.54 47.932 144.62 46.852C145.724 45.772 146.276 44.428 146.276 42.82C146.276 41.212 145.724 39.868 144.62 38.788C143.54 37.708 142.184 37.168 140.552 37.168C138.92 37.168 137.552 37.708 136.448 38.788C135.368 39.868 134.828 41.212 134.828 42.82C134.828 44.428 135.368 45.772 136.448 46.852ZM158.01 38.968C158.01 39.568 158.334 40.048 158.982 40.408C159.654 40.744 160.458 41.044 161.394 41.308C162.354 41.548 163.314 41.836 164.274 42.172C165.234 42.508 166.038 43.084 166.686 43.9C167.358 44.692 167.694 45.7 167.694 46.924C167.694 48.652 167.022 50.008 165.678 50.992C164.358 51.976 162.69 52.468 160.674 52.468C158.898 52.468 157.374 52.096 156.102 51.352C154.83 50.608 153.906 49.576 153.33 48.256L156.678 46.312C157.302 48.04 158.634 48.904 160.674 48.904C162.714 48.904 163.734 48.232 163.734 46.888C163.734 46.312 163.398 45.844 162.726 45.484C162.078 45.124 161.274 44.824 160.314 44.584C159.378 44.32 158.43 44.02 157.47 43.684C156.51 43.348 155.694 42.796 155.022 42.028C154.374 41.236 154.05 40.24 154.05 39.04C154.05 37.384 154.674 36.052 155.922 35.044C157.194 34.036 158.766 33.532 160.638 33.532C162.126 33.532 163.446 33.868 164.598 34.54C165.774 35.188 166.674 36.1 167.298 37.276L164.022 39.112C163.398 37.744 162.27 37.06 160.638 37.06C159.894 37.06 159.27 37.228 158.766 37.564C158.262 37.876 158.01 38.344 158.01 38.968Z" fill="white"/>
<rect x="24.5" y="100.5" width="1231" height="45" rx="7.5" stroke="white" stroke-opacity="0.3"/>
<path d="M105.747 127L104.949 124.802H100.539L99.741 127H98.355L102.009 117.2H103.479L107.133 127H105.747ZM100.987 123.584H104.501L102.737 118.754L100.987 123.584ZM109.145 121.89C109.145 122.161 109.28 122.38 109.551 122.548C109.821 122.707 110.148 122.837 110.531 122.94C110.913 123.033 111.296 123.145 111.679 123.276C112.061 123.397 112.388 123.612 112.659 123.92C112.929 124.219 113.065 124.606 113.065 125.082C113.065 125.717 112.817 126.225 112.323 126.608C111.837 126.991 111.212 127.182 110.447 127.182C109.765 127.182 109.182 127.033 108.697 126.734C108.211 126.435 107.866 126.039 107.661 125.544L108.711 124.942C108.823 125.278 109.033 125.544 109.341 125.74C109.649 125.936 110.017 126.034 110.447 126.034C110.848 126.034 111.179 125.959 111.441 125.81C111.702 125.651 111.833 125.409 111.833 125.082C111.833 124.811 111.697 124.597 111.427 124.438C111.156 124.27 110.829 124.139 110.447 124.046C110.064 123.943 109.681 123.827 109.299 123.696C108.916 123.565 108.589 123.351 108.319 123.052C108.048 122.753 107.913 122.371 107.913 121.904C107.913 121.297 108.146 120.798 108.613 120.406C109.089 120.014 109.681 119.818 110.391 119.818C110.96 119.818 111.464 119.949 111.903 120.21C112.351 120.462 112.687 120.817 112.911 121.274L111.889 121.848C111.637 121.251 111.137 120.952 110.391 120.952C110.045 120.952 109.751 121.036 109.509 121.204C109.266 121.363 109.145 121.591 109.145 121.89ZM115.119 121.89C115.119 122.161 115.255 122.38 115.525 122.548C115.796 122.707 116.123 122.837 116.505 122.94C116.888 123.033 117.271 123.145 117.653 123.276C118.036 123.397 118.363 123.612 118.633 123.92C118.904 124.219 119.039 124.606 119.039 125.082C119.039 125.717 118.792 126.225 118.297 126.608C117.812 126.991 117.187 127.182 116.421 127.182C115.74 127.182 115.157 127.033 114.671 126.734C114.186 126.435 113.841 126.039 113.635 125.544L114.685 124.942C114.797 125.278 115.007 125.544 115.315 125.74C115.623 125.936 115.992 126.034 116.421 126.034C116.823 126.034 117.154 125.959 117.415 125.81C117.677 125.651 117.807 125.409 117.807 125.082C117.807 124.811 117.672 124.597 117.401 124.438C117.131 124.27 116.804 124.139 116.421 124.046C116.039 123.943 115.656 123.827 115.273 123.696C114.891 123.565 114.564 123.351 114.293 123.052C114.023 122.753 113.887 122.371 113.887 121.904C113.887 121.297 114.121 120.798 114.587 120.406C115.063 120.014 115.656 119.818 116.365 119.818C116.935 119.818 117.439 119.949 117.877 120.21C118.325 120.462 118.661 120.817 118.885 121.274L117.863 121.848C117.611 121.251 117.112 120.952 116.365 120.952C116.02 120.952 115.726 121.036 115.483 121.204C115.241 121.363 115.119 121.591 115.119 121.89ZM121.144 124.06C121.265 124.685 121.55 125.171 121.998 125.516C122.455 125.861 123.015 126.034 123.678 126.034C124.602 126.034 125.274 125.693 125.694 125.012L126.73 125.6C126.049 126.655 125.022 127.182 123.65 127.182C122.539 127.182 121.634 126.837 120.934 126.146C120.243 125.446 119.898 124.564 119.898 123.5C119.898 122.445 120.239 121.568 120.92 120.868C121.601 120.168 122.483 119.818 123.566 119.818C124.593 119.818 125.428 120.182 126.072 120.91C126.725 121.629 127.052 122.497 127.052 123.514C127.052 123.691 127.038 123.873 127.01 124.06H121.144ZM123.566 120.966C122.913 120.966 122.371 121.153 121.942 121.526C121.513 121.89 121.247 122.38 121.144 122.996H125.82C125.717 122.333 125.456 121.829 125.036 121.484C124.616 121.139 124.126 120.966 123.566 120.966ZM132.055 121.176H130.193V124.97C130.193 125.315 130.258 125.563 130.389 125.712C130.529 125.852 130.739 125.927 131.019 125.936C131.299 125.936 131.644 125.927 132.055 125.908V127C130.991 127.14 130.212 127.056 129.717 126.748C129.222 126.431 128.975 125.838 128.975 124.97V121.176H127.589V120H128.975V118.404L130.193 118.04V120H132.055V121.176Z" fill="white"/>
<path d="M272.503 122.1C272.503 123.444 272.041 124.606 271.117 125.586L272.195 126.664L271.299 127.476L270.193 126.356C269.343 126.907 268.419 127.182 267.421 127.182C266.021 127.182 264.826 126.687 263.837 125.698C262.847 124.709 262.353 123.509 262.353 122.1C262.353 120.691 262.847 119.491 263.837 118.502C264.826 117.513 266.021 117.018 267.421 117.018C268.821 117.018 270.015 117.513 271.005 118.502C272.003 119.491 272.503 120.691 272.503 122.1ZM267.421 125.908C268.093 125.908 268.709 125.749 269.269 125.432L267.309 123.458L268.205 122.66L270.221 124.676C270.874 123.967 271.201 123.108 271.201 122.1C271.201 121.027 270.832 120.121 270.095 119.384C269.367 118.647 268.475 118.278 267.421 118.278C266.366 118.278 265.47 118.647 264.733 119.384C264.005 120.121 263.641 121.027 263.641 122.1C263.641 123.164 264.005 124.065 264.733 124.802C265.47 125.539 266.366 125.908 267.421 125.908ZM278.909 120H280.127V127H278.909V125.992C278.414 126.785 277.658 127.182 276.641 127.182C275.819 127.182 275.161 126.925 274.667 126.412C274.172 125.889 273.925 125.185 273.925 124.298V120H275.143V124.228C275.143 124.797 275.297 125.241 275.605 125.558C275.913 125.866 276.337 126.02 276.879 126.02C277.485 126.02 277.975 125.833 278.349 125.46C278.722 125.077 278.909 124.494 278.909 123.71V120ZM287.777 120H288.995V127H287.777V125.796C287.17 126.72 286.288 127.182 285.131 127.182C284.151 127.182 283.316 126.827 282.625 126.118C281.934 125.399 281.589 124.527 281.589 123.5C281.589 122.473 281.934 121.605 282.625 120.896C283.316 120.177 284.151 119.818 285.131 119.818C286.288 119.818 287.17 120.28 287.777 121.204V120ZM285.285 126.006C285.994 126.006 286.587 125.768 287.063 125.292C287.539 124.807 287.777 124.209 287.777 123.5C287.777 122.791 287.539 122.198 287.063 121.722C286.587 121.237 285.994 120.994 285.285 120.994C284.585 120.994 283.997 121.237 283.521 121.722C283.045 122.198 282.807 122.791 282.807 123.5C282.807 124.209 283.045 124.807 283.521 125.292C283.997 125.768 284.585 126.006 285.285 126.006ZM294.326 119.818C295.148 119.818 295.806 120.079 296.3 120.602C296.795 121.115 297.042 121.815 297.042 122.702V127H295.824V122.772C295.824 122.203 295.67 121.764 295.362 121.456C295.054 121.139 294.63 120.98 294.088 120.98C293.482 120.98 292.992 121.171 292.618 121.554C292.245 121.927 292.058 122.506 292.058 123.29V127H290.84V120H292.058V121.008C292.553 120.215 293.309 119.818 294.326 119.818ZM302.551 121.176H300.689V124.97C300.689 125.315 300.754 125.563 300.885 125.712C301.025 125.852 301.235 125.927 301.515 125.936C301.795 125.936 302.14 125.927 302.551 125.908V127C301.487 127.14 300.707 127.056 300.213 126.748C299.718 126.431 299.471 125.838 299.471 124.97V121.176H298.085V120H299.471V118.404L300.689 118.04V120H302.551V121.176ZM304.609 118.726C304.375 118.726 304.179 118.647 304.021 118.488C303.862 118.329 303.783 118.138 303.783 117.914C303.783 117.69 303.862 117.499 304.021 117.34C304.179 117.172 304.375 117.088 304.609 117.088C304.833 117.088 305.024 117.172 305.183 117.34C305.341 117.499 305.421 117.69 305.421 117.914C305.421 118.138 305.341 118.329 305.183 118.488C305.024 118.647 304.833 118.726 304.609 118.726ZM303.993 127V120H305.211V127H303.993ZM310.877 121.176H309.015V124.97C309.015 125.315 309.08 125.563 309.211 125.712C309.351 125.852 309.561 125.927 309.841 125.936C310.121 125.936 310.466 125.927 310.877 125.908V127C309.813 127.14 309.034 127.056 308.539 126.748C308.044 126.431 307.797 125.838 307.797 124.97V121.176H306.411V120H307.797V118.404L309.015 118.04V120H310.877V121.176ZM317.355 120H318.657L315.801 127.434C315.503 128.227 315.083 128.829 314.541 129.24C314.009 129.66 313.393 129.847 312.693 129.8V128.666C313.552 128.731 314.182 128.255 314.583 127.238L314.709 126.972L311.657 120H312.959L315.339 125.488L317.355 120Z" fill="white"/>
<path d="M441.29 127L440.492 124.802H436.082L435.284 127H433.898L437.552 117.2H439.022L442.676 127H441.29ZM436.53 123.584H440.044L438.28 118.754L436.53 123.584ZM445.834 127L442.334 117.2H443.734L446.576 125.376L449.404 117.2H450.818L447.304 127H445.834ZM460.98 122.142V122.73C460.98 124.009 460.541 125.073 459.664 125.922C458.787 126.762 457.625 127.182 456.178 127.182C454.685 127.182 453.448 126.692 452.468 125.712C451.497 124.723 451.012 123.519 451.012 122.1C451.012 120.681 451.497 119.482 452.468 118.502C453.448 117.513 454.675 117.018 456.15 117.018C457.055 117.018 457.886 117.237 458.642 117.676C459.398 118.105 459.981 118.675 460.392 119.384L459.272 120.042C458.992 119.51 458.567 119.085 457.998 118.768C457.438 118.441 456.817 118.278 456.136 118.278C455.016 118.278 454.097 118.647 453.378 119.384C452.659 120.112 452.3 121.017 452.3 122.1C452.3 123.183 452.659 124.088 453.378 124.816C454.106 125.544 455.044 125.908 456.192 125.908C457.172 125.908 457.965 125.67 458.572 125.194C459.179 124.709 459.547 124.083 459.678 123.318H456.08V122.142H460.98ZM469.619 117.2C470.524 117.2 471.276 117.503 471.873 118.11C472.48 118.707 472.783 119.454 472.783 120.35C472.783 121.237 472.48 121.983 471.873 122.59C471.276 123.197 470.524 123.5 469.619 123.5H467.365V127H466.063V117.2H469.619ZM469.619 122.282C470.16 122.282 470.608 122.1 470.963 121.736C471.318 121.363 471.495 120.901 471.495 120.35C471.495 119.79 471.318 119.328 470.963 118.964C470.608 118.6 470.16 118.418 469.619 118.418H467.365V122.282H469.619ZM475.262 121.176C475.664 120.308 476.392 119.874 477.446 119.874V121.148C476.849 121.12 476.336 121.279 475.906 121.624C475.477 121.969 475.262 122.525 475.262 123.29V127H474.044V120H475.262V121.176ZM479.254 118.726C479.021 118.726 478.825 118.647 478.666 118.488C478.508 118.329 478.428 118.138 478.428 117.914C478.428 117.69 478.508 117.499 478.666 117.34C478.825 117.172 479.021 117.088 479.254 117.088C479.478 117.088 479.67 117.172 479.828 117.34C479.987 117.499 480.066 117.69 480.066 117.914C480.066 118.138 479.987 118.329 479.828 118.488C479.67 118.647 479.478 118.726 479.254 118.726ZM478.638 127V120H479.856V127H478.638ZM485.004 127.182C483.95 127.182 483.072 126.832 482.372 126.132C481.672 125.423 481.322 124.545 481.322 123.5C481.322 122.455 481.672 121.582 482.372 120.882C483.072 120.173 483.95 119.818 485.004 119.818C485.695 119.818 486.316 119.986 486.866 120.322C487.417 120.649 487.828 121.092 488.098 121.652L487.076 122.24C486.899 121.867 486.624 121.568 486.25 121.344C485.886 121.12 485.471 121.008 485.004 121.008C484.304 121.008 483.716 121.246 483.24 121.722C482.774 122.198 482.54 122.791 482.54 123.5C482.54 124.2 482.774 124.788 483.24 125.264C483.716 125.74 484.304 125.978 485.004 125.978C485.471 125.978 485.891 125.871 486.264 125.656C486.638 125.432 486.922 125.133 487.118 124.76L488.154 125.362C487.856 125.913 487.426 126.356 486.866 126.692C486.306 127.019 485.686 127.182 485.004 127.182ZM490.115 124.06C490.237 124.685 490.521 125.171 490.969 125.516C491.427 125.861 491.987 126.034 492.649 126.034C493.573 126.034 494.245 125.693 494.665 125.012L495.701 125.6C495.02 126.655 493.993 127.182 492.621 127.182C491.511 127.182 490.605 126.837 489.905 126.146C489.215 125.446 488.869 124.564 488.869 123.5C488.869 122.445 489.21 121.568 489.891 120.868C490.573 120.168 491.455 119.818 492.537 119.818C493.564 119.818 494.399 120.182 495.043 120.91C495.697 121.629 496.023 122.497 496.023 123.514C496.023 123.691 496.009 123.873 495.981 124.06H490.115ZM492.537 120.966C491.884 120.966 491.343 121.153 490.913 121.526C490.484 121.89 490.218 122.38 490.115 122.996H494.791C494.689 122.333 494.427 121.829 494.007 121.484C493.587 121.139 493.097 120.966 492.537 120.966Z" fill="white"/>
<path d="M603.957 127.182C602.473 127.182 601.245 126.692 600.275 125.712C599.313 124.732 598.833 123.528 598.833 122.1C598.833 120.672 599.313 119.468 600.275 118.488C601.245 117.508 602.473 117.018 603.957 117.018C604.853 117.018 605.674 117.233 606.421 117.662C607.177 118.091 607.765 118.67 608.185 119.398L607.051 120.056C606.771 119.515 606.351 119.085 605.791 118.768C605.24 118.441 604.629 118.278 603.957 118.278C602.827 118.278 601.903 118.642 601.185 119.37C600.475 120.098 600.121 121.008 600.121 122.1C600.121 123.183 600.475 124.088 601.185 124.816C601.903 125.544 602.827 125.908 603.957 125.908C604.629 125.908 605.24 125.749 605.791 125.432C606.351 125.105 606.771 124.676 607.051 124.144L608.185 124.788C607.774 125.516 607.191 126.099 606.435 126.538C605.679 126.967 604.853 127.182 603.957 127.182ZM614.404 120H615.622V127H614.404V125.992C613.91 126.785 613.154 127.182 612.136 127.182C611.315 127.182 610.657 126.925 610.162 126.412C609.668 125.889 609.42 125.185 609.42 124.298V120H610.638V124.228C610.638 124.797 610.792 125.241 611.1 125.558C611.408 125.866 611.833 126.02 612.374 126.02C612.981 126.02 613.471 125.833 613.844 125.46C614.218 125.077 614.404 124.494 614.404 123.71V120ZM618.695 121.176C619.096 120.308 619.824 119.874 620.879 119.874V121.148C620.281 121.12 619.768 121.279 619.339 121.624C618.909 121.969 618.695 122.525 618.695 123.29V127H617.477V120H618.695V121.176ZM623.288 121.176C623.69 120.308 624.418 119.874 625.472 119.874V121.148C624.875 121.12 624.362 121.279 623.932 121.624C623.503 121.969 623.288 122.525 623.288 123.29V127H622.07V120H623.288V121.176ZM627.135 124.06C627.257 124.685 627.541 125.171 627.989 125.516C628.447 125.861 629.007 126.034 629.669 126.034C630.593 126.034 631.265 125.693 631.685 125.012L632.721 125.6C632.04 126.655 631.013 127.182 629.641 127.182C628.531 127.182 627.625 126.837 626.925 126.146C626.235 125.446 625.889 124.564 625.889 123.5C625.889 122.445 626.23 121.568 626.911 120.868C627.593 120.168 628.475 119.818 629.557 119.818C630.584 119.818 631.419 120.182 632.063 120.91C632.717 121.629 633.043 122.497 633.043 123.514C633.043 123.691 633.029 123.873 633.001 124.06H627.135ZM629.557 120.966C628.904 120.966 628.363 121.153 627.933 121.526C627.504 121.89 627.238 122.38 627.135 122.996H631.811C631.709 122.333 631.447 121.829 631.027 121.484C630.607 121.139 630.117 120.966 629.557 120.966ZM637.929 119.818C638.751 119.818 639.409 120.079 639.903 120.602C640.398 121.115 640.645 121.815 640.645 122.702V127H639.427V122.772C639.427 122.203 639.273 121.764 638.965 121.456C638.657 121.139 638.233 120.98 637.691 120.98C637.085 120.98 636.595 121.171 636.221 121.554C635.848 121.927 635.661 122.506 635.661 123.29V127H634.443V120H635.661V121.008C636.156 120.215 636.912 119.818 637.929 119.818ZM646.154 121.176H644.292V124.97C644.292 125.315 644.357 125.563 644.488 125.712C644.628 125.852 644.838 125.927 645.118 125.936C645.398 125.936 645.743 125.927 646.154 125.908V127C645.09 127.14 644.31 127.056 643.816 126.748C643.321 126.431 643.074 125.838 643.074 124.97V121.176H641.688V120H643.074V118.404L644.292 118.04V120H646.154V121.176ZM654.819 117.2C655.724 117.2 656.475 117.503 657.073 118.11C657.679 118.707 657.983 119.454 657.983 120.35C657.983 121.237 657.679 121.983 657.073 122.59C656.475 123.197 655.724 123.5 654.819 123.5H652.565V127H651.263V117.2H654.819ZM654.819 122.282C655.36 122.282 655.808 122.1 656.163 121.736C656.517 121.363 656.695 120.901 656.695 120.35C656.695 119.79 656.517 119.328 656.163 118.964C655.808 118.6 655.36 118.418 654.819 118.418H652.565V122.282H654.819ZM660.462 121.176C660.864 120.308 661.592 119.874 662.646 119.874V121.148C662.049 121.12 661.536 121.279 661.106 121.624C660.677 121.969 660.462 122.525 660.462 123.29V127H659.244V120H660.462V121.176ZM664.454 118.726C664.221 118.726 664.025 118.647 663.866 118.488C663.707 118.329 663.628 118.138 663.628 117.914C663.628 117.69 663.707 117.499 663.866 117.34C664.025 117.172 664.221 117.088 664.454 117.088C664.678 117.088 664.869 117.172 665.028 117.34C665.187 117.499 665.266 117.69 665.266 117.914C665.266 118.138 665.187 118.329 665.028 118.488C664.869 118.647 664.678 118.726 664.454 118.726ZM663.838 127V120H665.056V127H663.838ZM670.204 127.182C669.149 127.182 668.272 126.832 667.572 126.132C666.872 125.423 666.522 124.545 666.522 123.5C666.522 122.455 666.872 121.582 667.572 120.882C668.272 120.173 669.149 119.818 670.204 119.818C670.895 119.818 671.515 119.986 672.066 120.322C672.617 120.649 673.027 121.092 673.298 121.652L672.276 122.24C672.099 121.867 671.823 121.568 671.45 121.344C671.086 121.12 670.671 121.008 670.204 121.008C669.504 121.008 668.916 121.246 668.44 121.722C667.973 122.198 667.74 122.791 667.74 123.5C667.74 124.2 667.973 124.788 668.44 125.264C668.916 125.74 669.504 125.978 670.204 125.978C670.671 125.978 671.091 125.871 671.464 125.656C671.837 125.432 672.122 125.133 672.318 124.76L673.354 125.362C673.055 125.913 672.626 126.356 672.066 126.692C671.506 127.019 670.885 127.182 670.204 127.182ZM675.315 124.06C675.436 124.685 675.721 125.171 676.169 125.516C676.626 125.861 677.186 126.034 677.849 126.034C678.773 126.034 679.445 125.693 679.865 125.012L680.901 125.6C680.22 126.655 679.193 127.182 677.821 127.182C676.71 127.182 675.805 126.837 675.105 126.146C674.414 125.446 674.069 124.564 674.069 123.5C674.069 122.445 674.41 121.568 675.091 120.868C675.772 120.168 676.654 119.818 677.737 119.818C678.764 119.818 679.599 120.182 680.243 120.91C680.896 121.629 681.223 122.497 681.223 123.514C681.223 123.691 681.209 123.873 681.181 124.06H675.315ZM677.737 120.966C677.084 120.966 676.542 121.153 676.113 121.526C675.684 121.89 675.418 122.38 675.315 122.996H679.991C679.888 122.333 679.627 121.829 679.207 121.484C678.787 121.139 678.297 120.966 677.737 120.966Z" fill="white"/>
<path d="M800.539 127L797.039 117.2H798.439L801.281 125.376L804.109 117.2H805.523L802.009 127H800.539ZM811.508 120H812.726V127H811.508V125.796C810.901 126.72 810.019 127.182 808.862 127.182C807.882 127.182 807.047 126.827 806.356 126.118C805.665 125.399 805.32 124.527 805.32 123.5C805.32 122.473 805.665 121.605 806.356 120.896C807.047 120.177 807.882 119.818 808.862 119.818C810.019 119.818 810.901 120.28 811.508 121.204V120ZM809.016 126.006C809.725 126.006 810.318 125.768 810.794 125.292C811.27 124.807 811.508 124.209 811.508 123.5C811.508 122.791 811.27 122.198 810.794 121.722C810.318 121.237 809.725 120.994 809.016 120.994C808.316 120.994 807.728 121.237 807.252 121.722C806.776 122.198 806.538 122.791 806.538 123.5C806.538 124.209 806.776 124.807 807.252 125.292C807.728 125.768 808.316 126.006 809.016 126.006ZM814.571 127V116.78H815.789V127H814.571ZM822.477 120H823.695V127H822.477V125.992C821.983 126.785 821.227 127.182 820.209 127.182C819.388 127.182 818.73 126.925 818.235 126.412C817.741 125.889 817.493 125.185 817.493 124.298V120H818.711V124.228C818.711 124.797 818.865 125.241 819.173 125.558C819.481 125.866 819.906 126.02 820.447 126.02C821.054 126.02 821.544 125.833 821.917 125.46C822.291 125.077 822.477 124.494 822.477 123.71V120ZM826.404 124.06C826.525 124.685 826.81 125.171 827.258 125.516C827.715 125.861 828.275 126.034 828.938 126.034C829.862 126.034 830.534 125.693 830.954 125.012L831.99 125.6C831.309 126.655 830.282 127.182 828.91 127.182C827.799 127.182 826.894 126.837 826.194 126.146C825.503 125.446 825.158 124.564 825.158 123.5C825.158 122.445 825.499 121.568 826.18 120.868C826.861 120.168 827.743 119.818 828.826 119.818C829.853 119.818 830.688 120.182 831.332 120.91C831.985 121.629 832.312 122.497 832.312 123.514C832.312 123.691 832.298 123.873 832.27 124.06H826.404ZM828.826 120.966C828.173 120.966 827.631 121.153 827.202 121.526C826.773 121.89 826.507 122.38 826.404 122.996H831.08C830.977 122.333 830.716 121.829 830.296 121.484C829.876 121.139 829.386 120.966 828.826 120.966Z" fill="white"/>
<path d="M982.495 117.2C983.4 117.2 984.151 117.503 984.749 118.11C985.355 118.707 985.659 119.454 985.659 120.35C985.659 121.237 985.355 121.983 984.749 122.59C984.151 123.197 983.4 123.5 982.495 123.5H980.241V127H978.939V117.2H982.495ZM982.495 122.282C983.036 122.282 983.484 122.1 983.839 121.736C984.193 121.363 984.371 120.901 984.371 120.35C984.371 119.79 984.193 119.328 983.839 118.964C983.484 118.6 983.036 118.418 982.495 118.418H980.241V122.282H982.495ZM994.381 126.594L993.289 127.224L992.295 126.16C991.567 126.841 990.634 127.182 989.495 127.182C988.515 127.182 987.722 126.93 987.115 126.426C986.509 125.913 986.205 125.222 986.205 124.354C986.205 123.757 986.355 123.211 986.653 122.716C986.961 122.212 987.409 121.815 987.997 121.526C987.577 120.994 987.367 120.401 987.367 119.748C987.367 118.936 987.647 118.278 988.207 117.774C988.777 117.27 989.458 117.018 990.251 117.018C990.905 117.018 991.497 117.195 992.029 117.55C992.561 117.905 992.944 118.395 993.177 119.02L992.085 119.65C991.945 119.221 991.712 118.885 991.385 118.642C991.068 118.399 990.699 118.278 990.279 118.278C989.831 118.278 989.449 118.413 989.131 118.684C988.823 118.955 988.669 119.305 988.669 119.734C988.669 120.042 988.739 120.322 988.879 120.574C989.029 120.817 989.248 121.092 989.537 121.4L992.211 124.256C992.445 123.771 992.613 123.178 992.715 122.478L993.835 123.122C993.705 123.897 993.453 124.592 993.079 125.208L994.381 126.594ZM989.523 125.95C990.298 125.95 990.942 125.721 991.455 125.264L988.809 122.422C988.361 122.609 988.03 122.87 987.815 123.206C987.61 123.542 987.507 123.897 987.507 124.27C987.507 124.793 987.685 125.203 988.039 125.502C988.394 125.801 988.889 125.95 989.523 125.95ZM997.057 125.768H1001.28V127H995.755V117.2H997.057V125.768Z" fill="white"/>
<path d="M1148.31 127L1147.51 124.802H1143.1L1142.3 127H1140.91L1144.57 117.2H1146.04L1149.69 127H1148.31ZM1143.55 123.584H1147.06L1145.3 118.754L1143.55 123.584ZM1153.85 127.182C1152.79 127.182 1151.92 126.832 1151.22 126.132C1150.52 125.423 1150.17 124.545 1150.17 123.5C1150.17 122.455 1150.52 121.582 1151.22 120.882C1151.92 120.173 1152.79 119.818 1153.85 119.818C1154.54 119.818 1155.16 119.986 1155.71 120.322C1156.26 120.649 1156.67 121.092 1156.94 121.652L1155.92 122.24C1155.74 121.867 1155.47 121.568 1155.09 121.344C1154.73 121.12 1154.32 121.008 1153.85 121.008C1153.15 121.008 1152.56 121.246 1152.08 121.722C1151.62 122.198 1151.38 122.791 1151.38 123.5C1151.38 124.2 1151.62 124.788 1152.08 125.264C1152.56 125.74 1153.15 125.978 1153.85 125.978C1154.32 125.978 1154.74 125.871 1155.11 125.656C1155.48 125.432 1155.77 125.133 1155.96 124.76L1157 125.362C1156.7 125.913 1156.27 126.356 1155.71 126.692C1155.15 127.019 1154.53 127.182 1153.85 127.182ZM1162.01 121.176H1160.15V124.97C1160.15 125.315 1160.21 125.563 1160.34 125.712C1160.48 125.852 1160.69 125.927 1160.97 125.936C1161.25 125.936 1161.6 125.927 1162.01 125.908V127C1160.95 127.14 1160.17 127.056 1159.67 126.748C1159.18 126.431 1158.93 125.838 1158.93 124.97V121.176H1157.54V120H1158.93V118.404L1160.15 118.04V120H1162.01V121.176ZM1164.07 118.726C1163.83 118.726 1163.64 118.647 1163.48 118.488C1163.32 118.329 1163.24 118.138 1163.24 117.914C1163.24 117.69 1163.32 117.499 1163.48 117.34C1163.64 117.172 1163.83 117.088 1164.07 117.088C1164.29 117.088 1164.48 117.172 1164.64 117.34C1164.8 117.499 1164.88 117.69 1164.88 117.914C1164.88 118.138 1164.8 118.329 1164.64 118.488C1164.48 118.647 1164.29 118.726 1164.07 118.726ZM1163.45 127V120H1164.67V127H1163.45ZM1172.44 126.118C1171.72 126.827 1170.84 127.182 1169.82 127.182C1168.79 127.182 1167.92 126.827 1167.2 126.118C1166.49 125.409 1166.14 124.536 1166.14 123.5C1166.14 122.464 1166.49 121.591 1167.2 120.882C1167.92 120.173 1168.79 119.818 1169.82 119.818C1170.84 119.818 1171.72 120.173 1172.44 120.882C1173.15 121.591 1173.51 122.464 1173.51 123.5C1173.51 124.536 1173.15 125.409 1172.44 126.118ZM1169.82 125.992C1170.52 125.992 1171.11 125.754 1171.58 125.278C1172.06 124.802 1172.3 124.209 1172.3 123.5C1172.3 122.791 1172.06 122.198 1171.58 121.722C1171.11 121.246 1170.52 121.008 1169.82 121.008C1169.13 121.008 1168.54 121.246 1168.07 121.722C1167.59 122.198 1167.35 122.791 1167.35 123.5C1167.35 124.209 1167.59 124.802 1168.07 125.278C1168.54 125.754 1169.13 125.992 1169.82 125.992ZM1178.44 119.818C1179.26 119.818 1179.91 120.079 1180.41 120.602C1180.9 121.115 1181.15 121.815 1181.15 122.702V127H1179.93V122.772C1179.93 122.203 1179.78 121.764 1179.47 121.456C1179.16 121.139 1178.74 120.98 1178.2 120.98C1177.59 120.98 1177.1 121.171 1176.73 121.554C1176.35 121.927 1176.17 122.506 1176.17 123.29V127H1174.95V120H1176.17V121.008C1176.66 120.215 1177.42 119.818 1178.44 119.818ZM1183.9 121.89C1183.9 122.161 1184.04 122.38 1184.31 122.548C1184.58 122.707 1184.9 122.837 1185.29 122.94C1185.67 123.033 1186.05 123.145 1186.44 123.276C1186.82 123.397 1187.14 123.612 1187.42 123.92C1187.69 124.219 1187.82 124.606 1187.82 125.082C1187.82 125.717 1187.57 126.225 1187.08 126.608C1186.59 126.991 1185.97 127.182 1185.2 127.182C1184.52 127.182 1183.94 127.033 1183.45 126.734C1182.97 126.435 1182.62 126.039 1182.42 125.544L1183.47 124.942C1183.58 125.278 1183.79 125.544 1184.1 125.74C1184.41 125.936 1184.77 126.034 1185.2 126.034C1185.6 126.034 1185.94 125.959 1186.2 125.81C1186.46 125.651 1186.59 125.409 1186.59 125.082C1186.59 124.811 1186.45 124.597 1186.18 124.438C1185.91 124.27 1185.59 124.139 1185.2 124.046C1184.82 123.943 1184.44 123.827 1184.06 123.696C1183.67 123.565 1183.35 123.351 1183.08 123.052C1182.8 122.753 1182.67 122.371 1182.67 121.904C1182.67 121.297 1182.9 120.798 1183.37 120.406C1183.85 120.014 1184.44 119.818 1185.15 119.818C1185.72 119.818 1186.22 119.949 1186.66 120.21C1187.11 120.462 1187.44 120.817 1187.67 121.274L1186.65 121.848C1186.39 121.251 1185.89 120.952 1185.15 120.952C1184.8 120.952 1184.51 121.036 1184.27 121.204C1184.02 121.363 1183.9 121.591 1183.9 121.89Z" fill="white"/>
<rect x="24.5" y="158.5" width="1231" height="45" rx="7.5" stroke="white" stroke-opacity="0.1"/>
<path d="M106.369 185L105.571 182.802H101.161L100.363 185H98.9772L102.631 175.2H104.101L107.755 185H106.369ZM101.609 181.584H105.123L103.359 176.754L101.609 181.584ZM115.406 185L114.608 182.802H110.198L109.4 185H108.014L111.668 175.2H113.138L116.792 185H115.406ZM110.646 181.584H114.16L112.396 176.754L110.646 181.584ZM121.504 175.2C122.41 175.2 123.161 175.503 123.758 176.11C124.365 176.707 124.668 177.454 124.668 178.35C124.668 179.237 124.365 179.983 123.758 180.59C123.161 181.197 122.41 181.5 121.504 181.5H119.25V185H117.948V175.2H121.504ZM121.504 180.282C122.046 180.282 122.494 180.1 122.848 179.736C123.203 179.363 123.38 178.901 123.38 178.35C123.38 177.79 123.203 177.328 122.848 176.964C122.494 176.6 122.046 176.418 121.504 176.418H119.25V180.282H121.504ZM127.508 183.768H131.736V185H126.206V175.2H127.508V183.768Z" fill="#909090"/>
<path d="M281.744 175.2H282.864V185H281.576V176.6L279.49 177.216L279.168 176.096L281.744 175.2ZM291.158 183.796C290.496 184.72 289.567 185.182 288.372 185.182C287.178 185.182 286.249 184.72 285.586 183.796C284.924 182.872 284.592 181.64 284.592 180.1C284.592 178.56 284.924 177.328 285.586 176.404C286.249 175.48 287.178 175.018 288.372 175.018C289.567 175.018 290.496 175.48 291.158 176.404C291.821 177.328 292.152 178.56 292.152 180.1C292.152 181.64 291.821 182.872 291.158 183.796ZM286.538 182.914C286.968 183.577 287.579 183.908 288.372 183.908C289.166 183.908 289.777 183.577 290.206 182.914C290.645 182.251 290.864 181.313 290.864 180.1C290.864 178.887 290.645 177.949 290.206 177.286C289.777 176.614 289.166 176.278 288.372 176.278C287.579 176.278 286.968 176.609 286.538 177.272C286.109 177.935 285.894 178.877 285.894 180.1C285.894 181.313 286.109 182.251 286.538 182.914ZM299.977 183.796C299.314 184.72 298.385 185.182 297.191 185.182C295.996 185.182 295.067 184.72 294.405 183.796C293.742 182.872 293.411 181.64 293.411 180.1C293.411 178.56 293.742 177.328 294.405 176.404C295.067 175.48 295.996 175.018 297.191 175.018C298.385 175.018 299.314 175.48 299.977 176.404C300.639 177.328 300.971 178.56 300.971 180.1C300.971 181.64 300.639 182.872 299.977 183.796ZM295.357 182.914C295.786 183.577 296.397 183.908 297.191 183.908C297.984 183.908 298.595 183.577 299.025 182.914C299.463 182.251 299.683 181.313 299.683 180.1C299.683 178.887 299.463 177.949 299.025 177.286C298.595 176.614 297.984 176.278 297.191 176.278C296.397 176.278 295.786 176.609 295.357 177.272C294.927 177.935 294.713 178.877 294.713 180.1C294.713 181.313 294.927 182.251 295.357 182.914Z" fill="#909090"/>
<path d="M460.417 182.382C460.417 183.147 460.165 183.777 459.661 184.272C459.157 184.767 458.504 185.061 457.701 185.154V186.4H456.819V185.168C456.054 185.112 455.401 184.902 454.859 184.538C454.327 184.174 453.94 183.684 453.697 183.068L454.817 182.424C455.135 183.292 455.802 183.782 456.819 183.894V180.506C456.399 180.357 456.059 180.221 455.797 180.1C455.545 179.969 455.279 179.797 454.999 179.582C454.719 179.367 454.509 179.106 454.369 178.798C454.239 178.481 454.173 178.117 454.173 177.706C454.173 176.95 454.425 176.334 454.929 175.858C455.433 175.382 456.063 175.107 456.819 175.032V173.8H457.701V175.046C458.261 175.121 458.761 175.317 459.199 175.634C459.638 175.951 459.979 176.381 460.221 176.922L459.129 177.538C458.859 176.857 458.383 176.451 457.701 176.32V179.54C458.131 179.699 458.471 179.839 458.723 179.96C458.975 180.081 459.251 180.254 459.549 180.478C459.848 180.693 460.067 180.959 460.207 181.276C460.347 181.593 460.417 181.962 460.417 182.382ZM455.461 177.706C455.461 178.061 455.569 178.35 455.783 178.574C455.998 178.798 456.343 179.008 456.819 179.204V176.306C456.409 176.362 456.077 176.516 455.825 176.768C455.583 177.011 455.461 177.323 455.461 177.706ZM457.701 183.866C458.149 183.801 458.495 183.637 458.737 183.376C458.989 183.105 459.115 182.779 459.115 182.396C459.115 182.013 458.999 181.71 458.765 181.486C458.541 181.253 458.187 181.033 457.701 180.828V183.866ZM464.685 179.022C465.609 179.022 466.388 179.297 467.023 179.848C467.667 180.389 467.989 181.141 467.989 182.102C467.989 183.054 467.662 183.805 467.009 184.356C466.355 184.907 465.562 185.182 464.629 185.182C463.882 185.182 463.215 185.005 462.627 184.65C462.039 184.286 461.628 183.763 461.395 183.082L462.501 182.452C462.631 182.928 462.883 183.292 463.257 183.544C463.63 183.787 464.087 183.908 464.629 183.908C465.245 183.908 465.744 183.749 466.127 183.432C466.509 183.115 466.701 182.671 466.701 182.102C466.701 181.533 466.509 181.089 466.127 180.772C465.744 180.445 465.254 180.282 464.657 180.282H461.885L462.249 175.2H467.611V176.418H463.425L463.257 179.022H464.685ZM475.456 183.796C474.793 184.72 473.865 185.182 472.67 185.182C471.475 185.182 470.547 184.72 469.884 183.796C469.221 182.872 468.89 181.64 468.89 180.1C468.89 178.56 469.221 177.328 469.884 176.404C470.547 175.48 471.475 175.018 472.67 175.018C473.865 175.018 474.793 175.48 475.456 176.404C476.119 177.328 476.45 178.56 476.45 180.1C476.45 181.64 476.119 182.872 475.456 183.796ZM470.836 182.914C471.265 183.577 471.877 183.908 472.67 183.908C473.463 183.908 474.075 183.577 474.504 182.914C474.943 182.251 475.162 181.313 475.162 180.1C475.162 178.887 474.943 177.949 474.504 177.286C474.075 176.614 473.463 176.278 472.67 176.278C471.877 176.278 471.265 176.609 470.836 177.272C470.407 177.935 470.192 178.877 470.192 180.1C470.192 181.313 470.407 182.251 470.836 182.914Z" fill="#909090"/>
<path d="M635.896 182.382C635.896 183.147 635.644 183.777 635.14 184.272C634.636 184.767 633.983 185.061 633.18 185.154V186.4H632.298V185.168C631.533 185.112 630.88 184.902 630.338 184.538C629.806 184.174 629.419 183.684 629.176 183.068L630.296 182.424C630.614 183.292 631.281 183.782 632.298 183.894V180.506C631.878 180.357 631.538 180.221 631.276 180.1C631.024 179.969 630.758 179.797 630.478 179.582C630.198 179.367 629.988 179.106 629.848 178.798C629.718 178.481 629.652 178.117 629.652 177.706C629.652 176.95 629.904 176.334 630.408 175.858C630.912 175.382 631.542 175.107 632.298 175.032V173.8H633.18V175.046C633.74 175.121 634.24 175.317 634.678 175.634C635.117 175.951 635.458 176.381 635.7 176.922L634.608 177.538C634.338 176.857 633.862 176.451 633.18 176.32V179.54C633.61 179.699 633.95 179.839 634.202 179.96C634.454 180.081 634.73 180.254 635.028 180.478C635.327 180.693 635.546 180.959 635.686 181.276C635.826 181.593 635.896 181.962 635.896 182.382ZM630.94 177.706C630.94 178.061 631.048 178.35 631.262 178.574C631.477 178.798 631.822 179.008 632.298 179.204V176.306C631.888 176.362 631.556 176.516 631.304 176.768C631.062 177.011 630.94 177.323 630.94 177.706ZM633.18 183.866C633.628 183.801 633.974 183.637 634.216 183.376C634.468 183.105 634.594 182.779 634.594 182.396C634.594 182.013 634.478 181.71 634.244 181.486C634.02 181.253 633.666 181.033 633.18 180.828V183.866ZM640.164 179.022C641.088 179.022 641.867 179.297 642.502 179.848C643.146 180.389 643.468 181.141 643.468 182.102C643.468 183.054 643.141 183.805 642.488 184.356C641.834 184.907 641.041 185.182 640.108 185.182C639.361 185.182 638.694 185.005 638.106 184.65C637.518 184.286 637.107 183.763 636.874 183.082L637.98 182.452C638.11 182.928 638.362 183.292 638.736 183.544C639.109 183.787 639.566 183.908 640.108 183.908C640.724 183.908 641.223 183.749 641.606 183.432C641.988 183.115 642.18 182.671 642.18 182.102C642.18 181.533 641.988 181.089 641.606 180.772C641.223 180.445 640.733 180.282 640.136 180.282H637.364L637.728 175.2H643.09V176.418H638.904L638.736 179.022H640.164ZM647.492 179.022C648.416 179.022 649.195 179.297 649.83 179.848C650.474 180.389 650.796 181.141 650.796 182.102C650.796 183.054 650.469 183.805 649.816 184.356C649.162 184.907 648.369 185.182 647.436 185.182C646.689 185.182 646.022 185.005 645.434 184.65C644.846 184.286 644.435 183.763 644.202 183.082L645.308 182.452C645.438 182.928 645.69 183.292 646.064 183.544C646.437 183.787 646.894 183.908 647.436 183.908C648.052 183.908 648.551 183.749 648.934 183.432C649.316 183.115 649.508 182.671 649.508 182.102C649.508 181.533 649.316 181.089 648.934 180.772C648.551 180.445 648.061 180.282 647.464 180.282H644.692L645.056 175.2H650.418V176.418H646.232L646.064 179.022H647.492Z" fill="#909090"/>
<path d="M800.288 182.382C800.288 183.147 800.036 183.777 799.532 184.272C799.028 184.767 798.375 185.061 797.572 185.154V186.4H796.69V185.168C795.925 185.112 795.271 184.902 794.73 184.538C794.198 184.174 793.811 183.684 793.568 183.068L794.688 182.424C795.005 183.292 795.673 183.782 796.69 183.894V180.506C796.27 180.357 795.929 180.221 795.668 180.1C795.416 179.969 795.15 179.797 794.87 179.582C794.59 179.367 794.38 179.106 794.24 178.798C794.109 178.481 794.044 178.117 794.044 177.706C794.044 176.95 794.296 176.334 794.8 175.858C795.304 175.382 795.934 175.107 796.69 175.032V173.8H797.572V175.046C798.132 175.121 798.631 175.317 799.07 175.634C799.509 175.951 799.849 176.381 800.092 176.922L799 177.538C798.729 176.857 798.253 176.451 797.572 176.32V179.54C798.001 179.699 798.342 179.839 798.594 179.96C798.846 180.081 799.121 180.254 799.42 180.478C799.719 180.693 799.938 180.959 800.078 181.276C800.218 181.593 800.288 181.962 800.288 182.382ZM795.332 177.706C795.332 178.061 795.439 178.35 795.654 178.574C795.869 178.798 796.214 179.008 796.69 179.204V176.306C796.279 176.362 795.948 176.516 795.696 176.768C795.453 177.011 795.332 177.323 795.332 177.706ZM797.572 183.866C798.02 183.801 798.365 183.637 798.608 183.376C798.86 183.105 798.986 182.779 798.986 182.396C798.986 182.013 798.869 181.71 798.636 181.486C798.412 181.253 798.057 181.033 797.572 180.828V183.866ZM804.555 179.022C805.479 179.022 806.259 179.297 806.893 179.848C807.537 180.389 807.859 181.141 807.859 182.102C807.859 183.054 807.533 183.805 806.879 184.356C806.226 184.907 805.433 185.182 804.499 185.182C803.753 185.182 803.085 185.005 802.497 184.65C801.909 184.286 801.499 183.763 801.265 183.082L802.371 182.452C802.502 182.928 802.754 183.292 803.127 183.544C803.501 183.787 803.958 183.908 804.499 183.908C805.115 183.908 805.615 183.749 805.997 183.432C806.38 183.115 806.571 182.671 806.571 182.102C806.571 181.533 806.38 181.089 805.997 180.772C805.615 180.445 805.125 180.282 804.527 180.282H801.755L802.119 175.2H807.481V176.418H803.295L803.127 179.022H804.555ZM810.847 183.558L809.937 186.96H808.887L809.447 183.558H810.847ZM815.424 179.022C816.348 179.022 817.128 179.297 817.762 179.848C818.406 180.389 818.728 181.141 818.728 182.102C818.728 183.054 818.402 183.805 817.748 184.356C817.095 184.907 816.302 185.182 815.368 185.182C814.622 185.182 813.954 185.005 813.366 184.65C812.778 184.286 812.368 183.763 812.134 183.082L813.24 182.452C813.371 182.928 813.623 183.292 813.996 183.544C814.37 183.787 814.827 183.908 815.368 183.908C815.984 183.908 816.484 183.749 816.866 183.432C817.249 183.115 817.44 182.671 817.44 182.102C817.44 181.533 817.249 181.089 816.866 180.772C816.484 180.445 815.994 180.282 815.396 180.282H812.624L812.988 175.2H818.35V176.418H814.164L813.996 179.022H815.424ZM826.196 183.796C825.533 184.72 824.605 185.182 823.41 185.182C822.215 185.182 821.287 184.72 820.624 183.796C819.961 182.872 819.63 181.64 819.63 180.1C819.63 178.56 819.961 177.328 820.624 176.404C821.287 175.48 822.215 175.018 823.41 175.018C824.605 175.018 825.533 175.48 826.196 176.404C826.859 177.328 827.19 178.56 827.19 180.1C827.19 181.64 826.859 182.872 826.196 183.796ZM821.576 182.914C822.005 183.577 822.617 183.908 823.41 183.908C824.203 183.908 824.815 183.577 825.244 182.914C825.683 182.251 825.902 181.313 825.902 180.1C825.902 178.887 825.683 177.949 825.244 177.286C824.815 176.614 824.203 176.278 823.41 176.278C822.617 176.278 822.005 176.609 821.576 177.272C821.147 177.935 820.932 178.877 820.932 180.1C820.932 181.313 821.147 182.251 821.576 182.914ZM835.014 183.796C834.352 184.72 833.423 185.182 832.228 185.182C831.034 185.182 830.105 184.72 829.442 183.796C828.78 182.872 828.448 181.64 828.448 180.1C828.448 178.56 828.78 177.328 829.442 176.404C830.105 175.48 831.034 175.018 832.228 175.018C833.423 175.018 834.352 175.48 835.014 176.404C835.677 177.328 836.008 178.56 836.008 180.1C836.008 181.64 835.677 182.872 835.014 183.796ZM830.394 182.914C830.824 183.577 831.435 183.908 832.228 183.908C833.022 183.908 833.633 183.577 834.062 182.914C834.501 182.251 834.72 181.313 834.72 180.1C834.72 178.887 834.501 177.949 834.062 177.286C833.633 176.614 833.022 176.278 832.228 176.278C831.435 176.278 830.824 176.609 830.394 177.272C829.965 177.935 829.75 178.877 829.75 180.1C829.75 181.313 829.965 182.251 830.394 182.914Z" fill="#909090"/>
<path d="M970.775 179.512V180.674H968.339V183.11H967.177V180.674H964.755V179.512H967.177V177.09H968.339V179.512H970.775ZM974.344 175.2H975.464V185H974.176V176.6L972.09 177.216L971.768 176.096L974.344 175.2ZM983.758 183.796C983.096 184.72 982.167 185.182 980.972 185.182C979.778 185.182 978.849 184.72 978.186 183.796C977.524 182.872 977.192 181.64 977.192 180.1C977.192 178.56 977.524 177.328 978.186 176.404C978.849 175.48 979.778 175.018 980.972 175.018C982.167 175.018 983.096 175.48 983.758 176.404C984.421 177.328 984.752 178.56 984.752 180.1C984.752 181.64 984.421 182.872 983.758 183.796ZM979.138 182.914C979.568 183.577 980.179 183.908 980.972 183.908C981.766 183.908 982.377 183.577 982.806 182.914C983.245 182.251 983.464 181.313 983.464 180.1C983.464 178.887 983.245 177.949 982.806 177.286C982.377 176.614 981.766 176.278 980.972 176.278C980.179 176.278 979.568 176.609 979.138 177.272C978.709 177.935 978.494 178.877 978.494 180.1C978.494 181.313 978.709 182.251 979.138 182.914ZM986.651 185.154C986.399 185.154 986.184 185.065 986.007 184.888C985.83 184.711 985.741 184.496 985.741 184.244C985.741 183.992 985.83 183.777 986.007 183.6C986.184 183.423 986.399 183.334 986.651 183.334C986.912 183.334 987.127 183.423 987.295 183.6C987.472 183.777 987.561 183.992 987.561 184.244C987.561 184.496 987.472 184.711 987.295 184.888C987.127 185.065 986.912 185.154 986.651 185.154ZM995.133 183.796C994.471 184.72 993.542 185.182 992.347 185.182C991.153 185.182 990.224 184.72 989.561 183.796C988.899 182.872 988.567 181.64 988.567 180.1C988.567 178.56 988.899 177.328 989.561 176.404C990.224 175.48 991.153 175.018 992.347 175.018C993.542 175.018 994.471 175.48 995.133 176.404C995.796 177.328 996.127 178.56 996.127 180.1C996.127 181.64 995.796 182.872 995.133 183.796ZM990.513 182.914C990.943 183.577 991.554 183.908 992.347 183.908C993.141 183.908 993.752 183.577 994.181 182.914C994.62 182.251 994.839 181.313 994.839 180.1C994.839 178.887 994.62 177.949 994.181 177.286C993.752 176.614 993.141 176.278 992.347 176.278C991.554 176.278 990.943 176.609 990.513 177.272C990.084 177.935 989.869 178.877 989.869 180.1C989.869 181.313 990.084 182.251 990.513 182.914ZM1003.95 183.796C1003.29 184.72 1002.36 185.182 1001.17 185.182C999.971 185.182 999.042 184.72 998.38 183.796C997.717 182.872 997.386 181.64 997.386 180.1C997.386 178.56 997.717 177.328 998.38 176.404C999.042 175.48 999.971 175.018 1001.17 175.018C1002.36 175.018 1003.29 175.48 1003.95 176.404C1004.61 177.328 1004.95 178.56 1004.95 180.1C1004.95 181.64 1004.61 182.872 1003.95 183.796ZM999.332 182.914C999.761 183.577 1000.37 183.908 1001.17 183.908C1001.96 183.908 1002.57 183.577 1003 182.914C1003.44 182.251 1003.66 181.313 1003.66 180.1C1003.66 178.887 1003.44 177.949 1003 177.286C1002.57 176.614 1001.96 176.278 1001.17 176.278C1000.37 176.278 999.761 176.609 999.332 177.272C998.902 177.935 998.688 178.877 998.688 180.1C998.688 181.313 998.902 182.251 999.332 182.914ZM1008.28 179.358C1007.65 179.358 1007.12 179.148 1006.7 178.728C1006.28 178.308 1006.07 177.795 1006.07 177.188C1006.07 176.591 1006.28 176.082 1006.7 175.662C1007.13 175.233 1007.66 175.018 1008.28 175.018C1008.92 175.018 1009.44 175.228 1009.86 175.648C1010.28 176.068 1010.49 176.581 1010.49 177.188C1010.49 177.795 1010.28 178.308 1009.86 178.728C1009.45 179.148 1008.93 179.358 1008.28 179.358ZM1007.47 178.014C1007.69 178.229 1007.96 178.336 1008.28 178.336C1008.61 178.336 1008.88 178.224 1009.08 178C1009.3 177.776 1009.4 177.505 1009.4 177.188C1009.4 176.871 1009.3 176.605 1009.08 176.39C1008.88 176.166 1008.61 176.054 1008.28 176.054C1007.96 176.054 1007.69 176.166 1007.47 176.39C1007.27 176.605 1007.16 176.871 1007.16 177.188C1007.16 177.515 1007.27 177.79 1007.47 178.014ZM1006.73 183.614L1013.24 176.334L1013.92 176.712L1007.4 184.006L1006.73 183.614ZM1014.09 184.538C1013.67 184.958 1013.15 185.168 1012.51 185.168C1011.88 185.168 1011.35 184.958 1010.93 184.538C1010.51 184.118 1010.3 183.605 1010.3 182.998C1010.3 182.391 1010.51 181.878 1010.93 181.458C1011.35 181.038 1011.88 180.828 1012.51 180.828C1013.15 180.828 1013.67 181.038 1014.09 181.458C1014.51 181.878 1014.72 182.391 1014.72 182.998C1014.72 183.605 1014.51 184.118 1014.09 184.538ZM1011.7 183.81C1011.91 184.025 1012.18 184.132 1012.51 184.132C1012.84 184.132 1013.1 184.025 1013.31 183.81C1013.52 183.586 1013.63 183.315 1013.63 182.998C1013.63 182.681 1013.52 182.415 1013.31 182.2C1013.1 181.976 1012.84 181.864 1012.51 181.864C1012.18 181.864 1011.91 181.976 1011.7 182.2C1011.49 182.415 1011.39 182.681 1011.39 182.998C1011.39 183.315 1011.49 183.586 1011.7 183.81Z" fill="#05B353"/>
<g clip-path="url(#clip0_1639_1594)">
<path d="M1149.32 184.75H1159.82V185.5H1149.32V184.75Z" fill="#909090"/>
<path d="M1158.1 178.375C1158.4 178.075 1158.4 177.625 1158.1 177.325L1156.75 175.975C1156.45 175.675 1156 175.675 1155.7 175.975L1150.07 181.6V184H1152.47L1158.1 178.375ZM1156.22 176.5L1157.57 177.85L1156.45 178.975L1155.1 177.625L1156.22 176.5ZM1150.82 183.25V181.9L1154.57 178.15L1155.92 179.5L1152.17 183.25H1150.82Z" fill="#909090"/>
</g>
<g clip-path="url(#clip1_1639_1594)">
<path d="M1173.07 179.5H1173.82V184H1173.07V179.5Z" fill="#BB0404"/>
<path d="M1175.32 179.5H1176.07V184H1175.32V179.5Z" fill="#BB0404"/>
<path d="M1170.07 177.25V178H1170.82V185.5C1170.82 185.699 1170.9 185.89 1171.04 186.03C1171.18 186.171 1171.37 186.25 1171.57 186.25H1177.57C1177.77 186.25 1177.96 186.171 1178.1 186.03C1178.24 185.89 1178.32 185.699 1178.32 185.5V178H1179.07V177.25H1170.07ZM1171.57 185.5V178H1177.57V185.5H1171.57Z" fill="#BB0404"/>
<path d="M1173.07 175.75H1176.07V176.5H1173.07V175.75Z" fill="#BB0404"/>
</g>
<rect x="24.5" y="212.5" width="1231" height="45" rx="7.5" stroke="white" stroke-opacity="0.1"/>
<path d="M108.689 229.2V239H107.401V231.342L104.195 236.676H104.027L100.821 231.356V239H99.5188V229.2H100.989L104.111 234.38L107.219 229.2H108.689ZM113.798 239.182C112.883 239.182 112.099 238.967 111.446 238.538C110.802 238.109 110.349 237.521 110.088 236.774L111.208 236.13C111.591 237.315 112.463 237.908 113.826 237.908C114.498 237.908 115.011 237.773 115.366 237.502C115.721 237.222 115.898 236.853 115.898 236.396C115.898 235.929 115.721 235.579 115.366 235.346C115.011 235.113 114.419 234.865 113.588 234.604C113.177 234.473 112.865 234.371 112.65 234.296C112.435 234.212 112.165 234.091 111.838 233.932C111.521 233.764 111.283 233.596 111.124 233.428C110.965 233.251 110.821 233.022 110.69 232.742C110.569 232.462 110.508 232.145 110.508 231.79C110.508 230.941 110.807 230.269 111.404 229.774C112.001 229.27 112.729 229.018 113.588 229.018C114.363 229.018 115.035 229.214 115.604 229.606C116.183 229.998 116.617 230.516 116.906 231.16L115.814 231.79C115.394 230.782 114.652 230.278 113.588 230.278C113.056 230.278 112.627 230.409 112.3 230.67C111.973 230.931 111.81 231.286 111.81 231.734C111.81 232.163 111.964 232.49 112.272 232.714C112.58 232.938 113.112 233.171 113.868 233.414C114.139 233.498 114.33 233.559 114.442 233.596C114.554 233.633 114.727 233.699 114.96 233.792C115.203 233.885 115.38 233.96 115.492 234.016C115.604 234.072 115.753 234.151 115.94 234.254C116.136 234.357 116.281 234.455 116.374 234.548C116.467 234.641 116.575 234.758 116.696 234.898C116.827 235.029 116.92 235.164 116.976 235.304C117.032 235.444 117.079 235.607 117.116 235.794C117.163 235.971 117.186 236.163 117.186 236.368C117.186 237.227 116.873 237.913 116.248 238.426C115.623 238.93 114.806 239.182 113.798 239.182ZM124.301 230.432H119.961V233.61H124.119V234.842H119.961V239H118.659V229.2H124.301V230.432ZM132.15 229.2V230.432H129.252V239H127.964V230.432H125.08V229.2H132.15Z" fill="#909090"/>
<path d="M282.475 229.2H283.595V239H282.307V230.6L280.221 231.216L279.899 230.096L282.475 229.2ZM288.474 233.022C289.398 233.022 290.177 233.297 290.812 233.848C291.456 234.389 291.778 235.141 291.778 236.102C291.778 237.054 291.451 237.805 290.798 238.356C290.144 238.907 289.351 239.182 288.418 239.182C287.671 239.182 287.004 239.005 286.416 238.65C285.828 238.286 285.417 237.763 285.184 237.082L286.29 236.452C286.42 236.928 286.672 237.292 287.046 237.544C287.419 237.787 287.876 237.908 288.418 237.908C289.034 237.908 289.533 237.749 289.916 237.432C290.298 237.115 290.49 236.671 290.49 236.102C290.49 235.533 290.298 235.089 289.916 234.772C289.533 234.445 289.043 234.282 288.446 234.282H285.674L286.038 229.2H291.4V230.418H287.214L287.046 233.022H288.474ZM299.245 237.796C298.583 238.72 297.654 239.182 296.459 239.182C295.265 239.182 294.336 238.72 293.673 237.796C293.011 236.872 292.679 235.64 292.679 234.1C292.679 232.56 293.011 231.328 293.673 230.404C294.336 229.48 295.265 229.018 296.459 229.018C297.654 229.018 298.583 229.48 299.245 230.404C299.908 231.328 300.239 232.56 300.239 234.1C300.239 235.64 299.908 236.872 299.245 237.796ZM294.625 236.914C295.055 237.577 295.666 237.908 296.459 237.908C297.253 237.908 297.864 237.577 298.293 236.914C298.732 236.251 298.951 235.313 298.951 234.1C298.951 232.887 298.732 231.949 298.293 231.286C297.864 230.614 297.253 230.278 296.459 230.278C295.666 230.278 295.055 230.609 294.625 231.272C294.196 231.935 293.981 232.877 293.981 234.1C293.981 235.313 294.196 236.251 294.625 236.914Z" fill="#909090"/>
<path d="M460.349 236.382C460.349 237.147 460.097 237.777 459.593 238.272C459.089 238.767 458.436 239.061 457.633 239.154V240.4H456.751V239.168C455.986 239.112 455.332 238.902 454.791 238.538C454.259 238.174 453.872 237.684 453.629 237.068L454.749 236.424C455.066 237.292 455.734 237.782 456.751 237.894V234.506C456.331 234.357 455.99 234.221 455.729 234.1C455.477 233.969 455.211 233.797 454.931 233.582C454.651 233.367 454.441 233.106 454.301 232.798C454.17 232.481 454.105 232.117 454.105 231.706C454.105 230.95 454.357 230.334 454.861 229.858C455.365 229.382 455.995 229.107 456.751 229.032V227.8H457.633V229.046C458.193 229.121 458.692 229.317 459.131 229.634C459.57 229.951 459.91 230.381 460.153 230.922L459.061 231.538C458.79 230.857 458.314 230.451 457.633 230.32V233.54C458.062 233.699 458.403 233.839 458.655 233.96C458.907 234.081 459.182 234.254 459.481 234.478C459.78 234.693 459.999 234.959 460.139 235.276C460.279 235.593 460.349 235.962 460.349 236.382ZM455.393 231.706C455.393 232.061 455.5 232.35 455.715 232.574C455.93 232.798 456.275 233.008 456.751 233.204V230.306C456.34 230.362 456.009 230.516 455.757 230.768C455.514 231.011 455.393 231.323 455.393 231.706ZM457.633 237.866C458.081 237.801 458.426 237.637 458.669 237.376C458.921 237.105 459.047 236.779 459.047 236.396C459.047 236.013 458.93 235.71 458.697 235.486C458.473 235.253 458.118 235.033 457.633 234.828V237.866ZM465.26 233.218C466.007 233.358 466.618 233.68 467.094 234.184C467.57 234.688 467.808 235.327 467.808 236.102C467.808 237.054 467.482 237.805 466.828 238.356C466.175 238.907 465.382 239.182 464.448 239.182C463.702 239.182 463.039 239.014 462.46 238.678C461.882 238.333 461.471 237.838 461.228 237.194L462.32 236.55C462.61 237.455 463.319 237.908 464.448 237.908C465.055 237.908 465.55 237.749 465.932 237.432C466.315 237.115 466.506 236.671 466.506 236.102C466.506 235.533 466.315 235.089 465.932 234.772C465.55 234.445 465.055 234.282 464.448 234.282H464.112L463.594 233.484L465.862 230.418H461.508V229.2H467.388V230.348L465.26 233.218ZM475.524 237.796C474.862 238.72 473.933 239.182 472.738 239.182C471.544 239.182 470.615 238.72 469.952 237.796C469.29 236.872 468.958 235.64 468.958 234.1C468.958 232.56 469.29 231.328 469.952 230.404C470.615 229.48 471.544 229.018 472.738 229.018C473.933 229.018 474.862 229.48 475.524 230.404C476.187 231.328 476.518 232.56 476.518 234.1C476.518 235.64 476.187 236.872 475.524 237.796ZM470.904 236.914C471.334 237.577 471.945 237.908 472.738 237.908C473.532 237.908 474.143 237.577 474.572 236.914C475.011 236.251 475.23 235.313 475.23 234.1C475.23 232.887 475.011 231.949 474.572 231.286C474.143 230.614 473.532 230.278 472.738 230.278C471.945 230.278 471.334 230.609 470.904 231.272C470.475 231.935 470.26 232.877 470.26 234.1C470.26 235.313 470.475 236.251 470.904 236.914Z" fill="#909090"/>
<path d="M635.883 236.382C635.883 237.147 635.631 237.777 635.127 238.272C634.623 238.767 633.969 239.061 633.167 239.154V240.4H632.285V239.168C631.519 239.112 630.866 238.902 630.325 238.538C629.793 238.174 629.405 237.684 629.163 237.068L630.283 236.424C630.6 237.292 631.267 237.782 632.285 237.894V234.506C631.865 234.357 631.524 234.221 631.263 234.1C631.011 233.969 630.745 233.797 630.465 233.582C630.185 233.367 629.975 233.106 629.835 232.798C629.704 232.481 629.639 232.117 629.639 231.706C629.639 230.95 629.891 230.334 630.395 229.858C630.899 229.382 631.529 229.107 632.285 229.032V227.8H633.167V229.046C633.727 229.121 634.226 229.317 634.665 229.634C635.103 229.951 635.444 230.381 635.687 230.922L634.595 231.538C634.324 230.857 633.848 230.451 633.167 230.32V233.54C633.596 233.699 633.937 233.839 634.189 233.96C634.441 234.081 634.716 234.254 635.015 234.478C635.313 234.693 635.533 234.959 635.673 235.276C635.813 235.593 635.883 235.962 635.883 236.382ZM630.927 231.706C630.927 232.061 631.034 232.35 631.249 232.574C631.463 232.798 631.809 233.008 632.285 233.204V230.306C631.874 230.362 631.543 230.516 631.291 230.768C631.048 231.011 630.927 231.323 630.927 231.706ZM633.167 237.866C633.615 237.801 633.96 237.637 634.203 237.376C634.455 237.105 634.581 236.779 634.581 236.396C634.581 236.013 634.464 235.71 634.231 235.486C634.007 235.253 633.652 235.033 633.167 234.828V237.866ZM640.794 233.218C641.541 233.358 642.152 233.68 642.628 234.184C643.104 234.688 643.342 235.327 643.342 236.102C643.342 237.054 643.015 237.805 642.362 238.356C641.709 238.907 640.915 239.182 639.982 239.182C639.235 239.182 638.573 239.014 637.994 238.678C637.415 238.333 637.005 237.838 636.762 237.194L637.854 236.55C638.143 237.455 638.853 237.908 639.982 237.908C640.589 237.908 641.083 237.749 641.466 237.432C641.849 237.115 642.04 236.671 642.04 236.102C642.04 235.533 641.849 235.089 641.466 234.772C641.083 234.445 640.589 234.282 639.982 234.282H639.646L639.128 233.484L641.396 230.418H637.042V229.2H642.922V230.348L640.794 233.218ZM647.505 233.022C648.429 233.022 649.209 233.297 649.843 233.848C650.487 234.389 650.809 235.141 650.809 236.102C650.809 237.054 650.483 237.805 649.829 238.356C649.176 238.907 648.383 239.182 647.449 239.182C646.703 239.182 646.035 239.005 645.447 238.65C644.859 238.286 644.449 237.763 644.215 237.082L645.321 236.452C645.452 236.928 645.704 237.292 646.077 237.544C646.451 237.787 646.908 237.908 647.449 237.908C648.065 237.908 648.565 237.749 648.947 237.432C649.33 237.115 649.521 236.671 649.521 236.102C649.521 235.533 649.33 235.089 648.947 234.772C648.565 234.445 648.075 234.282 647.477 234.282H644.705L645.069 229.2H650.431V230.418H646.245L646.077 233.022H647.505Z" fill="#909090"/>
<path d="M801.06 236.382C801.06 237.147 800.808 237.777 800.304 238.272C799.8 238.767 799.147 239.061 798.344 239.154V240.4H797.462V239.168C796.697 239.112 796.044 238.902 795.502 238.538C794.97 238.174 794.583 237.684 794.34 237.068L795.46 236.424C795.778 237.292 796.445 237.782 797.462 237.894V234.506C797.042 234.357 796.702 234.221 796.44 234.1C796.188 233.969 795.922 233.797 795.642 233.582C795.362 233.367 795.152 233.106 795.012 232.798C794.882 232.481 794.816 232.117 794.816 231.706C794.816 230.95 795.068 230.334 795.572 229.858C796.076 229.382 796.706 229.107 797.462 229.032V227.8H798.344V229.046C798.904 229.121 799.404 229.317 799.842 229.634C800.281 229.951 800.622 230.381 800.864 230.922L799.772 231.538C799.502 230.857 799.026 230.451 798.344 230.32V233.54C798.774 233.699 799.114 233.839 799.366 233.96C799.618 234.081 799.894 234.254 800.192 234.478C800.491 234.693 800.71 234.959 800.85 235.276C800.99 235.593 801.06 235.962 801.06 236.382ZM796.104 231.706C796.104 232.061 796.212 232.35 796.426 232.574C796.641 232.798 796.986 233.008 797.462 233.204V230.306C797.052 230.362 796.72 230.516 796.468 230.768C796.226 231.011 796.104 231.323 796.104 231.706ZM798.344 237.866C798.792 237.801 799.138 237.637 799.38 237.376C799.632 237.105 799.758 236.779 799.758 236.396C799.758 236.013 799.642 235.71 799.408 235.486C799.184 235.253 798.83 235.033 798.344 234.828V237.866ZM805.328 233.022C806.252 233.022 807.031 233.297 807.666 233.848C808.31 234.389 808.632 235.141 808.632 236.102C808.632 237.054 808.305 237.805 807.652 238.356C806.998 238.907 806.205 239.182 805.272 239.182C804.525 239.182 803.858 239.005 803.27 238.65C802.682 238.286 802.271 237.763 802.038 237.082L803.144 236.452C803.274 236.928 803.526 237.292 803.9 237.544C804.273 237.787 804.73 237.908 805.272 237.908C805.888 237.908 806.387 237.749 806.77 237.432C807.152 237.115 807.344 236.671 807.344 236.102C807.344 235.533 807.152 235.089 806.77 234.772C806.387 234.445 805.897 234.282 805.3 234.282H802.528L802.892 229.2H808.254V230.418H804.068L803.9 233.022H805.328ZM811.62 237.558L810.71 240.96H809.66L810.22 237.558H811.62ZM812.921 239V237.936L816.379 234.408C817.303 233.484 817.765 232.691 817.765 232.028C817.765 231.477 817.597 231.048 817.261 230.74C816.925 230.432 816.514 230.278 816.029 230.278C815.105 230.278 814.433 230.717 814.013 231.594L812.921 230.95C813.229 230.315 813.654 229.835 814.195 229.508C814.746 229.181 815.352 229.018 816.015 229.018C816.836 229.018 817.55 229.289 818.157 229.83C818.764 230.371 819.067 231.099 819.067 232.014C819.067 233.003 818.484 234.081 817.317 235.248L814.811 237.74H819.249V239H812.921ZM823.47 233.022C824.394 233.022 825.174 233.297 825.808 233.848C826.452 234.389 826.774 235.141 826.774 236.102C826.774 237.054 826.448 237.805 825.794 238.356C825.141 238.907 824.348 239.182 823.414 239.182C822.668 239.182 822 239.005 821.412 238.65C820.824 238.286 820.414 237.763 820.18 237.082L821.286 236.452C821.417 236.928 821.669 237.292 822.042 237.544C822.416 237.787 822.873 237.908 823.414 237.908C824.03 237.908 824.53 237.749 824.912 237.432C825.295 237.115 825.486 236.671 825.486 236.102C825.486 235.533 825.295 235.089 824.912 234.772C824.53 234.445 824.04 234.282 823.442 234.282H820.67L821.034 229.2H826.396V230.418H822.21L822.042 233.022H823.47ZM834.242 237.796C833.579 238.72 832.65 239.182 831.456 239.182C830.261 239.182 829.332 238.72 828.67 237.796C828.007 236.872 827.676 235.64 827.676 234.1C827.676 232.56 828.007 231.328 828.67 230.404C829.332 229.48 830.261 229.018 831.456 229.018C832.65 229.018 833.579 229.48 834.242 230.404C834.904 231.328 835.236 232.56 835.236 234.1C835.236 235.64 834.904 236.872 834.242 237.796ZM829.622 236.914C830.051 237.577 830.662 237.908 831.456 237.908C832.249 237.908 832.86 237.577 833.29 236.914C833.728 236.251 833.948 235.313 833.948 234.1C833.948 232.887 833.728 231.949 833.29 231.286C832.86 230.614 832.249 230.278 831.456 230.278C830.662 230.278 830.051 230.609 829.622 231.272C829.192 231.935 828.978 232.877 828.978 234.1C828.978 235.313 829.192 236.251 829.622 236.914Z" fill="#909090"/>
<path d="M976.169 233.512V234.674H973.733V237.11H972.571V234.674H970.149V233.512H972.571V231.09H973.733V233.512H976.169ZM976.097 229.2H982.215V230.362L978.645 239H977.287L980.829 230.432H976.097V229.2ZM982.296 239.154C982.044 239.154 981.83 239.065 981.652 238.888C981.475 238.711 981.386 238.496 981.386 238.244C981.386 237.992 981.475 237.777 981.652 237.6C981.83 237.423 982.044 237.334 982.296 237.334C982.558 237.334 982.772 237.423 982.94 237.6C983.118 237.777 983.206 237.992 983.206 238.244C983.206 238.496 983.118 238.711 982.94 238.888C982.772 239.065 982.558 239.154 982.296 239.154ZM987.787 233.022C988.711 233.022 989.49 233.297 990.125 233.848C990.769 234.389 991.091 235.141 991.091 236.102C991.091 237.054 990.764 237.805 990.111 238.356C989.457 238.907 988.664 239.182 987.731 239.182C986.984 239.182 986.317 239.005 985.729 238.65C985.141 238.286 984.73 237.763 984.497 237.082L985.603 236.452C985.733 236.928 985.985 237.292 986.359 237.544C986.732 237.787 987.189 237.908 987.731 237.908C988.347 237.908 988.846 237.749 989.229 237.432C989.611 237.115 989.803 236.671 989.803 236.102C989.803 235.533 989.611 235.089 989.229 234.772C988.846 234.445 988.356 234.282 987.759 234.282H984.987L985.351 229.2H990.713V230.418H986.527L986.359 233.022H987.787ZM998.558 237.796C997.896 238.72 996.967 239.182 995.772 239.182C994.578 239.182 993.649 238.72 992.986 237.796C992.324 236.872 991.992 235.64 991.992 234.1C991.992 232.56 992.324 231.328 992.986 230.404C993.649 229.48 994.578 229.018 995.772 229.018C996.967 229.018 997.896 229.48 998.558 230.404C999.221 231.328 999.552 232.56 999.552 234.1C999.552 235.64 999.221 236.872 998.558 237.796ZM993.938 236.914C994.368 237.577 994.979 237.908 995.772 237.908C996.566 237.908 997.177 237.577 997.606 236.914C998.045 236.251 998.264 235.313 998.264 234.1C998.264 232.887 998.045 231.949 997.606 231.286C997.177 230.614 996.566 230.278 995.772 230.278C994.979 230.278 994.368 230.609 993.938 231.272C993.509 231.935 993.294 232.877 993.294 234.1C993.294 235.313 993.509 236.251 993.938 236.914ZM1002.89 233.358C1002.25 233.358 1001.73 233.148 1001.31 232.728C1000.89 232.308 1000.68 231.795 1000.68 231.188C1000.68 230.591 1000.89 230.082 1001.31 229.662C1001.74 229.233 1002.26 229.018 1002.89 229.018C1003.52 229.018 1004.05 229.228 1004.47 229.648C1004.89 230.068 1005.1 230.581 1005.1 231.188C1005.1 231.795 1004.89 232.308 1004.47 232.728C1004.06 233.148 1003.53 233.358 1002.89 233.358ZM1002.08 232.014C1002.29 232.229 1002.56 232.336 1002.89 232.336C1003.22 232.336 1003.48 232.224 1003.69 232C1003.9 231.776 1004.01 231.505 1004.01 231.188C1004.01 230.871 1003.9 230.605 1003.69 230.39C1003.48 230.166 1003.22 230.054 1002.89 230.054C1002.56 230.054 1002.29 230.166 1002.08 230.39C1001.87 230.605 1001.77 230.871 1001.77 231.188C1001.77 231.515 1001.87 231.79 1002.08 232.014ZM1001.34 237.614L1007.85 230.334L1008.53 230.712L1002.01 238.006L1001.34 237.614ZM1008.7 238.538C1008.28 238.958 1007.75 239.168 1007.12 239.168C1006.48 239.168 1005.96 238.958 1005.54 238.538C1005.12 238.118 1004.91 237.605 1004.91 236.998C1004.91 236.391 1005.12 235.878 1005.54 235.458C1005.96 235.038 1006.48 234.828 1007.12 234.828C1007.75 234.828 1008.28 235.038 1008.7 235.458C1009.12 235.878 1009.33 236.391 1009.33 236.998C1009.33 237.605 1009.12 238.118 1008.7 238.538ZM1006.31 237.81C1006.52 238.025 1006.79 238.132 1007.12 238.132C1007.44 238.132 1007.71 238.025 1007.92 237.81C1008.13 237.586 1008.24 237.315 1008.24 236.998C1008.24 236.681 1008.13 236.415 1007.92 236.2C1007.71 235.976 1007.44 235.864 1007.12 235.864C1006.79 235.864 1006.52 235.976 1006.31 236.2C1006.1 236.415 1006 236.681 1006 236.998C1006 237.315 1006.1 237.586 1006.31 237.81Z" fill="#05B353"/>
<g clip-path="url(#clip2_1639_1594)">
<path d="M1149.32 238.75H1159.82V239.5H1149.32V238.75Z" fill="#909090"/>
<path d="M1158.1 232.375C1158.4 232.075 1158.4 231.625 1158.1 231.325L1156.75 229.975C1156.45 229.675 1156 229.675 1155.7 229.975L1150.07 235.6V238H1152.47L1158.1 232.375ZM1156.22 230.5L1157.57 231.85L1156.45 232.975L1155.1 231.625L1156.22 230.5ZM1150.82 237.25V235.9L1154.57 232.15L1155.92 233.5L1152.17 237.25H1150.82Z" fill="#909090"/>
</g>
<g clip-path="url(#clip3_1639_1594)">
<path d="M1173.07 233.5H1173.82V238H1173.07V233.5Z" fill="#BB0404"/>
<path d="M1175.32 233.5H1176.07V238H1175.32V233.5Z" fill="#BB0404"/>
<path d="M1170.07 231.25V232H1170.82V239.5C1170.82 239.699 1170.9 239.89 1171.04 240.03C1171.18 240.171 1171.37 240.25 1171.57 240.25H1177.57C1177.77 240.25 1177.96 240.171 1178.1 240.03C1178.24 239.89 1178.32 239.699 1178.32 239.5V232H1179.07V231.25H1170.07ZM1171.57 239.5V232H1177.57V239.5H1171.57Z" fill="#BB0404"/>
<path d="M1173.07 229.75H1176.07V230.5H1173.07V229.75Z" fill="#BB0404"/>
</g>
<rect x="24.5" y="266.5" width="1231" height="45" rx="7.5" stroke="white" stroke-opacity="0.1"/>
<path d="M100.28 288.142V288.73C100.28 290.009 99.8416 291.073 98.9643 291.922C98.0869 292.762 96.9249 293.182 95.4783 293.182C93.9849 293.182 92.7483 292.692 91.7683 291.712C90.7976 290.723 90.3123 289.519 90.3123 288.1C90.3123 286.681 90.7976 285.482 91.7683 284.502C92.7483 283.513 93.9756 283.018 95.4503 283.018C96.3556 283.018 97.1863 283.237 97.9423 283.676C98.6983 284.105 99.2816 284.675 99.6923 285.384L98.5723 286.042C98.2923 285.51 97.8676 285.085 97.2983 284.768C96.7383 284.441 96.1176 284.278 95.4363 284.278C94.3163 284.278 93.3969 284.647 92.6783 285.384C91.9596 286.112 91.6003 287.017 91.6003 288.1C91.6003 289.183 91.9596 290.088 92.6783 290.816C93.4063 291.544 94.3443 291.908 95.4923 291.908C96.4723 291.908 97.2656 291.67 97.8723 291.194C98.4789 290.709 98.8476 290.083 98.9783 289.318H95.3803V288.142H100.28ZM110.011 291.698C109.031 292.687 107.832 293.182 106.413 293.182C104.995 293.182 103.795 292.687 102.815 291.698C101.835 290.709 101.345 289.509 101.345 288.1C101.345 286.681 101.835 285.482 102.815 284.502C103.795 283.513 104.995 283.018 106.413 283.018C107.832 283.018 109.031 283.513 110.011 284.502C111.001 285.482 111.495 286.681 111.495 288.1C111.495 289.509 111.001 290.709 110.011 291.698ZM103.711 290.816C104.439 291.544 105.34 291.908 106.413 291.908C107.487 291.908 108.383 291.544 109.101 290.816C109.829 290.079 110.193 289.173 110.193 288.1C110.193 287.017 109.829 286.112 109.101 285.384C108.383 284.647 107.487 284.278 106.413 284.278C105.34 284.278 104.439 284.647 103.711 285.384C102.993 286.112 102.633 287.017 102.633 288.1C102.633 289.173 102.993 290.079 103.711 290.816ZM121.209 291.698C120.229 292.687 119.029 293.182 117.611 293.182C116.192 293.182 114.993 292.687 114.013 291.698C113.033 290.709 112.543 289.509 112.543 288.1C112.543 286.681 113.033 285.482 114.013 284.502C114.993 283.513 116.192 283.018 117.611 283.018C119.029 283.018 120.229 283.513 121.209 284.502C122.198 285.482 122.693 286.681 122.693 288.1C122.693 289.509 122.198 290.709 121.209 291.698ZM114.909 290.816C115.637 291.544 116.537 291.908 117.611 291.908C118.684 291.908 119.58 291.544 120.299 290.816C121.027 290.079 121.391 289.173 121.391 288.1C121.391 287.017 121.027 286.112 120.299 285.384C119.58 284.647 118.684 284.278 117.611 284.278C116.537 284.278 115.637 284.647 114.909 285.384C114.19 286.112 113.831 287.017 113.831 288.1C113.831 289.173 114.19 290.079 114.909 290.816ZM133.708 288.142V288.73C133.708 290.009 133.269 291.073 132.392 291.922C131.515 292.762 130.353 293.182 128.906 293.182C127.413 293.182 126.176 292.692 125.196 291.712C124.225 290.723 123.74 289.519 123.74 288.1C123.74 286.681 124.225 285.482 125.196 284.502C126.176 283.513 127.403 283.018 128.878 283.018C129.783 283.018 130.614 283.237 131.37 283.676C132.126 284.105 132.709 284.675 133.12 285.384L132 286.042C131.72 285.51 131.295 285.085 130.726 284.768C130.166 284.441 129.545 284.278 128.864 284.278C127.744 284.278 126.825 284.647 126.106 285.384C125.387 286.112 125.028 287.017 125.028 288.1C125.028 289.183 125.387 290.088 126.106 290.816C126.834 291.544 127.772 291.908 128.92 291.908C129.9 291.908 130.693 291.67 131.3 291.194C131.907 290.709 132.275 290.083 132.406 289.318H128.808V288.142H133.708ZM136.593 291.768H140.821V293H135.291V283.2H136.593V291.768Z" fill="#909090"/>
<path d="M278.348 293V291.936L281.806 288.408C282.73 287.484 283.192 286.691 283.192 286.028C283.192 285.477 283.024 285.048 282.688 284.74C282.352 284.432 281.941 284.278 281.456 284.278C280.532 284.278 279.86 284.717 279.44 285.594L278.348 284.95C278.656 284.315 279.081 283.835 279.622 283.508C280.173 283.181 280.779 283.018 281.442 283.018C282.263 283.018 282.977 283.289 283.584 283.83C284.191 284.371 284.494 285.099 284.494 286.014C284.494 287.003 283.911 288.081 282.744 289.248L280.238 291.74H284.676V293H278.348ZM292.286 291.796C291.624 292.72 290.695 293.182 289.5 293.182C288.306 293.182 287.377 292.72 286.714 291.796C286.052 290.872 285.72 289.64 285.72 288.1C285.72 286.56 286.052 285.328 286.714 284.404C287.377 283.48 288.306 283.018 289.5 283.018C290.695 283.018 291.624 283.48 292.286 284.404C292.949 285.328 293.28 286.56 293.28 288.1C293.28 289.64 292.949 290.872 292.286 291.796ZM287.666 290.914C288.096 291.577 288.707 291.908 289.5 291.908C290.294 291.908 290.905 291.577 291.334 290.914C291.773 290.251 291.992 289.313 291.992 288.1C291.992 286.887 291.773 285.949 291.334 285.286C290.905 284.614 290.294 284.278 289.5 284.278C288.707 284.278 288.096 284.609 287.666 285.272C287.237 285.935 287.022 286.877 287.022 288.1C287.022 289.313 287.237 290.251 287.666 290.914ZM301.105 291.796C300.442 292.72 299.513 293.182 298.319 293.182C297.124 293.182 296.195 292.72 295.533 291.796C294.87 290.872 294.539 289.64 294.539 288.1C294.539 286.56 294.87 285.328 295.533 284.404C296.195 283.48 297.124 283.018 298.319 283.018C299.513 283.018 300.442 283.48 301.105 284.404C301.767 285.328 302.099 286.56 302.099 288.1C302.099 289.64 301.767 290.872 301.105 291.796ZM296.485 290.914C296.914 291.577 297.525 291.908 298.319 291.908C299.112 291.908 299.723 291.577 300.153 290.914C300.591 290.251 300.811 289.313 300.811 288.1C300.811 286.887 300.591 285.949 300.153 285.286C299.723 284.614 299.112 284.278 298.319 284.278C297.525 284.278 296.914 284.609 296.485 285.272C296.055 285.935 295.841 286.877 295.841 288.1C295.841 289.313 296.055 290.251 296.485 290.914Z" fill="#909090"/>
<path d="M460.035 290.382C460.035 291.147 459.783 291.777 459.279 292.272C458.775 292.767 458.121 293.061 457.319 293.154V294.4H456.437V293.168C455.671 293.112 455.018 292.902 454.477 292.538C453.945 292.174 453.557 291.684 453.315 291.068L454.435 290.424C454.752 291.292 455.419 291.782 456.437 291.894V288.506C456.017 288.357 455.676 288.221 455.415 288.1C455.163 287.969 454.897 287.797 454.617 287.582C454.337 287.367 454.127 287.106 453.987 286.798C453.856 286.481 453.791 286.117 453.791 285.706C453.791 284.95 454.043 284.334 454.547 283.858C455.051 283.382 455.681 283.107 456.437 283.032V281.8H457.319V283.046C457.879 283.121 458.378 283.317 458.817 283.634C459.255 283.951 459.596 284.381 459.839 284.922L458.747 285.538C458.476 284.857 458 284.451 457.319 284.32V287.54C457.748 287.699 458.089 287.839 458.341 287.96C458.593 288.081 458.868 288.254 459.167 288.478C459.465 288.693 459.685 288.959 459.825 289.276C459.965 289.593 460.035 289.962 460.035 290.382ZM455.079 285.706C455.079 286.061 455.186 286.35 455.401 286.574C455.615 286.798 455.961 287.008 456.437 287.204V284.306C456.026 284.362 455.695 284.516 455.443 284.768C455.2 285.011 455.079 285.323 455.079 285.706ZM457.319 291.866C457.767 291.801 458.112 291.637 458.355 291.376C458.607 291.105 458.733 290.779 458.733 290.396C458.733 290.013 458.616 289.71 458.383 289.486C458.159 289.253 457.804 289.033 457.319 288.828V291.866ZM468.348 289.92V291.138H467.158V293H465.856V291.138H460.858V289.92L464.372 283.2H465.772L462.258 289.92H465.856V287.148H467.158V289.92H468.348ZM475.839 291.796C475.176 292.72 474.248 293.182 473.053 293.182C471.858 293.182 470.93 292.72 470.267 291.796C469.604 290.872 469.273 289.64 469.273 288.1C469.273 286.56 469.604 285.328 470.267 284.404C470.93 283.48 471.858 283.018 473.053 283.018C474.248 283.018 475.176 283.48 475.839 284.404C476.502 285.328 476.833 286.56 476.833 288.1C476.833 289.64 476.502 290.872 475.839 291.796ZM471.219 290.914C471.648 291.577 472.26 291.908 473.053 291.908C473.846 291.908 474.458 291.577 474.887 290.914C475.326 290.251 475.545 289.313 475.545 288.1C475.545 286.887 475.326 285.949 474.887 285.286C474.458 284.614 473.846 284.278 473.053 284.278C472.26 284.278 471.648 284.609 471.219 285.272C470.79 285.935 470.575 286.877 470.575 288.1C470.575 289.313 470.79 290.251 471.219 290.914Z" fill="#909090"/>
<path d="M635.5 290.382C635.5 291.147 635.248 291.777 634.744 292.272C634.24 292.767 633.587 293.061 632.784 293.154V294.4H631.902V293.168C631.137 293.112 630.483 292.902 629.942 292.538C629.41 292.174 629.023 291.684 628.78 291.068L629.9 290.424C630.217 291.292 630.885 291.782 631.902 291.894V288.506C631.482 288.357 631.141 288.221 630.88 288.1C630.628 287.969 630.362 287.797 630.082 287.582C629.802 287.367 629.592 287.106 629.452 286.798C629.321 286.481 629.256 286.117 629.256 285.706C629.256 284.95 629.508 284.334 630.012 283.858C630.516 283.382 631.146 283.107 631.902 283.032V281.8H632.784V283.046C633.344 283.121 633.843 283.317 634.282 283.634C634.721 283.951 635.061 284.381 635.304 284.922L634.212 285.538C633.941 284.857 633.465 284.451 632.784 284.32V287.54C633.213 287.699 633.554 287.839 633.806 287.96C634.058 288.081 634.333 288.254 634.632 288.478C634.931 288.693 635.15 288.959 635.29 289.276C635.43 289.593 635.5 289.962 635.5 290.382ZM630.544 285.706C630.544 286.061 630.651 286.35 630.866 286.574C631.081 286.798 631.426 287.008 631.902 287.204V284.306C631.491 284.362 631.16 284.516 630.908 284.768C630.665 285.011 630.544 285.323 630.544 285.706ZM632.784 291.866C633.232 291.801 633.577 291.637 633.82 291.376C634.072 291.105 634.198 290.779 634.198 290.396C634.198 290.013 634.081 289.71 633.848 289.486C633.624 289.253 633.269 289.033 632.784 288.828V291.866ZM643.813 289.92V291.138H642.623V293H641.321V291.138H636.323V289.92L639.837 283.2H641.237L637.723 289.92H641.321V287.148H642.623V289.92H643.813ZM647.888 287.022C648.812 287.022 649.592 287.297 650.226 287.848C650.87 288.389 651.192 289.141 651.192 290.102C651.192 291.054 650.866 291.805 650.212 292.356C649.559 292.907 648.766 293.182 647.832 293.182C647.086 293.182 646.418 293.005 645.83 292.65C645.242 292.286 644.832 291.763 644.598 291.082L645.704 290.452C645.835 290.928 646.087 291.292 646.46 291.544C646.834 291.787 647.291 291.908 647.832 291.908C648.448 291.908 648.948 291.749 649.33 291.432C649.713 291.115 649.904 290.671 649.904 290.102C649.904 289.533 649.713 289.089 649.33 288.772C648.948 288.445 648.458 288.282 647.86 288.282H645.088L645.452 283.2H650.814V284.418H646.628L646.46 287.022H647.888Z" fill="#909090"/>
<path d="M800.643 290.382C800.643 291.147 800.391 291.777 799.887 292.272C799.383 292.767 798.73 293.061 797.927 293.154V294.4H797.045V293.168C796.28 293.112 795.627 292.902 795.085 292.538C794.553 292.174 794.166 291.684 793.923 291.068L795.043 290.424C795.361 291.292 796.028 291.782 797.045 291.894V288.506C796.625 288.357 796.285 288.221 796.023 288.1C795.771 287.969 795.505 287.797 795.225 287.582C794.945 287.367 794.735 287.106 794.595 286.798C794.465 286.481 794.399 286.117 794.399 285.706C794.399 284.95 794.651 284.334 795.155 283.858C795.659 283.382 796.289 283.107 797.045 283.032V281.8H797.927V283.046C798.487 283.121 798.987 283.317 799.425 283.634C799.864 283.951 800.205 284.381 800.447 284.922L799.355 285.538C799.085 284.857 798.609 284.451 797.927 284.32V287.54C798.357 287.699 798.697 287.839 798.949 287.96C799.201 288.081 799.477 288.254 799.775 288.478C800.074 288.693 800.293 288.959 800.433 289.276C800.573 289.593 800.643 289.962 800.643 290.382ZM795.687 285.706C795.687 286.061 795.795 286.35 796.009 286.574C796.224 286.798 796.569 287.008 797.045 287.204V284.306C796.635 284.362 796.303 284.516 796.051 284.768C795.809 285.011 795.687 285.323 795.687 285.706ZM797.927 291.866C798.375 291.801 798.721 291.637 798.963 291.376C799.215 291.105 799.341 290.779 799.341 290.396C799.341 290.013 799.225 289.71 798.991 289.486C798.767 289.253 798.413 289.033 797.927 288.828V291.866ZM808.271 286.308C808.271 287.064 808.07 287.722 807.669 288.282H807.683L804.519 293H803.049L805.373 289.57C805.167 289.589 805.009 289.598 804.897 289.598C803.907 289.598 803.095 289.295 802.461 288.688C801.835 288.072 801.523 287.279 801.523 286.308C801.523 285.337 801.835 284.549 802.461 283.942C803.095 283.326 803.907 283.018 804.897 283.018C805.886 283.018 806.693 283.326 807.319 283.942C807.953 284.549 808.271 285.337 808.271 286.308ZM803.385 284.824C803.002 285.197 802.811 285.692 802.811 286.308C802.811 286.924 803.002 287.423 803.385 287.806C803.777 288.179 804.281 288.366 804.897 288.366C805.513 288.366 806.012 288.179 806.395 287.806C806.787 287.423 806.983 286.924 806.983 286.308C806.983 285.692 806.791 285.197 806.409 284.824C806.026 284.451 805.522 284.264 804.897 284.264C804.281 284.264 803.777 284.451 803.385 284.824ZM809.453 291.558L808.543 294.96H807.493L808.053 291.558H809.453ZM817.022 291.796C816.359 292.72 815.431 293.182 814.236 293.182C813.041 293.182 812.113 292.72 811.45 291.796C810.787 290.872 810.456 289.64 810.456 288.1C810.456 286.56 810.787 285.328 811.45 284.404C812.113 283.48 813.041 283.018 814.236 283.018C815.431 283.018 816.359 283.48 817.022 284.404C817.685 285.328 818.016 286.56 818.016 288.1C818.016 289.64 817.685 290.872 817.022 291.796ZM812.402 290.914C812.831 291.577 813.443 291.908 814.236 291.908C815.029 291.908 815.641 291.577 816.07 290.914C816.509 290.251 816.728 289.313 816.728 288.1C816.728 286.887 816.509 285.949 816.07 285.286C815.641 284.614 815.029 284.278 814.236 284.278C813.443 284.278 812.831 284.609 812.402 285.272C811.973 285.935 811.758 286.877 811.758 288.1C811.758 289.313 811.973 290.251 812.402 290.914ZM825.84 291.796C825.178 292.72 824.249 293.182 823.054 293.182C821.86 293.182 820.931 292.72 820.268 291.796C819.606 290.872 819.274 289.64 819.274 288.1C819.274 286.56 819.606 285.328 820.268 284.404C820.931 283.48 821.86 283.018 823.054 283.018C824.249 283.018 825.178 283.48 825.84 284.404C826.503 285.328 826.834 286.56 826.834 288.1C826.834 289.64 826.503 290.872 825.84 291.796ZM821.22 290.914C821.65 291.577 822.261 291.908 823.054 291.908C823.848 291.908 824.459 291.577 824.888 290.914C825.327 290.251 825.546 289.313 825.546 288.1C825.546 286.887 825.327 285.949 824.888 285.286C824.459 284.614 823.848 284.278 823.054 284.278C822.261 284.278 821.65 284.609 821.22 285.272C820.791 285.935 820.576 286.877 820.576 288.1C820.576 289.313 820.791 290.251 821.22 290.914ZM834.659 291.796C833.996 292.72 833.067 293.182 831.873 293.182C830.678 293.182 829.749 292.72 829.087 291.796C828.424 290.872 828.093 289.64 828.093 288.1C828.093 286.56 828.424 285.328 829.087 284.404C829.749 283.48 830.678 283.018 831.873 283.018C833.067 283.018 833.996 283.48 834.659 284.404C835.321 285.328 835.653 286.56 835.653 288.1C835.653 289.64 835.321 290.872 834.659 291.796ZM830.039 290.914C830.468 291.577 831.079 291.908 831.873 291.908C832.666 291.908 833.277 291.577 833.707 290.914C834.145 290.251 834.365 289.313 834.365 288.1C834.365 286.887 834.145 285.949 833.707 285.286C833.277 284.614 832.666 284.278 831.873 284.278C831.079 284.278 830.468 284.609 830.039 285.272C829.609 285.935 829.395 286.877 829.395 288.1C829.395 289.313 829.609 290.251 830.039 290.914Z" fill="#909090"/>
<path d="M971.801 287.512V288.674H969.365V291.11H968.203V288.674H965.781V287.512H968.203V285.09H969.365V287.512H971.801ZM975.37 283.2H976.49V293H975.202V284.6L973.116 285.216L972.794 284.096L975.37 283.2ZM978.092 293V291.936L981.55 288.408C982.474 287.484 982.936 286.691 982.936 286.028C982.936 285.477 982.768 285.048 982.432 284.74C982.096 284.432 981.685 284.278 981.2 284.278C980.276 284.278 979.604 284.717 979.184 285.594L978.092 284.95C978.4 284.315 978.824 283.835 979.366 283.508C979.916 283.181 980.523 283.018 981.186 283.018C982.007 283.018 982.721 283.289 983.328 283.83C983.934 284.371 984.238 285.099 984.238 286.014C984.238 287.003 983.654 288.081 982.488 289.248L979.982 291.74H984.42V293H978.092ZM986.665 293.154C986.413 293.154 986.198 293.065 986.021 292.888C985.843 292.711 985.755 292.496 985.755 292.244C985.755 291.992 985.843 291.777 986.021 291.6C986.198 291.423 986.413 291.334 986.665 291.334C986.926 291.334 987.141 291.423 987.309 291.6C987.486 291.777 987.575 291.992 987.575 292.244C987.575 292.496 987.486 292.711 987.309 292.888C987.141 293.065 986.926 293.154 986.665 293.154ZM992.155 287.022C993.079 287.022 993.858 287.297 994.493 287.848C995.137 288.389 995.459 289.141 995.459 290.102C995.459 291.054 995.132 291.805 994.479 292.356C993.826 292.907 993.032 293.182 992.099 293.182C991.352 293.182 990.685 293.005 990.097 292.65C989.509 292.286 989.098 291.763 988.865 291.082L989.971 290.452C990.102 290.928 990.354 291.292 990.727 291.544C991.1 291.787 991.558 291.908 992.099 291.908C992.715 291.908 993.214 291.749 993.597 291.432C993.98 291.115 994.171 290.671 994.171 290.102C994.171 289.533 993.98 289.089 993.597 288.772C993.214 288.445 992.724 288.282 992.127 288.282H989.355L989.719 283.2H995.081V284.418H990.895L990.727 287.022H992.155ZM1002.93 291.796C1002.26 292.72 1001.33 293.182 1000.14 293.182C998.946 293.182 998.017 292.72 997.354 291.796C996.692 290.872 996.36 289.64 996.36 288.1C996.36 286.56 996.692 285.328 997.354 284.404C998.017 283.48 998.946 283.018 1000.14 283.018C1001.33 283.018 1002.26 283.48 1002.93 284.404C1003.59 285.328 1003.92 286.56 1003.92 288.1C1003.92 289.64 1003.59 290.872 1002.93 291.796ZM998.306 290.914C998.736 291.577 999.347 291.908 1000.14 291.908C1000.93 291.908 1001.54 291.577 1001.97 290.914C1002.41 290.251 1002.63 289.313 1002.63 288.1C1002.63 286.887 1002.41 285.949 1001.97 285.286C1001.54 284.614 1000.93 284.278 1000.14 284.278C999.347 284.278 998.736 284.609 998.306 285.272C997.877 285.935 997.662 286.877 997.662 288.1C997.662 289.313 997.877 290.251 998.306 290.914ZM1007.26 287.358C1006.62 287.358 1006.1 287.148 1005.68 286.728C1005.26 286.308 1005.05 285.795 1005.05 285.188C1005.05 284.591 1005.26 284.082 1005.68 283.662C1006.1 283.233 1006.63 283.018 1007.26 283.018C1007.89 283.018 1008.42 283.228 1008.84 283.648C1009.26 284.068 1009.47 284.581 1009.47 285.188C1009.47 285.795 1009.26 286.308 1008.84 286.728C1008.43 287.148 1007.9 287.358 1007.26 287.358ZM1006.45 286.014C1006.66 286.229 1006.93 286.336 1007.26 286.336C1007.58 286.336 1007.85 286.224 1008.06 286C1008.27 285.776 1008.38 285.505 1008.38 285.188C1008.38 284.871 1008.27 284.605 1008.06 284.39C1007.85 284.166 1007.58 284.054 1007.26 284.054C1006.93 284.054 1006.66 284.166 1006.45 284.39C1006.24 284.605 1006.14 284.871 1006.14 285.188C1006.14 285.515 1006.24 285.79 1006.45 286.014ZM1005.7 291.614L1012.21 284.334L1012.9 284.712L1006.38 292.006L1005.7 291.614ZM1013.07 292.538C1012.65 292.958 1012.12 293.168 1011.49 293.168C1010.85 293.168 1010.32 292.958 1009.9 292.538C1009.48 292.118 1009.27 291.605 1009.27 290.998C1009.27 290.391 1009.48 289.878 1009.9 289.458C1010.32 289.038 1010.85 288.828 1011.49 288.828C1012.12 288.828 1012.65 289.038 1013.07 289.458C1013.49 289.878 1013.7 290.391 1013.7 290.998C1013.7 291.605 1013.49 292.118 1013.07 292.538ZM1010.67 291.81C1010.89 292.025 1011.16 292.132 1011.49 292.132C1011.81 292.132 1012.08 292.025 1012.28 291.81C1012.5 291.586 1012.61 291.315 1012.61 290.998C1012.61 290.681 1012.5 290.415 1012.28 290.2C1012.08 289.976 1011.81 289.864 1011.49 289.864C1011.16 289.864 1010.89 289.976 1010.67 290.2C1010.47 290.415 1010.37 290.681 1010.37 290.998C1010.37 291.315 1010.47 291.586 1010.67 291.81Z" fill="#05B353"/>
<g clip-path="url(#clip4_1639_1594)">
<path d="M1149.32 292.75H1159.82V293.5H1149.32V292.75Z" fill="#909090"/>
<path d="M1158.1 286.375C1158.4 286.075 1158.4 285.625 1158.1 285.325L1156.75 283.975C1156.45 283.675 1156 283.675 1155.7 283.975L1150.07 289.6V292H1152.47L1158.1 286.375ZM1156.22 284.5L1157.57 285.85L1156.45 286.975L1155.1 285.625L1156.22 284.5ZM1150.82 291.25V289.9L1154.57 286.15L1155.92 287.5L1152.17 291.25H1150.82Z" fill="#909090"/>
</g>
<g clip-path="url(#clip5_1639_1594)">
<path d="M1173.07 287.5H1173.82V292H1173.07V287.5Z" fill="#BB0404"/>
<path d="M1175.32 287.5H1176.07V292H1175.32V287.5Z" fill="#BB0404"/>
<path d="M1170.07 285.25V286H1170.82V293.5C1170.82 293.699 1170.9 293.89 1171.04 294.03C1171.18 294.171 1171.37 294.25 1171.57 294.25H1177.57C1177.77 294.25 1177.96 294.171 1178.1 294.03C1178.24 293.89 1178.32 293.699 1178.32 293.5V286H1179.07V285.25H1170.07ZM1171.57 293.5V286H1177.57V293.5H1171.57Z" fill="#BB0404"/>
<path d="M1173.07 283.75H1176.07V284.5H1173.07V283.75Z" fill="#BB0404"/>
</g>
<rect width="1280" height="344" rx="16" fill="url(#paint1_linear_1639_1594)"/>
<defs>
<linearGradient id="paint0_linear_1639_1594" x1="1280" y1="-1.72853e-05" x2="1191.11" y2="323.052" gradientUnits="userSpaceOnUse">
<stop stop-color="white" stop-opacity="0.4"/>
<stop offset="1" stop-color="white" stop-opacity="0"/>
</linearGradient>
<linearGradient id="paint1_linear_1639_1594" x1="640" y1="0" x2="640" y2="344" gradientUnits="userSpaceOnUse">
<stop stop-color="#0A0A0A" stop-opacity="0"/>
<stop offset="1" stop-color="#0A0A0A"/>
</linearGradient>
<clipPath id="clip0_1639_1594">
<rect width="12" height="12" fill="white" transform="translate(1148.57 175)"/>
</clipPath>
<clipPath id="clip1_1639_1594">
<rect width="12" height="12" fill="white" transform="translate(1168.57 175)"/>
</clipPath>
<clipPath id="clip2_1639_1594">
<rect width="12" height="12" fill="white" transform="translate(1148.57 229)"/>
</clipPath>
<clipPath id="clip3_1639_1594">
<rect width="12" height="12" fill="white" transform="translate(1168.57 229)"/>
</clipPath>
<clipPath id="clip4_1639_1594">
<rect width="12" height="12" fill="white" transform="translate(1148.57 283)"/>
</clipPath>
<clipPath id="clip5_1639_1594">
<rect width="12" height="12" fill="white" transform="translate(1168.57 283)"/>
</clipPath>
</defs>
</svg>
