<svg width="87" height="120" viewBox="0 0 87 120" fill="none" xmlns="http://www.w3.org/2000/svg">
<path d="M87 76.699C87 100.613 67.5244 120 43.5 120C19.4756 120 0 100.613 0 76.699C0 52.7846 19.4794 33.3981 43.5038 33.3981H74.1256C81.148 33.3981 87 27.1845 87 27.1845V76.699ZM43.3049 62.5243C35.3327 62.5243 28.87 68.9575 28.87 76.8932C28.87 84.8289 35.3327 91.2621 43.3049 91.2621C51.2772 91.2621 57.7399 84.8289 57.7399 76.8932V62.5243H43.3049Z" fill="white"/>
<path d="M57.7399 14.3689C57.7399 6.43319 64.2027 0 72.1749 0C80.1471 0 86.6099 6.43319 86.6099 14.3689C86.6099 22.3047 80.1471 28.7379 72.1749 28.7379H57.7399V14.3689Z" fill="white"/>
</svg>
