<svg width="84" height="32" viewBox="0 0 84 32" fill="none" xmlns="http://www.w3.org/2000/svg">
<path d="M20.4655 18.2898C20.4655 23.9924 15.8841 28.6154 10.2327 28.6154C4.58135 28.6154 0 23.9925 0 18.2898C0 12.5871 4.58225 7.96415 10.2336 7.96415H17.4369C19.0889 7.96415 20.4655 6.48245 20.4655 6.48245V18.2898ZM10.1868 14.9096C8.31149 14.9096 6.79123 16.4437 6.79123 18.3361C6.79123 20.2284 8.31149 21.7625 10.1868 21.7625C12.0622 21.7625 13.5825 20.2284 13.5825 18.3361V14.9096H10.1868Z" fill="white"/>
<path d="M13.5825 3.42644C13.5825 1.53407 15.1027 0 16.9781 0C18.8534 0 20.3737 1.53407 20.3737 3.42644C20.3737 5.31881 18.8534 6.85288 16.9781 6.85288H13.5825V3.42644Z" fill="white"/>
<path d="M81.792 0H84V12.7568H81.792V11.52C81.1416 12.3618 80.2174 12.7827 79.0193 12.7827C77.8668 12.7827 76.8798 12.3445 76.0582 11.4681C75.248 10.5802 74.8429 9.49622 74.8429 8.21622C74.8429 6.93622 75.248 5.85802 76.0582 4.98162C76.8798 4.09369 77.8668 3.64973 79.0193 3.64973C80.2174 3.64973 81.1416 4.07063 81.792 4.91243V0ZM77.7184 9.98054C78.1749 10.4303 78.7454 10.6551 79.43 10.6551C80.1147 10.6551 80.6795 10.4303 81.1245 9.98054C81.5695 9.51928 81.792 8.93117 81.792 8.21622C81.792 7.50126 81.5695 6.91892 81.1245 6.46919C80.6795 6.00793 80.1147 5.7773 79.43 5.7773C78.7454 5.7773 78.1749 6.00793 77.7184 6.46919C77.2734 6.91892 77.0509 7.50126 77.0509 8.21622C77.0509 8.93117 77.2734 9.51928 77.7184 9.98054Z" fill="white"/>
<path d="M67.2922 9.13297C67.5889 10.2169 68.3934 10.7589 69.7056 10.7589C70.55 10.7589 71.189 10.4706 71.6226 9.89406L73.4026 10.9319C72.5583 12.1658 71.3145 12.7827 69.6714 12.7827C68.2564 12.7827 67.1211 12.3503 66.2653 11.4854C65.4095 10.6205 64.9816 9.53081 64.9816 8.21622C64.9816 6.91315 65.4038 5.82919 66.2482 4.96432C67.0926 4.08793 68.1766 3.64973 69.5002 3.64973C70.7554 3.64973 71.788 4.08793 72.5982 4.96432C73.4198 5.84072 73.8305 6.92469 73.8305 8.21622C73.8305 8.50451 73.802 8.81009 73.745 9.13297H67.2922ZM67.258 7.40324H71.6226C71.4971 6.81514 71.2346 6.37694 70.8352 6.08865C70.4473 5.80036 70.0023 5.65622 69.5002 5.65622C68.9068 5.65622 68.4162 5.81189 68.0282 6.12324C67.6403 6.42306 67.3835 6.84973 67.258 7.40324Z" fill="white"/>
<path d="M61.8512 5.37945C62.0566 4.82594 62.3932 4.4108 62.8611 4.13404C63.3403 3.85729 63.8709 3.71891 64.4529 3.71891V6.20972C63.7796 6.129 63.1749 6.26738 62.6386 6.62486C62.1137 6.98233 61.8512 7.57621 61.8512 8.40648V12.7568H59.6433V3.71891H61.8512V5.37945Z" fill="white"/>
<path d="M57.1517 2.75027C56.7866 2.75027 56.4671 2.61766 56.1932 2.35243C55.9308 2.07568 55.7996 1.75279 55.7996 1.38378C55.7996 1.01478 55.9308 0.691892 56.1932 0.415135C56.4671 0.138378 56.7866 0 57.1517 0C57.5283 0 57.8478 0.138378 58.1102 0.415135C58.3841 0.691892 58.521 1.01478 58.521 1.38378C58.521 1.75279 58.3841 2.07568 58.1102 2.35243C57.8478 2.61766 57.5283 2.75027 57.1517 2.75027ZM56.0563 12.7568V3.67568H58.2643V12.7568H56.0563Z" fill="white"/>
<path d="M50.5368 3.64973C51.6893 3.64973 52.6706 4.09369 53.4807 4.98162C54.3023 5.85802 54.7131 6.93622 54.7131 8.21622C54.7131 9.49622 54.3023 10.5802 53.4807 11.4681C52.6706 12.3445 51.6893 12.7827 50.5368 12.7827C49.3387 12.7827 48.4144 12.3618 47.764 11.52V16H45.556V3.67568H47.764V4.91243C48.4144 4.07063 49.3387 3.64973 50.5368 3.64973ZM48.4315 9.98054C48.8765 10.4303 49.4414 10.6551 50.126 10.6551C50.8106 10.6551 51.3755 10.4303 51.8205 9.98054C52.2769 9.51928 52.5051 8.93117 52.5051 8.21622C52.5051 7.50126 52.2769 6.91892 51.8205 6.46919C51.3755 6.00793 50.8106 5.7773 50.126 5.7773C49.4414 5.7773 48.8765 6.00793 48.4315 6.46919C47.9865 6.91892 47.764 7.50126 47.764 8.21622C47.764 8.93117 47.9865 9.51928 48.4315 9.98054Z" fill="white"/>
<path d="M40.0645 6.34811C40.0645 6.57874 40.2128 6.76901 40.5095 6.91892C40.8176 7.0573 41.1884 7.18414 41.622 7.29946C42.0557 7.40324 42.4893 7.54162 42.9229 7.7146C43.3565 7.87604 43.7216 8.15279 44.0183 8.54487C44.3264 8.93694 44.4804 9.42703 44.4804 10.0151C44.4804 10.9031 44.1495 11.5892 43.4877 12.0735C42.8373 12.5463 42.0214 12.7827 41.0401 12.7827C39.2829 12.7827 38.0848 12.0966 37.4458 10.7243L39.3627 9.63459C39.6138 10.3841 40.1729 10.7589 41.0401 10.7589C41.8274 10.7589 42.2211 10.511 42.2211 10.0151C42.2211 9.7845 42.0671 9.6 41.759 9.46162C41.4623 9.31171 41.0972 9.1791 40.6636 9.06378C40.23 8.94847 39.7963 8.80433 39.3627 8.63135C38.9291 8.45838 38.5583 8.18739 38.2502 7.81838C37.9535 7.43784 37.8052 6.96505 37.8052 6.4C37.8052 5.54667 38.1133 4.87784 38.7295 4.39351C39.357 3.89766 40.133 3.64973 41.0572 3.64973C41.7533 3.64973 42.3866 3.81117 42.9571 4.13405C43.5276 4.44541 43.9783 4.89514 44.3093 5.48324L42.4265 6.52108C42.1526 5.93297 41.6962 5.63892 41.0572 5.63892C40.772 5.63892 40.5323 5.70234 40.3384 5.82919C40.1558 5.95604 40.0645 6.12901 40.0645 6.34811Z" fill="white"/>
<path d="M33.1214 3.64973C34.0571 3.64973 34.8273 3.96685 35.4321 4.60108C36.0483 5.23532 36.3563 6.11171 36.3563 7.23027V12.7568H34.1484V7.50703C34.1484 6.93045 33.9943 6.49225 33.6863 6.19243C33.3782 5.88108 32.9674 5.72541 32.4539 5.72541C31.8834 5.72541 31.4269 5.90414 31.0846 6.26162C30.7423 6.6191 30.5711 7.15532 30.5711 7.87027V12.7568H28.3632V3.67568H30.5711V4.86054C31.1074 4.05333 31.9575 3.64973 33.1214 3.64973Z" fill="white"/>
<path d="M24.7418 0H27.1038V12.7568H24.7418V0Z" fill="white"/>
<path d="M81.6383 21.7401H79.6971V25.7147C79.6971 26.0104 79.7716 26.2264 79.9204 26.3629C80.0693 26.4994 80.2869 26.579 80.5732 26.6017C80.8595 26.6131 81.2145 26.6074 81.6383 26.5847V28.5805C80.1151 28.7511 79.0386 28.6089 78.4087 28.154C77.7903 27.6991 77.4811 26.886 77.4811 25.7147V21.7401H75.9866V19.6249H77.4811V17.902L79.6971 17.2367V19.6249H81.6383V21.7401Z" fill="white"/>
<path d="M71.1198 22.2604C71.1198 22.4878 71.2687 22.6754 71.5664 22.8233C71.8756 22.9597 72.2478 23.0848 72.683 23.1986C73.1182 23.3009 73.5534 23.4374 73.9886 23.608C74.4237 23.7672 74.7902 24.0401 75.088 24.4268C75.3972 24.8134 75.5518 25.2967 75.5518 25.8767C75.5518 26.7523 75.2197 27.429 74.5554 27.9066C73.9027 28.3729 73.0838 28.606 72.0989 28.606C70.3353 28.606 69.1328 27.9294 68.4915 26.5761L70.4155 25.5014C70.6674 26.2406 71.2286 26.6102 72.0989 26.6102C72.8891 26.6102 73.2842 26.3657 73.2842 25.8767C73.2842 25.6493 73.1296 25.4673 72.8204 25.3308C72.5227 25.183 72.1562 25.0522 71.721 24.9385C71.2858 24.8248 70.8507 24.6826 70.4155 24.512C69.9803 24.3415 69.6081 24.0742 69.2989 23.7103C69.0011 23.335 68.8523 22.8688 68.8523 22.3115C68.8523 21.47 69.1615 20.8104 69.7799 20.3328C70.4097 19.8438 71.1885 19.5993 72.1161 19.5993C72.8147 19.5993 73.4503 19.7585 74.0229 20.0769C74.5955 20.384 75.0479 20.8275 75.38 21.4074L73.4904 22.4309C73.2155 21.851 72.7574 21.561 72.1161 21.561C71.8298 21.561 71.5893 21.6235 71.3946 21.7486C71.2114 21.8737 71.1198 22.0443 71.1198 22.2604Z" fill="white"/>
<path d="M66.1872 19.6249H68.5578L65.4313 28.5805C64.9847 29.8087 64.3891 30.6957 63.6448 31.2415C62.9118 31.7988 61.9956 32.049 60.8962 31.9921V29.9451C61.4917 29.9565 61.9613 29.8314 62.3049 29.5698C62.6599 29.3083 62.9405 28.8875 63.1466 28.3075L59.6251 19.6249H62.0472L64.2804 25.7829L66.1872 19.6249Z" fill="white"/>
<path d="M56.3429 28.5804L56.3428 16H58.5588L58.5589 28.5804H56.3429Z" fill="white"/>
<path d="M53.191 19.6249H55.407V28.5804H53.191V27.3863C52.5268 28.2165 51.5934 28.6316 50.391 28.6316C49.2457 28.6316 48.2609 28.1995 47.4363 27.3352C46.6232 26.4595 46.2166 25.3905 46.2166 24.1282C46.2166 22.8659 46.6232 21.8026 47.4363 20.9383C48.2609 20.0627 49.2457 19.6249 50.391 19.6249C51.5934 19.6249 52.5268 20.0399 53.191 20.8701V19.6249ZM49.1026 25.8682C49.5492 26.3117 50.1161 26.5334 50.8032 26.5334C51.4904 26.5334 52.0573 26.3117 52.5039 25.8682C52.962 25.4133 53.191 24.8333 53.191 24.1282C53.191 23.4232 52.962 22.8489 52.5039 22.4054C52.0573 21.9505 51.4904 21.723 50.8032 21.723C50.1161 21.723 49.5492 21.9505 49.1026 22.4054C48.656 22.8489 48.4326 23.4232 48.4326 24.1282C48.4326 24.8333 48.656 25.4133 49.1026 25.8682Z" fill="white"/>
<path d="M41.9539 19.6249C42.893 19.6249 43.666 19.9376 44.273 20.5631C44.8914 21.1885 45.2006 22.0528 45.2006 23.1559V28.606H42.9846V23.4288C42.9846 22.8602 42.83 22.4281 42.5208 22.1324C42.2116 21.8254 41.7993 21.6719 41.2839 21.6719C40.7113 21.6719 40.2533 21.8481 39.9097 22.2007C39.5661 22.5532 39.3943 23.082 39.3943 23.7871V28.606H37.1783V19.6505H39.3943V20.8189C39.9326 20.0229 40.7858 19.6249 41.9539 19.6249Z" fill="white"/>
<path d="M33.5371 28.5804L32.8156 26.4311H28.0229L27.3014 28.5804H24.7418L28.9505 16H31.888L36.1138 28.5804H33.5371ZM28.7787 23.5909H32.0769L30.4278 18.7123L28.7787 23.5909Z" fill="white"/>
</svg>
