<svg width="48" height="20" viewBox="0 0 48 20" fill="none" xmlns="http://www.w3.org/2000/svg">
<path d="M22.638 4.484H25.984V16.094H22.638V4.484ZM8.452 12.71C8.452 8.7 3.358 9.422 3.358 7.904L3.36 7.908C3.36 7.384 3.796 7.18 4.494 7.172C5.65171 7.19659 6.78749 7.49252 7.81 8.036V4.868C6.75708 4.45249 5.63389 4.24401 4.502 4.254C1.8 4.254 0 5.678 0 8.058C0 11.786 5.064 11.18 5.064 12.788C5.064 13.408 4.532 13.614 3.788 13.614C2.686 13.614 1.26 13.152 0.142 12.538V15.57C1.28989 16.07 2.52793 16.33 3.78 16.334C6.548 16.332 8.452 15.134 8.452 12.71ZM22.628 3.464L25.974 2.744V0L22.628 0.72V3.464ZM32.936 4.258C31.9615 4.25392 31.0244 4.63237 30.326 5.312L30.154 4.478H27.22V20L30.55 19.286L30.558 15.482C31.038 15.838 31.75 16.332 32.914 16.332C35.3 16.332 37.474 14.574 37.474 10.3C37.482 6.388 35.278 4.258 32.936 4.258ZM32.142 13.54C31.36 13.542 30.898 13.254 30.574 12.904L30.552 7.902C30.898 7.516 31.378 7.234 32.142 7.234C33.356 7.234 34.196 8.614 34.196 10.372C34.206 12.184 33.38 13.54 32.142 13.54ZM43.184 4.258C40.018 4.258 38.09 6.978 38.09 10.406C38.09 14.46 40.362 16.334 43.604 16.334C45.194 16.334 46.386 15.97 47.294 15.462V12.93C46.386 13.392 45.344 13.672 44.024 13.672C42.726 13.672 41.586 13.21 41.436 11.634H47.954C47.968 11.46 47.998 10.754 47.998 10.43C47.998 6.98 46.35 4.258 43.184 4.258ZM41.406 9.154C41.406 7.638 42.33 7.002 43.162 7.002C43.98 7.002 44.85 7.64 44.85 9.154H41.406ZM14.904 7.35V4.484H12.376L12.368 1.566L9.118 2.264L9.104 13.056C9.104 15.05 10.59 16.338 12.562 16.338C13.658 16.338 14.46 16.132 14.904 15.89V13.328C14.476 13.502 12.376 14.124 12.376 12.138V7.348H14.904V7.35ZM21.834 7.578V4.486C21.384 4.326 19.832 4.032 19.052 5.478L18.848 4.486H15.968V16.096H19.292V8.282C20.08 7.236 21.408 7.442 21.834 7.578Z" fill="#646FDE"/>
</svg>
