<svg width="138" height="20" viewBox="0 0 138 20" fill="none" xmlns="http://www.w3.org/2000/svg">
<path d="M50.636 15.5185C49.1867 13.6371 47.7388 11.7545 46.2868 9.8758C45.9956 9.49926 45.6895 9.13348 45.3903 8.76367C45.2433 9.26661 45.3296 9.78032 45.3255 10.2886C45.3121 11.8069 45.3242 13.3265 45.3175 14.8448C45.3175 15.0613 45.3862 15.2926 45.2447 15.4956L45.25 15.4903C44.487 15.6247 43.7226 15.5925 42.9582 15.5118L42.973 15.4849C42.9433 15.4257 42.9002 15.3759 42.9002 15.302C42.9083 11.698 42.8611 8.09262 42.9258 4.48861C43.6552 4.35548 44.3845 4.3501 45.1139 4.4913C46.8045 6.69809 48.4951 8.90352 50.187 11.1103C50.2544 11.0834 50.3205 11.0579 50.3879 11.031V4.4913C51.1914 4.35414 51.9949 4.35414 52.7984 4.4913C52.7957 8.15583 52.7944 11.8203 52.7917 15.4849C52.0772 15.6436 51.3572 15.5777 50.6387 15.5198L50.636 15.5185Z" fill="#F0B90B"/>
<path d="M70.4567 4.49266C71.4773 5.83744 72.4911 7.18894 73.5211 8.527C74.1467 9.34059 74.7979 10.1354 75.4369 10.9395C75.8319 10.8656 75.6432 10.5522 75.6445 10.3572C75.6607 8.61441 75.6512 6.87158 75.658 5.12874C75.658 4.91223 75.5865 4.68228 75.7308 4.47921L75.7254 4.48459C76.4952 4.35415 77.265 4.37298 78.0362 4.47114C78.1386 6.30677 78.0523 8.14374 78.0806 9.98071C78.0591 11.8177 78.1251 13.656 78.0469 15.493C77.3607 15.6342 76.6718 15.5804 75.9816 15.5212C74.7291 13.9128 73.4753 12.3045 72.2215 10.6961C71.7281 10.0627 71.2319 9.43204 70.7385 8.79999C70.5862 9.1187 70.6725 9.45624 70.6698 9.78302C70.6603 11.4721 70.6684 13.1611 70.6617 14.8502C70.6617 15.0667 70.7291 15.2953 70.5889 15.4983L70.5943 15.493C69.8218 15.6207 69.0493 15.614 68.2768 15.4983C68.1932 14.1791 68.2417 12.8599 68.2431 11.5406C68.2458 9.19132 68.2013 6.84199 68.2673 4.49266C68.9967 4.35818 69.726 4.35415 70.4554 4.49535L70.4567 4.49266Z" fill="#F0B90B"/>
<path d="M100.513 8.92773C100.511 9.59205 100.509 10.255 100.507 10.9194C99.0487 11.0901 97.5846 10.9462 96.1245 11C95.8427 11.0108 95.5475 10.9167 95.2778 11.0753L95.2738 11.0646C95.1633 11.8244 95.1417 12.5842 95.2886 13.3413C97.257 13.3507 99.2253 13.3601 101.194 13.3695C101.32 14.0729 101.32 14.7775 101.194 15.4808C98.4164 15.4849 95.6392 15.4889 92.8619 15.4929C92.7352 15.3625 92.7783 15.1984 92.7783 15.0478C92.7757 11.6321 92.7757 8.215 92.777 4.79926C92.777 4.68764 92.777 4.57603 92.8228 4.47113C93.5994 4.33128 94.384 4.42003 95.1646 4.41331C96.9577 4.39717 98.7507 4.40524 100.544 4.41196C100.762 4.41196 100.993 4.34741 101.199 4.48324L101.206 4.47517C101.315 5.15294 101.304 5.83205 101.214 6.50982C99.4747 6.62413 97.7342 6.52596 95.9937 6.56361C95.7551 6.56899 95.5016 6.48965 95.2765 6.63892L95.2832 6.63219C95.1376 7.34762 95.1821 8.06573 95.2644 8.7825L95.2846 8.7677C96.7433 8.94387 98.2088 8.7946 99.6702 8.85108C99.9519 8.86184 100.247 8.76233 100.515 8.93042L100.513 8.92773Z" fill="#F0B90B"/>
<path d="M87.1997 13.3615C87.8023 13.3077 88.2431 12.9365 88.684 12.5828C89.1221 12.2305 89.4862 12.1176 89.7733 12.7456C89.834 12.88 89.9782 12.9782 90.0888 13.0871C90.7912 13.7757 90.8141 13.8012 90.0443 14.4467C89.226 15.1325 88.2876 15.5898 87.1929 15.6463C86.5566 15.7377 85.9202 15.7377 85.2839 15.6463C83.5421 15.5804 81.532 14.0998 80.843 12.0678C80.688 11.6092 80.5222 11.1587 80.5613 10.6638C80.471 10.3465 80.4912 10.0278 80.5505 9.70905C80.4966 8.77443 80.7891 7.91915 81.2327 7.12573C82.2007 5.39366 83.7632 4.5572 85.6857 4.30573C86.144 4.24925 86.6024 4.24925 87.0594 4.30573C88.4278 4.52224 89.6965 4.94988 90.6793 6.00419C90.2627 6.47486 89.8407 6.92536 89.4511 7.40276C89.2165 7.69054 89.0197 7.69189 88.7554 7.45789C88.231 6.99663 87.6095 6.73171 86.9233 6.61472C86.5107 6.52193 86.0996 6.52193 85.687 6.61472C84.2108 6.7855 83.2428 8.17197 83.1322 9.43203C83.0352 10.5401 83.1983 11.5393 83.9398 12.404C84.3766 12.9137 84.9145 13.2633 85.5589 13.4529C86.1009 13.3373 86.6604 13.5054 87.201 13.3615H87.1997Z" fill="#F0B90B"/>
<path d="M14.0238 8.36964C12.8832 7.22657 11.7467 6.11444 10.6439 4.96869C10.2718 4.58274 10.0386 4.52222 9.62607 4.94314C8.48552 6.10637 7.38271 7.31264 6.04533 8.3777C5.40091 7.72011 4.76188 7.03696 4.08644 6.39146C3.80333 6.12116 3.895 5.97996 4.12284 5.75538C5.97253 3.92917 7.81952 2.10027 9.64764 0.252547C9.9712 -0.0742343 10.1505 -0.0930612 10.4875 0.249858C12.166 1.95907 13.8768 3.63736 15.5728 5.32909C16.3332 6.08754 16.3292 6.09292 15.5594 6.85945C15.0996 7.31802 14.6399 7.77793 14.1802 8.2365C14.1492 8.26743 14.1114 8.29433 14.0238 8.36829V8.36964Z" fill="#F0B90B"/>
<path d="M16.3076 13.8886C16.1916 14.0137 16.1067 14.1132 16.0137 14.2046C14.1397 16.0712 12.2617 17.9351 10.3918 19.8056C10.1626 20.0343 10.013 20.088 9.7474 19.8204C7.86805 17.927 5.97523 16.047 4.07566 14.175C3.83703 13.9411 3.8586 13.8025 4.08779 13.5874C4.64324 13.0656 5.18924 12.5331 5.71368 11.9804C5.99815 11.6805 6.18015 11.7275 6.48888 11.9804C7.65504 12.9311 8.65134 14.054 9.70561 15.1137C10.0723 15.4822 10.2341 15.4338 10.559 15.0935C11.5351 14.0728 12.5664 13.1059 13.5411 12.0839C13.8998 11.7087 14.1465 11.6469 14.5132 12.0543C14.9918 12.5869 15.5189 13.075 16.0245 13.5833C16.1161 13.6748 16.2011 13.773 16.3076 13.8873V13.8886Z" fill="#F0B90B"/>
<path d="M133.675 15.4916C133.058 15.4916 132.441 15.4916 131.824 15.4916C131.635 14.5247 131.79 13.5484 131.738 12.5788C131.709 12.0718 131.811 11.5595 131.674 11.0565C130.24 8.9264 128.797 6.80031 127.456 4.61101C127.461 4.51418 127.511 4.42005 127.603 4.42139C128.282 4.44022 128.967 4.30978 129.64 4.49267C130.647 6.0943 131.654 7.69593 132.691 9.34463C133.768 7.67576 134.808 6.06337 135.848 4.45098C136.567 4.39988 137.285 4.3286 138 4.49132C136.696 6.4816 135.394 8.47052 134.092 10.4621C133.996 10.6087 133.91 10.762 133.819 10.9126C133.689 12.2009 133.8 13.4919 133.757 14.7816C133.749 15.0196 133.84 15.2724 133.675 15.493V15.4916Z" fill="#F0B90B"/>
<path d="M39.5823 4.49128C39.5823 8.15446 39.5823 11.819 39.5823 15.4822C38.7788 15.6274 37.974 15.6086 37.1691 15.4902L37.1745 15.4956C37.0141 14.9308 37.1098 14.3539 37.1031 13.7837C37.0869 12.5196 37.0977 11.2555 37.0977 9.99142C37.0977 8.36962 37.095 6.74782 37.1017 5.12601C37.1017 4.9095 37.0356 4.68089 37.1745 4.47783L37.1691 4.48321C37.974 4.36621 38.7788 4.34604 39.5823 4.49128Z" fill="#F0B90B"/>
<path d="M12.3871 9.99282C12.3021 10.0896 12.2361 10.1757 12.1606 10.251C11.558 10.8494 10.9499 11.4438 10.35 12.0463C10.1707 12.2265 10.0318 12.3153 9.80534 12.0772C9.25125 11.4936 8.67558 10.9301 8.09721 10.3707C7.84106 10.1233 7.87746 9.935 8.11878 9.70235C8.68232 9.1604 9.23237 8.60232 9.78242 8.04692C9.97386 7.85462 10.1532 7.72014 10.4012 7.97027C10.9998 8.57273 11.6038 9.16982 12.2051 9.77093C12.2657 9.83145 12.3129 9.90272 12.3871 9.99282Z" fill="#F0B90B"/>
<path d="M2.19227 12.3098C1.50066 11.6119 0.865668 10.9489 0.203718 10.3128C-0.0389526 10.0788 -0.0888348 9.93091 0.186191 9.67675C0.745681 9.16035 1.27956 8.61706 1.80534 8.06705C2.05475 7.80616 2.25428 7.75371 2.52661 8.03746C3.06857 8.60361 3.62132 9.15901 4.1916 9.69692C4.43427 9.92553 4.40865 10.064 4.18351 10.2846C3.51482 10.9395 2.86905 11.6186 2.19361 12.3098H2.19227Z" fill="#F0B90B"/>
<path d="M17.9483 12.2951C17.2783 11.6173 16.6419 10.9557 15.9827 10.3169C15.7494 10.0896 15.6685 9.94306 15.953 9.68083C16.5139 9.16712 17.0504 8.62518 17.5708 8.07113C17.8566 7.76721 18.0629 7.78738 18.3393 8.08054C18.861 8.63324 19.403 9.16981 19.9571 9.69159C20.1917 9.91348 20.193 10.0533 19.9584 10.2793C19.283 10.9301 18.6305 11.6052 17.9456 12.2937L17.9483 12.2951Z" fill="#F0B90B"/>
<path d="M34.342 11.7249C34.0373 10.7243 33.2918 10.1663 32.3211 9.80048C32.6554 9.50193 33.01 9.28408 33.2284 8.97209C34.3002 7.4377 33.7892 5.45146 31.7522 4.72797C31.3558 4.58677 30.9069 4.74142 30.559 4.45094C29.645 4.35143 28.7269 4.40657 27.8115 4.41329C26.8758 4.42136 25.9375 4.3205 25.0046 4.4738C24.9628 4.58004 24.9628 4.69166 24.9628 4.80328C24.9628 8.21498 24.9628 11.6253 24.9641 15.037C24.9641 15.189 24.9264 15.3517 25.0396 15.4862L25.0261 15.5131C25.3133 15.6234 25.6139 15.544 25.9065 15.5682C27.5027 15.54 29.099 15.6247 30.6952 15.5225C32.3669 15.4768 33.7164 14.9214 34.342 13.2243C34.435 12.7254 34.435 12.2251 34.342 11.7262V11.7249ZM27.3302 6.64159C28.224 6.47618 29.1232 6.55552 30.0198 6.60124C30.5172 6.70614 31.0471 6.77472 31.2264 7.36105C31.5095 8.28625 31.0241 8.84703 29.8903 8.93175C29.0369 8.98285 28.1836 9.05412 27.3342 8.89275C27.3342 8.14236 27.3315 7.39197 27.3302 6.64159ZM31.9274 12.5546C31.6834 13.0737 31.2331 13.2861 30.6992 13.3695C29.5762 13.4206 28.4545 13.4932 27.3342 13.3305C27.3356 12.5788 27.3383 11.8271 27.3396 11.0753C28.5489 10.9287 29.7596 10.9691 30.9702 11.0538C31.3329 11.2125 31.7238 11.3308 31.9126 11.7302C32.015 12.0032 31.9948 12.2776 31.9274 12.5546Z" fill="#F0B90B"/>
<path d="M65.2083 12.8034C64.4668 11.1654 63.7725 9.50731 63.0688 7.85188C62.5928 6.73437 62.1358 5.60879 61.6707 4.4859C60.882 4.35142 60.092 4.35142 59.3033 4.4859C58.6373 6.0055 57.9619 7.52107 57.3067 9.04605C56.3913 11.1802 55.3909 13.2794 54.5739 15.4566C55.3721 15.6772 56.1783 15.5548 56.9831 15.5171C57.2959 14.7923 57.6222 14.0715 57.908 13.3359C57.9713 13.1732 58.0023 13.0589 58.187 13.0481C58.6966 12.9634 59.2089 13.0024 59.7186 13.0158C60.7364 13.0427 61.7583 12.9136 62.7735 13.0858C63.1631 13.8846 63.3964 14.7519 63.8547 15.5198C64.7041 15.5521 65.5561 15.6798 66.3987 15.4553C65.8824 14.6242 65.6087 13.6842 65.2083 12.8007V12.8034ZM61.8379 10.7163C60.8955 10.9126 59.9545 11.0256 59.0242 10.6557C59.4193 9.71709 59.8197 8.77978 60.2052 7.83709C60.2538 7.71741 60.2201 7.56948 60.4169 7.56814C60.611 7.56814 60.5841 7.71068 60.634 7.83171C61.0276 8.77575 61.4361 9.71306 61.8406 10.6531C61.8406 10.6746 61.8446 10.7163 61.8406 10.7163H61.8379Z" fill="#F0B90B"/>
<path d="M125.957 10.1434C125.153 8.30242 124.359 6.45738 123.561 4.61504C123.287 4.28288 122.213 4.2116 121.578 4.48325C121.501 4.6621 121.427 4.84096 121.349 5.01847C119.891 8.33201 118.437 11.6455 116.97 14.955C116.803 15.3329 116.787 15.5373 117.291 15.5051C117.604 15.4835 117.924 15.4647 118.232 15.5104C118.663 15.575 118.847 15.3867 118.995 15.0102C119.273 14.3069 119.506 13.5793 119.916 12.9325C121.67 12.8572 123.424 12.8182 125.176 12.9527C125.303 13.231 125.432 13.5067 125.556 13.7864C125.794 14.3243 125.895 15.0169 126.295 15.3639C126.752 15.7592 127.496 15.4472 128.114 15.497C128.148 15.4997 128.184 15.4701 128.284 15.4284C127.506 13.6654 126.725 11.9078 125.955 10.1448L125.957 10.1434ZM120.867 11.117C120.772 11.1184 120.726 11.0256 120.733 10.9247C121.213 9.54903 121.822 8.22711 122.499 6.70617C123.17 8.25535 123.775 9.65258 124.381 11.0485C123.213 11.2273 122.038 11.0942 120.867 11.117Z" fill="#F0B90B"/>
<path d="M108.352 4.48322C108.352 4.48322 108.352 4.48322 108.354 4.48322C108.354 4.48187 108.355 4.48053 108.356 4.47919L108.352 4.48322Z" fill="#F0B90B"/>
<path d="M116.855 7.56142C116.805 7.44173 116.739 7.32608 116.708 7.20236C116.485 6.29598 115.996 5.61418 115.173 5.12333C114.469 4.70376 113.694 4.62039 112.932 4.45094C111.405 4.3985 109.879 4.33395 108.352 4.48187C108.245 4.61635 108.281 4.77773 108.28 4.92834C108.278 8.30105 108.277 11.6738 108.28 15.0465C108.28 15.1984 108.236 15.3625 108.363 15.4929C108.981 15.4929 109.597 15.4929 110.214 15.4929C110.411 14.3808 110.241 13.2592 110.302 12.1444C110.305 12.0893 110.318 12.0503 110.34 12.0207L110.373 12.0261C111.136 12.0113 111.899 11.9978 112.664 11.9831C114.408 11.8324 116.28 11.2986 116.854 8.648C116.938 8.28625 116.938 7.92451 116.854 7.56276L116.855 7.56142ZM110.372 11.9871C110.416 11.9508 110.478 11.94 110.546 11.9387C110.488 11.9521 110.43 11.971 110.372 11.9871ZM113.71 9.97933C113.509 10.0573 113.289 10.0856 113.079 10.1367C112.172 10.22 111.264 10.2214 110.357 10.1367C110.275 8.83896 110.243 7.5399 110.373 6.24354C111.37 6.19378 112.363 6.19647 113.353 6.35381C113.999 6.45736 114.751 7.13243 114.815 7.6959C114.946 8.84434 114.563 9.64583 113.709 9.97933H113.71Z" fill="#F0B90B"/>
</svg>
