<svg width="153" height="212" viewBox="0 0 153 212" fill="none" xmlns="http://www.w3.org/2000/svg">
<path d="M153 135.502C153 177.75 118.75 212 76.5 212C34.2502 212 0 177.751 0 135.502C0 93.2527 34.2569 59.0032 76.5067 59.0032H130.359C142.709 59.0032 153 48.0259 153 48.0259V135.502ZM76.1569 110.46C62.1368 110.46 50.7713 121.825 50.7713 135.845C50.7713 149.864 62.1368 161.23 76.1569 161.23C90.1771 161.23 101.543 149.864 101.543 135.845V110.46H76.1569Z" fill="white"/>
<path d="M101.543 25.3851C101.543 11.3653 112.908 0 126.928 0C140.948 0 152.314 11.3653 152.314 25.3851C152.314 39.4049 140.948 50.7702 126.928 50.7702H101.543V25.3851Z" fill="white"/>
</svg>
