<svg width="90" height="25" viewBox="0 0 90 25" fill="none" xmlns="http://www.w3.org/2000/svg">
<path d="M23.9941 5.13184V19.4952H21.0657V5.13184H23.9941Z" fill="white"/>
<path d="M35.9462 9.81139V19.5276C35.9462 22.5435 33.5987 24.3976 30.726 24.3976C27.9568 24.3976 25.8878 22.6788 25.6889 20.2517L28.6093 20.2676C28.7287 21.3021 29.6358 21.7477 30.8295 21.7477C31.9594 21.7477 33.0098 21.143 33.0098 19.5674V18.326C32.2618 18.8114 31.3069 19.0979 30.2406 19.0979C27.5669 19.0979 25.4263 16.9334 25.4263 14.4427C25.4263 11.5461 27.5748 9.60449 30.2406 9.60449C31.3149 9.60449 32.2618 9.89097 33.0098 10.3764V9.85118L35.9462 9.81139ZM33.0178 15.5329V13.1695C32.421 12.3021 31.5934 12.0156 30.7738 12.0156C29.3334 12.0156 28.3308 12.9785 28.3308 14.4427C28.3308 15.517 29.3334 16.6947 30.7738 16.6947C31.5934 16.6867 32.421 16.3923 33.0178 15.5329Z" fill="white"/>
<path d="M47.628 14.538C47.628 17.5301 45.4158 19.6627 42.4477 19.6627C39.4556 19.6627 37.2434 17.5301 37.2434 14.538C37.2434 11.5699 39.4556 9.39746 42.4477 9.39746C45.4158 9.39746 47.628 11.5699 47.628 14.538ZM44.8031 14.538C44.8031 13.1296 43.88 11.9916 42.4477 11.9916C40.9994 11.9916 40.0763 13.1296 40.0763 14.538C40.0763 15.9863 40.9994 17.0686 42.4477 17.0686C43.8721 17.0606 44.8031 15.9863 44.8031 14.538Z" fill="white"/>
<path d="M65.811 9.82745V19.48L62.9383 19.4959V18.9468C62.1903 19.4322 61.2354 19.7346 60.1691 19.7346C57.4953 19.7346 55.3547 17.4667 55.3547 14.6736C55.3547 11.8646 57.5033 9.59668 60.1691 9.59668C61.2433 9.59668 62.1903 9.89907 62.9383 10.3845V9.83541L65.811 9.82745ZM62.9383 16.1537V13.1935C62.3335 12.3341 61.49 12.0954 60.6465 12.0954C59.1744 12.0954 58.1558 13.2731 58.1558 14.6816C58.1558 16.0741 59.1744 17.2519 60.6465 17.2519C61.49 17.2439 62.3335 17.0131 62.9383 16.1537Z" fill="white"/>
<path d="M77.62 14.2517V19.4957H74.795V14.5939C74.795 13.0183 74.0072 12.1827 72.6067 12.1827C71.8746 12.1827 71.0709 12.6045 70.3786 13.4162V19.4957H67.49V9.84322H70.3786V10.5753C71.1664 9.94667 72.0815 9.60449 73.1717 9.60449C75.7499 9.60449 77.62 11.4188 77.62 14.2517Z" fill="white"/>
<path d="M19.7288 19.4876H16.7447L14.803 12.2701L10.6253 19.4876H7.2911L13.7367 8.31524L12.7022 4.43194L4.00463 19.4956H0.67041L11.6916 0.397461H14.6121L15.8932 5.14017H18.9091L16.8481 8.72107L19.7288 19.4876Z" fill="white"/>
<path d="M89.2859 5.13198V19.4954H86.3575V18.9463C85.6095 19.4317 84.6546 19.7341 83.5882 19.7341C80.9145 19.7341 78.7739 17.4662 78.7739 14.6572C78.7739 11.8641 80.9225 9.59617 83.5882 9.59617C84.6625 9.59617 85.6095 9.89856 86.3575 10.384V5.12402L89.2859 5.13198ZM86.3575 16.1612V13.1771C85.7448 12.3097 84.8933 12.071 84.0498 12.071C82.5697 12.071 81.5432 13.2566 81.5432 14.6572C81.5432 16.0816 82.5697 17.2673 84.0498 17.2673C84.8933 17.2673 85.7448 17.0285 86.3575 16.1612Z" fill="white"/>
<path d="M54.8297 12.2779C54.1931 12.3575 52.697 12.4291 51.8217 13.6387V19.5034H48.9331V9.85884H51.8217V10.583C52.4822 10.018 53.4769 9.68377 54.8297 9.81905V12.2779Z" fill="white"/>
</svg>
