<svg width="101" height="21" viewBox="0 0 101 21" fill="none" xmlns="http://www.w3.org/2000/svg">
<path d="M4.55609 10.3975L2.27706 12.6562L0 10.3975L2.27706 8.13877L4.55609 10.3975ZM10.0813 4.9129L13.9834 8.7855L16.2605 6.52681L10.0813 0.397461L3.90212 6.52681L6.17918 8.7855L10.0813 4.9129ZM17.8875 8.13877L15.6105 10.3975L17.8875 12.6562L20.1626 10.3975L17.8875 8.13877ZM10.0813 15.882L6.17918 12.0114L3.90212 14.2681L10.0813 20.3975L16.2605 14.2681L13.9834 12.0114L10.0813 15.882ZM10.0813 12.6562L12.3584 10.3975L10.0813 8.13877L7.80424 10.3975L10.0813 12.6562ZM34.1125 12.873V12.8418C34.1125 11.3685 33.3246 10.6319 32.0423 10.1474C32.8302 9.70774 33.496 9.01801 33.496 7.7812V7.74994C33.496 6.02661 32.1053 4.9129 29.846 4.9129H24.7167V15.882H29.976C32.4717 15.882 34.1165 14.8797 34.1165 12.873H34.1125ZM31.0791 8.18371C31.0791 8.99848 30.3995 9.34431 29.326 9.34431H27.0864V7.02896H29.4875C30.5138 7.02896 31.083 7.43537 31.083 8.15635L31.0791 8.18371ZM31.6956 12.5721C31.6956 13.3869 31.0476 13.7621 29.9721 13.7621H27.0864V11.3529H29.8972C31.1461 11.3529 31.6996 11.8082 31.6996 12.5448L31.6956 12.5721ZM39.2241 15.882V4.9129H36.7836V15.882H39.2241ZM52.3014 15.882V4.9129H49.8924V11.6675L44.7119 4.9129H42.4683V15.882H44.8695V8.9086L50.2233 15.882H52.3014ZM65.7766 15.882L61.0295 4.83474H58.7859L54.0486 15.882H56.5286L57.543 13.4221H62.2192L63.2297 15.882H65.7766ZM61.3545 11.2904H58.4077L59.8772 7.73431L61.3545 11.2904ZM77.3727 15.882V4.9129H74.9637V11.6675L69.7812 4.9129H67.5396V15.882H69.9388V8.9086L75.2946 15.882H77.3727ZM89.93 14.1118L88.3837 12.5604C87.5151 13.342 86.741 13.8441 85.4764 13.8441C83.5814 13.8441 82.2696 12.281 82.2696 10.3975V10.3662C82.2696 8.48656 83.613 6.9508 85.4764 6.9508C86.5814 6.9508 87.4461 7.41973 88.305 8.18761L89.8473 6.41739C88.821 5.41505 87.5742 4.72532 85.4882 4.72532C82.0923 4.72532 79.7226 7.27905 79.7226 10.3916V10.4229C79.7226 13.5725 82.1396 16.0637 85.3936 16.0637C87.523 16.0696 88.7856 15.3174 89.9221 14.1118H89.93ZM100.311 15.882V13.7327H94.299V11.4252H99.513V9.27593H94.299V7.06022H100.224V4.91094H91.8821V15.8801L100.311 15.882Z" fill="white"/>
</svg>
