<svg width="121" height="21" viewBox="0 0 121 21" fill="none" xmlns="http://www.w3.org/2000/svg">
<path d="M4.05997 12.131C4.25081 12.8285 4.54997 13.4726 4.95747 14.0626C5.35638 14.6434 5.84073 15.1607 6.39414 15.5968C6.94497 16.0301 7.56081 16.3668 8.24414 16.6076C8.93136 16.8492 9.65488 16.9712 10.3833 16.9685C11.5083 16.9685 12.49 16.7326 13.3291 16.2643C14.1675 15.7951 14.8391 15.261 15.3408 14.6585H19.4016C19.0144 15.483 18.5125 16.2487 17.9108 16.9326C17.3007 17.6305 16.6 18.2437 15.8275 18.756C15.0389 19.2783 14.1796 19.6852 13.2758 19.9643C12.3541 20.2535 11.39 20.3976 10.3841 20.3976C9.01914 20.3976 7.72997 20.1326 6.52081 19.6035C5.34017 19.0944 4.2672 18.3653 3.35914 17.4551C2.45311 16.5403 1.72817 15.4625 1.22247 14.2785C0.693115 13.0535 0.42355 11.732 0.430807 10.3976C0.430807 9.02595 0.693307 7.73262 1.22164 6.51678C1.7271 5.33214 2.45239 4.25397 3.35914 3.33928C4.26805 2.43032 5.34083 1.70165 6.52081 1.19178C7.73911 0.660536 9.05507 0.390021 10.3841 0.397617C11.7491 0.397617 13.0366 0.662617 14.2466 1.19178C15.4271 1.70109 16.5001 2.43014 17.4083 3.34012C18.3149 4.25477 19.0404 5.33259 19.5466 6.51678C20.0733 7.73262 20.3375 9.02512 20.3375 10.3976C20.3375 10.711 20.325 11.011 20.3008 11.2993C20.2758 11.5885 20.2408 11.866 20.1925 12.1293H4.05914L4.05997 12.131ZM16.7058 8.70095C16.5168 8.00901 16.2198 7.35121 15.8258 6.75178C15.4372 6.15748 14.9516 5.63268 14.3891 5.19928C13.8289 4.76801 13.2047 4.42695 12.5391 4.18845C11.8468 3.94437 11.1174 3.82256 10.3833 3.82845C9.65359 3.82592 8.92933 3.95434 8.24497 4.20762C7.57394 4.45429 6.94404 4.80099 6.37664 5.23595C5.8166 5.6654 5.33096 6.18397 4.93914 6.77095C4.54286 7.36278 4.24564 8.01521 4.05914 8.70262H16.7058V8.70095ZM20.945 2.78095L23.3875 0.39845L30.6458 7.94345L37.9025 0.39845L40.3441 2.78095L33.0183 10.3976L40.3475 18.0143L37.9041 20.3976L30.6458 12.8526L23.3891 20.3976L20.9466 18.0151L28.2741 10.3976L20.945 2.78095ZM42.4683 9.89178C42.4683 8.59178 42.7133 7.36428 43.205 6.20845C43.6802 5.07666 44.3695 4.04726 45.235 3.17678C46.1002 2.30881 47.1251 1.61638 48.2533 1.13762C49.4115 0.642844 50.6589 0.390984 51.9183 0.397617C53.2125 0.397617 54.4325 0.645117 55.5833 1.13762C56.7115 1.61639 57.7364 2.30883 58.6016 3.17678C59.4665 4.04789 60.1555 5.07749 60.6308 6.20928C61.1236 7.37412 61.3742 8.62703 61.3675 9.89178V19.8185H57.6308V9.71012C57.6355 8.94135 57.4823 8.17979 57.1808 7.47262C56.8934 6.79305 56.479 6.17451 55.96 5.65012C55.4391 5.12898 54.8233 4.71232 54.1458 4.42262C53.4425 4.11987 52.684 3.96609 51.9183 3.97095C51.1275 3.97095 50.385 4.12262 49.6908 4.42262C48.9958 4.72345 48.3908 5.13262 47.8766 5.65012C47.3569 6.17416 46.9423 6.79278 46.655 7.47262C46.3533 8.18005 46.2001 8.9419 46.205 9.71095V19.8185H42.4683V9.89178ZM67.5816 12.131C67.7733 12.8285 68.0716 13.4726 68.4791 14.0626C68.878 14.6434 69.3624 15.1607 69.9158 15.5968C70.4675 16.0301 71.0833 16.3668 71.7666 16.6076C72.4536 16.8491 73.1768 16.9711 73.905 16.9685C75.03 16.9685 76.0125 16.7326 76.8516 16.2643C77.6891 15.7951 78.3608 15.261 78.8633 14.6585H82.9241C82.5367 15.4831 82.0345 16.2488 81.4325 16.9326C80.8224 17.6305 80.1217 18.2437 79.3491 18.756C78.5608 19.2782 77.7018 19.6851 76.7983 19.9643C75.8758 20.2535 74.9125 20.3976 73.9066 20.3976C72.5408 20.3976 71.2525 20.1326 70.0433 19.6035C68.8627 19.0944 67.7897 18.3653 66.8816 17.4551C65.975 16.5405 65.2495 15.4626 64.7433 14.2785C64.2145 13.0534 63.9455 11.7319 63.9533 10.3976C63.9533 9.02595 64.2158 7.73262 64.7433 6.51678C65.2491 5.33237 65.9747 4.25449 66.8816 3.34012C67.7905 2.43085 68.8633 1.7019 70.0433 1.19178C71.2614 0.66065 72.577 0.390137 73.9058 0.397617C75.2708 0.397617 76.5583 0.662617 77.7691 1.19178C78.9496 1.7011 80.0226 2.43015 80.9308 3.34012C81.8371 4.25487 82.5623 5.33267 83.0683 6.51678C83.595 7.73262 83.8591 9.02512 83.8591 10.3976C83.8591 10.711 83.8475 11.011 83.8225 11.2993C83.7983 11.5885 83.7633 11.866 83.7141 12.1293H67.5825L67.5816 12.131ZM80.2283 8.70095C80.0392 8.00901 79.7423 7.35121 79.3483 6.75178C78.9598 6.15745 78.4741 5.63265 77.9116 5.19928C77.3511 4.76797 76.7266 4.42691 76.0608 4.18845C75.3685 3.94437 74.639 3.82256 73.905 3.82845C73.1752 3.82592 72.451 3.95434 71.7666 4.20762C71.0956 4.45427 70.4657 4.80097 69.8983 5.23595C69.3386 5.66548 68.8532 6.18405 68.4616 6.77095C68.0653 7.36277 67.7681 8.01521 67.5816 8.70262H80.2283V8.70095ZM94.3475 20.3968C92.1675 20.3968 90.2816 19.8851 88.6891 18.8626C87.0958 17.8393 85.9766 16.4376 85.33 14.6568H89.3175C89.8208 15.4268 90.5216 16.0235 91.4191 16.4443C92.3243 16.8674 93.3125 17.0832 94.3116 17.076C95.5566 17.076 96.5208 16.8543 97.2033 16.4076C97.8858 15.9626 98.2275 15.3551 98.2275 14.5851C98.2275 13.9593 97.9808 13.4793 97.4908 13.1418C96.9991 12.8043 96.1783 12.5276 95.0291 12.3118L92.2266 11.7701C90.0225 11.361 88.4175 10.7118 87.4116 9.82012C86.4058 8.93095 85.9016 7.72678 85.9016 6.21012C85.9016 5.36845 86.0875 4.59178 86.4583 3.88178C86.8352 3.16437 87.3621 2.53653 88.0033 2.04095C88.6616 1.52428 89.4458 1.12012 90.3566 0.831783C91.2666 0.54345 92.2725 0.39845 93.375 0.39845C95.41 0.39845 97.1716 0.88595 98.6566 1.86095C100.142 2.83595 101.183 4.19012 101.783 5.92178H97.795C97.3875 5.22428 96.795 4.68262 96.0166 4.29762C95.2375 3.91262 94.3683 3.71928 93.4116 3.71928C92.2616 3.71928 91.3691 3.93012 90.7341 4.35095C90.0991 4.77262 89.7825 5.36762 89.7825 6.13762C89.7825 6.69095 90.0275 7.13595 90.5191 7.47345C91.0091 7.81012 91.8175 8.08678 92.9441 8.30262L95.7466 8.84428C97.9258 9.25345 99.5316 9.92178 100.562 10.8485C101.591 11.7743 102.107 12.996 102.107 14.5118C102.107 15.3785 101.914 16.1668 101.532 16.876C101.135 17.6015 100.59 18.2353 99.9325 18.736C99.25 19.2651 98.4291 19.6743 97.4708 19.9626C96.5158 20.2526 95.4741 20.396 94.3475 20.396V20.3968ZM112.672 20.3968C110.492 20.3968 108.605 19.8851 107.012 18.8626C105.419 17.8393 104.301 16.4376 103.653 14.6568H107.641C108.145 15.4268 108.845 16.0235 109.742 16.4443C110.648 16.8673 111.636 17.0831 112.635 17.076C113.881 17.076 114.844 16.8543 115.527 16.4076C116.209 15.9626 116.551 15.3551 116.551 14.5851C116.551 13.9593 116.304 13.4793 115.814 13.1418C115.322 12.8043 114.502 12.5276 113.352 12.3118L110.55 11.7701C108.346 11.361 106.741 10.7118 105.735 9.82012C104.729 8.93095 104.226 7.72678 104.226 6.21012C104.226 5.36845 104.411 4.59178 104.782 3.88178C105.159 3.16441 105.686 2.53656 106.327 2.04095C106.985 1.52428 107.769 1.12012 108.68 0.831783C109.59 0.54345 110.597 0.39845 111.698 0.39845C113.733 0.39845 115.495 0.88595 116.98 1.86095C118.466 2.83595 119.507 4.19012 120.107 5.92178H116.119C115.712 5.22428 115.118 4.68262 114.34 4.29762C113.562 3.91262 112.692 3.71928 111.735 3.71928C110.585 3.71928 109.693 3.93012 109.058 4.35095C108.423 4.77262 108.106 5.36762 108.106 6.13762C108.106 6.69095 108.351 7.13595 108.842 7.47345C109.333 7.81012 110.142 8.08678 111.267 8.30262L114.071 8.84428C116.249 9.25345 117.855 9.92178 118.885 10.8485C119.914 11.7743 120.43 12.996 120.43 14.5118C120.43 15.3785 120.238 16.1668 119.855 16.876C119.459 17.6015 118.914 18.2353 118.256 18.736C117.573 19.2651 116.752 19.6743 115.794 19.9626C114.839 20.2526 113.797 20.396 112.672 20.396V20.3968Z" fill="white"/>
</svg>
