<svg width="103" height="17" viewBox="0 0 103 17" fill="none" xmlns="http://www.w3.org/2000/svg">
<path d="M26.7753 16.3975H25.5751C25.3651 16.3975 25.1636 16.3137 25.015 16.1646C24.8664 16.0155 24.783 15.8133 24.783 15.6024V9.24218C24.783 8.72119 24.5769 8.2215 24.21 7.85292C23.8431 7.48433 23.3455 7.27699 22.8264 7.27647H22.0619C21.7722 7.27647 21.4853 7.33374 21.2177 7.44501C20.95 7.55628 20.7068 7.71938 20.5019 7.92498C20.2971 8.13059 20.1346 8.37467 20.0237 8.64331C19.9128 8.91194 19.8558 9.19986 19.8558 9.49063V15.6024C19.8558 15.8133 19.7723 16.0155 19.6238 16.1646C19.4752 16.3137 19.2737 16.3975 19.0636 16.3975H17.8615C17.6514 16.3975 17.4499 16.3137 17.3014 16.1646C17.1528 16.0155 17.0694 15.8133 17.0694 15.6024V8.9997C17.0694 7.80449 17.5423 6.65821 18.3842 5.81289C19.2261 4.96756 20.368 4.4924 21.5589 4.49187H23.0501C23.64 4.49187 24.224 4.60847 24.769 4.83501C25.3139 5.06155 25.8091 5.39359 26.2261 5.81218C26.6432 6.23077 26.9741 6.72771 27.1998 7.27463C27.4255 7.82154 27.5417 8.40772 27.5417 8.9997V15.6024C27.5418 15.8089 27.4619 16.0073 27.3188 16.1557C27.1758 16.304 26.9809 16.3907 26.7753 16.3975Z" fill="white"/>
<path d="M101.517 16.3975H100.317C100.107 16.3975 99.9055 16.3137 99.7569 16.1646C99.6084 16.0155 99.5249 15.8133 99.5249 15.6024V9.24218C99.5249 8.72119 99.3188 8.2215 98.9519 7.85292C98.5851 7.48433 98.0874 7.27699 97.5683 7.27647H96.8098C96.2247 7.27647 95.6635 7.50975 95.2498 7.92498C94.8361 8.34022 94.6036 8.9034 94.6036 9.49063V15.6024C94.6036 15.8133 94.5202 16.0155 94.3716 16.1646C94.2231 16.3137 94.0216 16.3975 93.8115 16.3975H92.6114C92.4013 16.3975 92.1998 16.3137 92.0512 16.1646C91.9027 16.0155 91.8192 15.8133 91.8192 15.6024V8.9997C91.8192 8.40772 91.9354 7.82154 92.1611 7.27463C92.3868 6.72771 92.7177 6.23077 93.1347 5.81218C93.5518 5.39359 94.047 5.06155 94.5919 4.83501C95.1368 4.60847 95.7209 4.49187 96.3107 4.49187H97.8C98.3898 4.49187 98.9739 4.60847 99.5188 4.83501C100.064 5.06155 100.559 5.39359 100.976 5.81218C101.393 6.23077 101.724 6.72771 101.95 7.27463C102.175 7.82154 102.292 8.40772 102.292 8.9997V15.6024C102.292 15.8102 102.211 16.0098 102.066 16.1584C101.921 16.307 101.724 16.3928 101.517 16.3975Z" fill="white"/>
<path d="M55.8692 4.49187H57.0693C57.2794 4.49187 57.4809 4.57563 57.6294 4.72473C57.778 4.87383 57.8615 5.07605 57.8615 5.2869V11.6273C57.8609 11.8853 57.9111 12.1409 58.0091 12.3795C58.107 12.6181 58.2509 12.835 58.4324 13.0177C58.614 13.2004 58.8296 13.3455 59.067 13.4445C59.3045 13.5436 59.559 13.5947 59.8161 13.595H60.5805C61.1658 13.5944 61.727 13.3607 62.1406 12.9452C62.5543 12.5296 62.7867 11.9662 62.7867 11.3788V5.28094C62.7867 5.07008 62.8702 4.86786 63.0187 4.71877C63.1673 4.56967 63.3688 4.48591 63.5789 4.48591H64.7671C64.9772 4.48591 65.1787 4.56967 65.3272 4.71877C65.4758 4.86786 65.5592 5.07008 65.5592 5.28094V11.8698C65.5592 12.4621 65.4429 13.0486 65.217 13.5957C64.991 14.1429 64.6598 14.64 64.2423 15.0587C63.8248 15.4773 63.3292 15.8093 62.7838 16.0356C62.2384 16.2619 61.6539 16.3781 61.0638 16.3776H59.5745C58.3833 16.3776 57.2408 15.9027 56.3985 15.0573C55.5562 14.2119 55.083 13.0653 55.083 11.8698V5.28094C55.0845 5.07215 55.1679 4.87235 55.315 4.72471C55.4621 4.57707 55.6612 4.49343 55.8692 4.49187Z" fill="white"/>
<path d="M52.6867 0.455102H51.4866C51.0524 0.455102 50.7004 0.80838 50.7004 1.24417V15.5368C50.7004 15.9726 51.0524 16.3259 51.4866 16.3259H52.6867C53.1209 16.3259 53.4729 15.9726 53.4729 15.5368V1.24417C53.4729 0.80838 53.1209 0.455102 52.6867 0.455102Z" fill="white"/>
<path d="M43.5611 16.3219C40.4657 16.3219 37.9486 13.6685 37.9486 10.4069C37.9486 7.14529 40.4657 4.49187 43.5611 4.49187C46.6564 4.49187 49.1755 7.14529 49.1755 10.4069C49.1755 13.6685 46.6564 16.3219 43.5611 16.3219ZM43.5611 6.69212C41.3628 6.69212 40.5489 8.59224 40.5489 10.4069C40.5489 12.2216 41.3628 14.1217 43.5611 14.1197C45.7593 14.1177 46.5752 12.2196 46.5752 10.4069C46.5752 8.59423 45.7553 6.69212 43.5611 6.69212Z" fill="white"/>
<path d="M84.67 16.3219C81.5746 16.3219 79.0576 13.6685 79.0576 10.4069C79.0576 7.14529 81.5746 4.49187 84.67 4.49187C87.7654 4.49187 90.2844 7.14529 90.2844 10.4069C90.2844 13.6685 87.7654 16.3219 84.67 16.3219ZM84.67 6.69212C82.4718 6.69212 81.6578 8.59224 81.6578 10.4069C81.6578 12.2216 82.4718 14.1217 84.67 14.1197C86.8682 14.1177 87.6842 12.2196 87.6842 10.4069C87.6842 8.59423 86.8702 6.69212 84.67 6.69212Z" fill="white"/>
<path d="M14.3939 4.49187H13.1938C12.7595 4.49187 12.4075 4.84515 12.4075 5.28094V15.5468C12.4075 15.9826 12.7595 16.3358 13.1938 16.3358H14.3939C14.8281 16.3358 15.1801 15.9826 15.1801 15.5468V5.28094C15.1801 4.84515 14.8281 4.49187 14.3939 4.49187Z" fill="white"/>
<path d="M13.7938 3.4782C14.0905 3.4786 14.3806 3.39064 14.6274 3.22546C14.8743 3.06029 15.0667 2.82532 15.1804 2.55031C15.2942 2.2753 15.324 1.97261 15.2662 1.68056C15.2085 1.38851 15.0656 1.12024 14.8558 0.909698C14.6461 0.699157 14.3788 0.555817 14.0878 0.497825C13.7968 0.439833 13.4952 0.469796 13.2212 0.583922C12.9472 0.698048 12.713 0.891205 12.5485 1.13894C12.3839 1.38667 12.2962 1.67784 12.2966 1.97559C12.2966 2.37411 12.4544 2.75631 12.7351 3.0381C13.0159 3.31989 13.3967 3.4782 13.7938 3.4782Z" fill="white"/>
<path d="M76.7346 4.49187H75.5345C75.1002 4.49187 74.7482 4.84515 74.7482 5.28094V15.5468C74.7482 15.9826 75.1002 16.3358 75.5345 16.3358H76.7346C77.1688 16.3358 77.5208 15.9826 77.5208 15.5468V5.28094C77.5208 4.84515 77.1688 4.49187 76.7346 4.49187Z" fill="white"/>
<path d="M76.1345 3.4782C76.4311 3.4782 76.721 3.38991 76.9676 3.22449C77.2142 3.05908 77.4063 2.82398 77.5198 2.54893C77.6332 2.27389 77.6627 1.97126 77.6047 1.67934C77.5467 1.38743 77.4037 1.11934 77.1939 0.908993C76.984 0.698651 76.7167 0.55551 76.4258 0.49768C76.1348 0.439849 75.8334 0.469929 75.5595 0.584113C75.2856 0.698297 75.0516 0.891454 74.8871 1.13914C74.7226 1.38684 74.635 1.67793 74.6354 1.97559C74.6351 2.17316 74.6737 2.36883 74.749 2.55139C74.8243 2.73394 74.9347 2.89978 75.074 3.03939C75.2133 3.179 75.3787 3.28963 75.5607 3.36493C75.7427 3.44023 75.9377 3.47873 76.1345 3.4782Z" fill="white"/>
<path d="M10.0707 0.397461H2.71352C2.07116 0.397461 1.45511 0.653563 1.0009 1.10943C0.54668 1.56529 0.291504 2.18358 0.291504 2.82827V15.5488C0.291504 15.7596 0.374962 15.9618 0.52352 16.1109C0.672079 16.26 0.873567 16.3438 1.08366 16.3438H2.28378C2.49387 16.3438 2.69536 16.26 2.84392 16.1109C2.99247 15.9618 3.07593 15.7596 3.07593 15.5488V9.27597H8.67846C8.88855 9.27597 9.09004 9.19221 9.2386 9.04311C9.38716 8.89401 9.47061 8.69179 9.47061 8.48094V7.27647C9.47061 7.06561 9.38716 6.86339 9.2386 6.71429C9.09004 6.5652 8.88855 6.48144 8.67846 6.48144H3.06405V3.18007H10.0707C10.2808 3.18007 10.4823 3.09631 10.6308 2.94721C10.7794 2.79811 10.8628 2.59589 10.8628 2.38504V1.17858C10.8592 0.970144 10.7741 0.77148 10.626 0.625379C10.4778 0.479278 10.2784 0.397429 10.0707 0.397461Z" fill="white"/>
<path d="M72.4253 7.50703C72.6354 7.50703 72.8368 7.42326 72.9854 7.27417C73.1339 7.12507 73.2174 6.92285 73.2174 6.712V5.50752C73.2174 5.29667 73.1339 5.09445 72.9854 4.94535C72.8368 4.79625 72.6354 4.71249 72.4253 4.71249H69.9735V1.24814C69.9735 1.03729 69.8901 0.83507 69.7415 0.685973C69.593 0.536876 69.3915 0.453113 69.1814 0.453113H67.9813C67.7712 0.453113 67.5697 0.536876 67.4211 0.685973C67.2726 0.83507 67.1891 1.03729 67.1891 1.24814V12.6389C67.1871 13.199 67.314 13.7519 67.56 14.2545C67.8059 14.7572 68.1643 15.1961 68.6071 15.5368C69.2892 16.0433 70.1194 16.3082 70.9677 16.2901H72.3797C72.5898 16.2901 72.7913 16.2064 72.9398 16.0573C73.0884 15.9082 73.1719 15.706 73.1719 15.4951V14.2906C73.1719 14.0798 73.0884 13.8776 72.9398 13.7285C72.7913 13.5794 72.5898 13.4956 72.3797 13.4956H70.8211C70.7079 13.4956 70.5958 13.4732 70.4913 13.4296C70.3868 13.386 70.2918 13.3221 70.212 13.2415C70.1321 13.161 70.0689 13.0655 70.0259 12.9603C69.983 12.8552 69.9611 12.7426 69.9617 12.629V7.50703H72.4253Z" fill="white"/>
<path d="M33.7799 16.3001H32.6135C32.4914 16.2988 32.3712 16.2691 32.2624 16.2135C32.1536 16.1579 32.0591 16.0778 31.9863 15.9795C31.9134 15.8812 31.8642 15.7673 31.8424 15.6467C31.8207 15.5261 31.827 15.4021 31.8609 15.2844L35.9464 1.68938C35.9958 1.52739 36.0954 1.38546 36.2308 1.28428C36.3662 1.1831 36.5302 1.12796 36.699 1.1269H37.8655C37.9878 1.12812 38.1081 1.15776 38.2171 1.21348C38.3261 1.2692 38.4207 1.34949 38.4936 1.44807C38.5665 1.54664 38.6157 1.66082 38.6373 1.78165C38.6589 1.90249 38.6522 2.02669 38.618 2.14454L34.5325 15.7396C34.4827 15.9012 34.383 16.0427 34.2476 16.1435C34.1123 16.2443 33.9484 16.2991 33.7799 16.3001Z" fill="white"/>
<path d="M29.2012 1.1269H28.0368C27.9145 1.12812 27.7941 1.15776 27.6851 1.21348C27.5761 1.2692 27.4815 1.34949 27.4086 1.44807C27.3357 1.54664 27.2865 1.66082 27.2649 1.78165C27.2434 1.90249 27.25 2.02669 27.2842 2.14454L30.5578 13.0444C30.5855 13.1375 30.6424 13.2191 30.72 13.2771C30.7976 13.3351 30.8918 13.3664 30.9885 13.3664C31.0853 13.3664 31.1795 13.3351 31.2571 13.2771C31.3347 13.2191 31.3916 13.1375 31.4193 13.0444L32.3243 10.0372C32.3678 9.88863 32.3678 9.73063 32.3243 9.58205L29.9478 1.69535C29.8998 1.53321 29.8015 1.39066 29.6673 1.28843C29.533 1.1862 29.3697 1.12962 29.2012 1.1269Z" fill="white"/>
</svg>
