<svg width="91" height="25" viewBox="0 0 91 25" fill="none" xmlns="http://www.w3.org/2000/svg">
<mask id="mask0_493_132" style="mask-type:luminance" maskUnits="userSpaceOnUse" x="0" y="0" width="21" height="25">
<path d="M20.7059 0.397461H0V24.3975H20.7059V0.397461Z" fill="white"/>
</mask>
<g mask="url(#mask0_493_132)">
<path d="M20.4172 6.30669L10.5817 0.47057C10.5001 0.422179 10.4077 0.396968 10.3137 0.397468C10.2197 0.397969 10.1275 0.424165 10.0464 0.473422L0.265372 6.40605C0.184231 6.4554 0.117001 6.52605 0.0704253 6.61092C0.0238499 6.69579 -0.000435179 6.79189 5.90297e-06 6.88959L0.0178495 10.8477C0.0185735 10.9946 0.0751513 11.1353 0.175252 11.239C0.275353 11.3428 0.410861 11.4012 0.552242 11.4016L2.29085 11.413C2.36167 11.4135 2.43187 11.3993 2.49739 11.3713C2.56291 11.3434 2.62245 11.3023 2.67257 11.2503C2.72269 11.1983 2.7624 11.1365 2.78939 11.0685C2.81638 11.0004 2.83012 10.9275 2.82981 10.8539L2.81929 8.56126C2.81879 8.46359 2.84305 8.36753 2.88964 8.28273C2.93623 8.19793 3.00349 8.12739 3.08466 8.07819L10.0619 3.84435C10.1433 3.79552 10.2357 3.76982 10.3296 3.76982C10.4236 3.76982 10.5159 3.79552 10.5973 3.84435L17.6148 8.00453C17.6964 8.05299 17.7643 8.12293 17.8117 8.20733C17.8591 8.29166 17.8843 8.38753 17.8847 8.4852L17.8962 10.9661C17.8961 11.1131 17.952 11.2542 18.0517 11.3585C18.1514 11.4629 18.2868 11.5219 18.4283 11.5228L20.1669 11.5347C20.2377 11.5351 20.3079 11.521 20.3735 11.4931C20.439 11.4651 20.4985 11.424 20.5487 11.372C20.5987 11.32 20.6385 11.2582 20.6655 11.1901C20.6925 11.1221 20.7062 11.0492 20.7059 10.9756L20.6867 6.78879C20.6866 6.69089 20.6616 6.59474 20.6143 6.51009C20.567 6.42543 20.499 6.35526 20.4172 6.30669Z" fill="white"/>
<path d="M20.1564 13.391L18.4178 13.3791C18.3471 13.3787 18.2769 13.3929 18.2115 13.4207C18.146 13.4487 18.0865 13.4898 18.0364 13.5417C17.9863 13.5937 17.9467 13.6555 17.9197 13.7235C17.8927 13.7915 17.879 13.8643 17.8793 13.9379L17.8889 16.2337C17.8894 16.3314 17.8651 16.4275 17.8185 16.5123C17.7719 16.5971 17.7047 16.6676 17.6236 16.7169L10.6437 20.9495C10.5625 20.9986 10.4705 21.0247 10.3766 21.0251C10.2827 21.0255 10.1904 21.0003 10.1089 20.9519L3.09099 16.7868C3.00938 16.7384 2.94146 16.6685 2.89407 16.5843C2.84669 16.4999 2.82151 16.4041 2.82106 16.3065L2.80962 13.8247C2.80902 13.6783 2.75291 13.5381 2.65346 13.4345C2.55401 13.3309 2.41926 13.2722 2.27844 13.2712L0.539875 13.2598C0.469003 13.2591 0.398715 13.2731 0.333091 13.301C0.267466 13.3288 0.207812 13.3699 0.157589 13.4219C0.107366 13.4739 0.0675747 13.5357 0.0405233 13.6038C0.0134719 13.6719 -0.000300509 13.7449 4.97257e-06 13.8185L0.0192207 18.0065C0.0196665 18.1041 0.04485 18.1999 0.0922367 18.2843C0.139623 18.3686 0.207542 18.4384 0.289156 18.4868L10.1258 24.3239C10.2073 24.3723 10.2997 24.3975 10.3936 24.397C10.4875 24.3965 10.5796 24.3703 10.6606 24.3211L20.4405 18.3869C20.5217 18.3377 20.5889 18.2671 20.6355 18.1823C20.6821 18.0975 20.7063 18.0015 20.7059 17.9038L20.688 13.9445C20.6873 13.7981 20.6311 13.6579 20.5316 13.5543C20.4321 13.4507 20.2973 13.392 20.1564 13.391Z" fill="white"/>
<path d="M5.11746 9.03039L10.0981 6.1548C10.1805 6.10713 10.2739 6.08203 10.3691 6.08203C10.4643 6.08203 10.5577 6.10713 10.6401 6.1548L15.6208 9.03039C15.7033 9.07786 15.7717 9.14626 15.8193 9.22872C15.8669 9.31112 15.8919 9.40459 15.8918 9.49979V15.2509C15.8919 15.3461 15.8669 15.4395 15.8193 15.5218C15.7717 15.6041 15.7032 15.6725 15.6208 15.7199L10.6401 18.5955C10.5577 18.6431 10.4643 18.6682 10.3691 18.6682C10.2739 18.6682 10.1805 18.6431 10.0981 18.5955L5.11746 15.7199C5.03504 15.6725 4.96658 15.6041 4.91899 15.5218C4.87141 15.4395 4.84638 15.3461 4.84644 15.2509V9.49979C4.84635 9.40459 4.87136 9.31112 4.91894 9.22872C4.96652 9.14626 5.035 9.07786 5.11746 9.03039Z" fill="white"/>
<path d="M15.877 9.36133C15.8641 9.41126 15.8415 9.45813 15.8103 9.49913C15.7791 9.5402 15.74 9.5746 15.6953 9.60033L10.5613 12.5639C10.5022 12.5978 10.4353 12.6158 10.3672 12.6159V18.74C10.4353 18.74 10.5023 18.7221 10.5613 18.6879L15.6953 15.7243C15.7542 15.6904 15.8031 15.6417 15.8372 15.583C15.8713 15.5243 15.8895 15.4577 15.8899 15.3897V9.46266C15.8901 9.42846 15.8857 9.39439 15.877 9.36133Z" fill="white"/>
<path d="M10.1746 12.5639L5.0405 9.60033C4.99591 9.57453 4.95692 9.54013 4.92581 9.49913C4.8947 9.45806 4.8721 9.41119 4.85934 9.36133C4.85088 9.39246 4.84654 9.42459 4.84644 9.45693V15.384C4.8468 15.4519 4.8649 15.5184 4.89894 15.5771C4.93299 15.6358 4.98179 15.6846 5.0405 15.7186L10.1746 18.6821C10.2337 18.7164 10.3008 18.7343 10.3691 18.7342V12.6159C10.3009 12.6158 10.2338 12.5979 10.1746 12.5639Z" fill="white"/>
</g>
<path d="M32.784 18.283C31.6196 18.283 30.6021 18.0183 29.7316 17.489C28.8612 16.9597 28.1849 16.2245 27.7026 15.2835C27.2204 14.3308 26.9792 13.225 26.9792 11.9664C26.9792 10.6961 27.2262 9.57865 27.7202 8.61412C28.226 7.63785 28.9377 6.87913 29.8552 6.33805C30.7844 5.78521 31.8842 5.50879 33.1546 5.50879C34.6014 5.50879 35.8012 5.85578 36.754 6.54978C37.7067 7.24378 38.3242 8.20245 38.6066 9.42572H36.0835C35.8952 8.84938 35.5542 8.40238 35.0601 8.08478C34.5661 7.75545 33.9309 7.59078 33.1546 7.59078C31.9195 7.59078 30.9667 7.98485 30.2962 8.77292C29.6258 9.54925 29.2906 10.6196 29.2906 11.9841C29.2906 13.3486 29.6199 14.4072 30.2786 15.16C30.9491 15.901 31.8548 16.2716 32.9958 16.2716C34.1132 16.2716 34.9542 15.9717 35.5188 15.3717C36.0952 14.7601 36.4422 13.9602 36.5598 12.9722H33.4369V11.2784H38.8359V18.0712H36.754L36.5775 16.448C36.1776 17.0362 35.6776 17.489 35.0778 17.8066C34.4779 18.1242 33.7133 18.283 32.784 18.283Z" fill="white"/>
<path d="M39.7844 18.0715V9.32013H41.7958L42.0076 10.9611C42.3252 10.3965 42.7545 9.94947 43.2956 9.62013C43.8484 9.279 44.4954 9.1084 45.2364 9.1084V11.4903H44.6012C44.1072 11.4903 43.6661 11.5668 43.2779 11.7197C42.8898 11.8727 42.584 12.1373 42.3604 12.5137C42.1487 12.8901 42.0428 13.4135 42.0428 14.084V18.0715H39.7844Z" fill="white"/>
<path d="M46.8034 7.96087C46.3916 7.96087 46.0506 7.83733 45.78 7.59033C45.5212 7.34333 45.3918 7.03159 45.3918 6.65519C45.3918 6.27879 45.5212 5.97296 45.78 5.73771C46.0506 5.49069 46.3916 5.36719 46.8034 5.36719C47.215 5.36719 47.5503 5.49069 47.809 5.73771C48.0796 5.97296 48.2149 6.27879 48.2149 6.65519C48.2149 7.03159 48.0796 7.34333 47.809 7.59033C47.5503 7.83733 47.215 7.96087 46.8034 7.96087ZM45.6742 18.0708V9.3194H47.9326V18.0708H45.6742Z" fill="white"/>
<path d="M53.1186 18.2825C52.2953 18.2825 51.5601 18.0826 50.9131 17.6827C50.2662 17.2827 49.7545 16.7357 49.3781 16.0417C49.0017 15.3478 48.8135 14.5597 48.8135 13.6775C48.8135 12.7953 49.0017 12.0131 49.3781 11.3309C49.7545 10.6369 50.2662 10.0957 50.9131 9.7076C51.5601 9.30767 52.2953 9.10767 53.1186 9.10767C53.7773 9.10767 54.3537 9.2312 54.8477 9.4782C55.3417 9.72527 55.7417 10.0723 56.0475 10.5192V5.36719H58.3059V18.0708H56.2945L56.0475 16.8181C55.7652 17.2063 55.3888 17.5474 54.9183 17.8415C54.4595 18.1355 53.8597 18.2825 53.1186 18.2825ZM53.595 16.3064C54.3243 16.3064 54.9183 16.0653 55.3771 15.583C55.8475 15.089 56.0828 14.4597 56.0828 13.6951C56.0828 12.9305 55.8475 12.3071 55.3771 11.8249C54.9183 11.3309 54.3243 11.0838 53.595 11.0838C52.8775 11.0838 52.2835 11.3249 51.813 11.8072C51.3425 12.2895 51.1072 12.9129 51.1072 13.6775C51.1072 14.4421 51.3425 15.0713 51.813 15.5654C52.2835 16.0594 52.8775 16.3064 53.595 16.3064Z" fill="white"/>
<path d="M59.4116 18.0708V5.36719H61.67V18.0708H59.4116Z" fill="white"/>
<path d="M66.9826 18.2833C66.1359 18.2833 65.3713 18.0892 64.6891 17.701C64.0186 17.3129 63.4834 16.7777 63.0835 16.0954C62.6954 15.4015 62.5012 14.6016 62.5012 13.6959C62.5012 12.7901 62.7012 11.9961 63.1012 11.3139C63.5011 10.6199 64.0363 10.0789 64.7068 9.69067C65.389 9.30253 66.1536 9.1084 67.0006 9.1084C67.8359 9.1084 68.5886 9.30253 69.2586 9.69067C69.9412 10.0789 70.4766 10.6199 70.8646 11.3139C71.2646 11.9961 71.4646 12.7901 71.4646 13.6959C71.4646 14.6016 71.2646 15.4015 70.8646 16.0954C70.4766 16.7777 69.9412 17.3129 69.2586 17.701C68.5766 18.0892 67.8179 18.2833 66.9826 18.2833ZM66.9826 16.3248C67.5712 16.3248 68.0826 16.1072 68.5179 15.672C68.9532 15.225 69.1706 14.5663 69.1706 13.6959C69.1706 12.8254 68.9532 12.1726 68.5179 11.7374C68.0826 11.2904 67.5766 11.0669 67.0006 11.0669C66.4006 11.0669 65.883 11.2904 65.4478 11.7374C65.0243 12.1726 64.8126 12.8254 64.8126 13.6959C64.8126 14.5663 65.0243 15.225 65.4478 15.672C65.883 16.1072 66.3947 16.3248 66.9826 16.3248Z" fill="white"/>
<path d="M76.5773 18.2833C75.6833 18.2833 74.8953 18.0892 74.2127 17.701C73.5307 17.3129 72.9893 16.7718 72.5893 16.0778C72.2013 15.3838 72.0073 14.5898 72.0073 13.6959C72.0073 12.8019 72.2013 12.0079 72.5893 11.3139C72.9893 10.6199 73.5307 10.0789 74.2127 9.69067C74.8953 9.30253 75.6833 9.1084 76.5773 9.1084C77.6947 9.1084 78.6353 9.40247 79.4 9.9906C80.1647 10.567 80.6527 11.3669 80.8647 12.3902H78.4827C78.3653 11.9667 78.13 11.6374 77.7767 11.4021C77.436 11.1551 77.03 11.0316 76.5593 11.0316C75.936 11.0316 75.4067 11.2669 74.9713 11.7374C74.5367 12.2079 74.3187 12.8607 74.3187 13.6959C74.3187 14.531 74.5367 15.1838 74.9713 15.6543C75.4067 16.1249 75.936 16.3601 76.5593 16.3601C77.03 16.3601 77.436 16.2425 77.7767 16.0072C78.13 15.7719 78.3653 15.4367 78.4827 15.0015H80.8647C80.6527 15.9895 80.1647 16.7835 79.4 17.3835C78.6353 17.9833 77.6947 18.2833 76.5773 18.2833Z" fill="white"/>
<path d="M81.6753 18.0708V5.36719H83.9333V12.8659L87.0386 9.3194H89.7206L86.1393 13.3069L90.3026 18.0708H87.48L83.9333 13.6775V18.0708H81.6753Z" fill="white"/>
</svg>
