<svg width="72" height="24" viewBox="0 0 72 24" fill="none" xmlns="http://www.w3.org/2000/svg">
<path d="M61.5218 22.4888V23.9996H71.9192V17.1853H70.4042V22.4888H61.5218ZM61.5218 0V1.51096H70.4042V6.81472H71.9192V0H61.5218ZM56.16 11.689V8.17796H58.5366C59.6953 8.17796 60.1112 8.56305 60.1112 9.61506V10.2372C60.1112 11.3186 59.71 11.689 58.5366 11.689H56.16ZM59.9326 12.311C61.0167 12.0296 61.7741 11.022 61.7741 9.8223C61.7741 9.06682 61.4773 8.38521 60.9129 7.83698C60.1999 7.15536 59.249 6.81472 58.0164 6.81472H54.6745V17.1849H56.16V13.0518H58.3881C59.5316 13.0518 59.9922 13.5258 59.9922 14.7112V17.1853H61.5072V14.9482C61.5072 13.3186 61.121 12.6965 59.9326 12.5187V12.311ZM47.4264 12.6517H52.0013V11.2888H47.4264V8.17761H52.4468V6.81472H45.9112V17.1849H52.6696V15.822H47.4264V12.6517ZM42.4503 13.1999V13.9109C42.4503 15.4072 41.9006 15.8962 40.5195 15.8962H40.1927C38.8112 15.8962 38.1429 15.4516 38.1429 13.3925V10.6072C38.1429 8.53329 38.8411 8.10339 40.2222 8.10339H40.5191C41.8709 8.10339 42.3016 8.60715 42.3163 9.99979H43.9503C43.8018 7.95531 42.4353 6.66666 40.3854 6.66666C39.3904 6.66666 38.5585 6.97787 37.9348 7.57022C36.999 8.44438 36.4792 9.92593 36.4792 11.9998C36.4792 13.9999 36.9249 15.4814 37.8457 16.3997C38.4694 17.0071 39.331 17.333 40.1777 17.333C41.0688 17.333 41.886 16.9773 42.3016 16.2071H42.5093V17.1849H43.8758V11.837H39.8506V13.1999H42.4503ZM29.3501 8.17761H30.9692C32.4993 8.17761 33.3311 8.56269 33.3311 10.6369V13.3627C33.3311 15.4366 32.4993 15.822 30.9692 15.822H29.3501V8.17761ZM31.1027 17.1853C33.9398 17.1853 34.9941 15.0372 34.9941 12.0002C34.9941 8.91874 33.8654 6.81508 31.0728 6.81508H27.8644V17.1853H31.1027ZM20.6907 12.6517H25.2656V11.2888H20.6907V8.17761H25.711V6.81472H19.1753V17.1849H25.9339V15.822H20.6907V12.6517ZM11.9273 6.81472H10.4123V17.1849H17.2449V15.822H11.9273V6.81472ZM0 17.1853V24H10.3973V22.4888H1.5149V17.1853H0ZM0 0V6.81472H1.5149V1.51096H10.3973V0H0Z" fill="white"/>
</svg>
