<svg width="105" height="20" viewBox="0 0 105 20" fill="none" xmlns="http://www.w3.org/2000/svg">
<g clip-path="url(#clip0_546_4119)">
<path d="M99.1799 0.224609L100.991 1.48686L100.895 5.3001L99.0845 4.03785L99.1799 0.224609Z" fill="#D8D8D8"/>
<path d="M99.0686 4.68164L100.88 5.94389L100.679 13.9545L98.8684 12.6922L99.0686 4.68164Z" fill="#D8D8D8"/>
<path d="M103.143 14.3047L104.954 15.5669L104.86 19.3299L103.049 18.0676L103.143 14.3047Z" fill="#D8D8D8"/>
<path d="M80.1487 3.99512L81.9597 5.25737L81.8549 9.44942L80.0439 8.18717L80.1487 3.99512Z" fill="#D8D8D8"/>
<path d="M70.6789 11.5986L72.4899 12.8609L72.3294 19.2648L70.5198 18.0026L70.6789 11.5986Z" fill="#D8D8D8"/>
<path d="M70.9652 0.104492L72.7762 1.36675L72.6131 7.87668L70.8035 6.61443L70.9652 0.104492Z" fill="#D8D8D8"/>
<path d="M74.0251 6.9502L75.8361 8.21245L73.569 8.23761L71.7581 6.97536L74.0251 6.9502Z" fill="#D8D8D8"/>
<path d="M91.4057 0.163086L93.2167 1.42534L92.9926 8.65051L91.1816 7.38826L91.4057 0.163086Z" fill="#D8D8D8"/>
<path d="M85.7765 3.93262L87.5875 5.19487L81.9597 5.25712L80.1487 3.99487L85.7765 3.93262Z" fill="#D8D8D8"/>
<path d="M85.9289 8.12207L87.7399 9.38432L87.6563 12.7313L85.8467 11.4691L85.9289 8.12207Z" fill="#D8D8D8"/>
<path d="M91.1816 7.3877L92.9926 8.64995L87.4999 8.71087L85.689 7.44862L91.1816 7.3877Z" fill="#D8D8D8"/>
<path d="M2.70178 4.71484L4.51144 5.9771L2.14497 6.00359L0.333984 4.74133L2.70178 4.71484Z" fill="#D8D8D8"/>
<path d="M10.162 0L11.973 1.26225L11.8576 5.89536L10.0466 4.63311L10.162 0Z" fill="#D8D8D8"/>
<path d="M10.0465 4.63281L11.8575 5.89506L9.92856 5.91758L8.1189 4.65533L10.0465 4.63281Z" fill="#D8D8D8"/>
<path d="M8.11901 4.65527L9.92867 5.91753L9.69003 15.495L7.88037 14.2327L8.11901 4.65527Z" fill="#D8D8D8"/>
<path d="M21.2015 17.9219L23.0112 19.1841L1.81098 19.4212L0 18.159L21.2015 17.9219Z" fill="#D8D8D8"/>
<path d="M21.3751 11.0137L23.194 12.2667L23.0111 19.1845L21.2014 17.9222L21.3751 11.0137Z" fill="#D8D8D8"/>
<path d="M29.3349 5.31934L31.1446 6.58159L31.1062 8.16172L29.2952 6.89947L29.3349 5.31934Z" fill="#D8D8D8"/>
<mask id="mask0_546_4119" style="mask-type:luminance" maskUnits="userSpaceOnUse" x="23" y="18" width="5" height="2">
<path d="M25.1311 19.358L23.3201 18.0957C23.8795 18.4851 24.5623 18.7103 25.3061 18.701L27.117 19.9633C26.3746 19.9712 25.6905 19.7474 25.1311 19.358Z" fill="white"/>
</mask>
<g mask="url(#mask0_546_4119)">
<path d="M25.3061 18.701L27.117 19.9633C26.3746 19.9712 25.6905 19.7474 25.1311 19.358L23.3201 18.0957C23.8795 18.4851 24.5623 18.7103 25.3061 18.701Z" fill="#D8D8D8"/>
</g>
<path d="M29.123 10.1553L30.934 11.4175L30.8173 16.0665L29.0063 14.8043L29.123 10.1553Z" fill="#D8D8D8"/>
<path d="M37.2312 5.23047L39.0422 6.49272L31.1446 6.58146L29.335 5.31921L37.2312 5.23047Z" fill="#D8D8D8"/>
<mask id="mask1_546_4119" style="mask-type:luminance" maskUnits="userSpaceOnUse" x="40" y="1" width="6" height="8">
<path d="M40.4092 1.7041L42.2202 2.96635C43.9887 4.19947 45.1169 6.28688 45.0573 8.66569L43.2463 7.40344C43.306 5.02331 42.1777 2.93721 40.4092 1.7041Z" fill="white"/>
</mask>
<g mask="url(#mask1_546_4119)">
<path d="M40.4092 1.7041L42.2202 2.96635C42.3938 3.08688 42.5609 3.21668 42.7213 3.35311L40.9103 2.09086C40.7499 1.95443 40.5829 1.82463 40.4092 1.7041Z" fill="#D8D8D8"/>
<path d="M40.9104 2.09082L42.7214 3.35307C42.9507 3.54777 43.1668 3.75969 43.367 3.98486L41.556 2.72261C41.3559 2.49744 41.1398 2.28685 40.9104 2.09082Z" fill="#D8D8D8"/>
<path d="M41.5559 2.72266L43.3669 3.98491C43.6413 4.29219 43.8866 4.62597 44.1 4.98226L42.2891 3.72001C42.0756 3.36372 41.829 3.02994 41.5559 2.72266Z" fill="#D8D8D8"/>
<path d="M42.2891 3.71973L44.1 4.98198C44.5999 5.81377 44.9247 6.76873 45.0254 7.79655L43.2144 6.5343C43.1137 5.50648 42.7889 4.55284 42.2891 3.71973Z" fill="#D8D8D8"/>
<path d="M43.2146 6.53418L45.0256 7.79643C45.0534 8.0812 45.064 8.37127 45.0574 8.66663L43.2464 7.40438C43.2544 7.10901 43.2424 6.81895 43.2146 6.53418Z" fill="#D8D8D8"/>
</g>
<path d="M43.1811 9.99902L44.9921 11.2613L30.9338 11.4176L29.1228 10.1553L43.1811 9.99902Z" fill="#D8D8D8"/>
<path d="M43.2461 7.4043L45.0571 8.66655L44.9921 11.2613L43.1812 9.999L43.2461 7.4043Z" fill="#D8D8D8"/>
<path d="M39.4321 18.543L41.2431 19.8052L27.1171 19.9628L25.3062 18.7006L39.4321 18.543Z" fill="#D8D8D8"/>
<path d="M43.1414 11.5801L44.9524 12.8423L44.8688 16.1841L43.0579 14.9218L43.1414 11.5801Z" fill="#D8D8D8"/>
<mask id="mask2_546_4119" style="mask-type:luminance" maskUnits="userSpaceOnUse" x="39" y="14" width="6" height="6">
<path d="M43.0581 14.9219L44.8691 16.1841C44.82 18.1616 43.196 19.7841 41.2431 19.8053L39.4321 18.5431C41.385 18.5219 43.009 16.8994 43.0581 14.9219Z" fill="white"/>
</mask>
<g mask="url(#mask2_546_4119)">
<path d="M43.0581 14.9219L44.8691 16.1841C44.8677 16.257 44.8638 16.3311 44.8571 16.4027L43.0461 15.1404C43.0528 15.0676 43.0567 14.9947 43.0581 14.9219Z" fill="#D8D8D8"/>
<path d="M43.0461 15.1406L44.8571 16.4029C44.8438 16.5631 44.82 16.7194 44.7868 16.8731L42.9758 15.6108C43.009 15.4572 43.0328 15.3009 43.0461 15.1406Z" fill="#D8D8D8"/>
<path d="M42.9758 15.6104L44.7867 16.8726C44.7576 17.0077 44.7205 17.1402 44.6767 17.27L42.8657 16.0077C42.9095 15.8779 42.9466 15.7455 42.9758 15.6104Z" fill="#D8D8D8"/>
<path d="M42.8671 16.0078L44.678 17.2701C44.6369 17.3932 44.5892 17.5124 44.5349 17.6303L42.7239 16.3681C42.7769 16.2515 42.8246 16.131 42.8671 16.0078Z" fill="#D8D8D8"/>
<path d="M42.724 16.3682L44.535 17.6304C44.482 17.747 44.4223 17.8609 44.3574 17.9708L42.5464 16.7086C42.6113 16.5986 42.671 16.4847 42.724 16.3682Z" fill="#D8D8D8"/>
<path d="M42.5462 16.709L44.3572 17.9712C44.2896 18.0865 44.2167 18.1964 44.1372 18.3024L42.3262 17.0401C42.4044 16.9341 42.4786 16.8229 42.5462 16.709Z" fill="#D8D8D8"/>
<path d="M42.3262 17.04L44.1372 18.3023C44.0497 18.4215 43.9542 18.5341 43.8535 18.6414L42.0425 17.3791C42.1432 17.2718 42.2387 17.1579 42.3262 17.04Z" fill="#D8D8D8"/>
<path d="M42.0438 17.3799L43.8547 18.6421C43.7314 18.7733 43.6002 18.8951 43.4597 19.0064L41.6487 17.7441C41.7892 17.6329 41.9205 17.511 42.0438 17.3799Z" fill="#D8D8D8"/>
<path d="M41.6488 17.7441L43.4598 19.0064C42.8446 19.4978 42.073 19.7971 41.2431 19.8051L39.4321 18.5428C40.2621 18.5335 41.0323 18.2355 41.6488 17.7441Z" fill="#D8D8D8"/>
</g>
<path d="M47.6662 6.77832L49.4772 8.04057L45.6325 8.08296L43.8215 6.8207L47.6662 6.77832Z" fill="#D8D8D8"/>
<path d="M52.5132 6.63184L54.3228 7.89409L53.2211 7.90733L51.4102 6.64508L52.5132 6.63184Z" fill="#D8D8D8"/>
<path d="M51.4103 6.64551L53.2213 7.90776L53.1855 13.0203L51.3745 11.7581L51.4103 6.64551Z" fill="#D8D8D8"/>
<path d="M55.5266 0.276367L57.3363 1.53861L58.9338 10.724L57.1242 9.46179L55.5266 0.276367Z" fill="#D8D8D8"/>
<path d="M52.8579 18.1982L54.6689 19.4605L45.3448 19.5651L43.5352 18.3029L52.8579 18.1982Z" fill="#D8D8D8"/>
<path d="M53.0197 11.7393L54.8306 13.0015L54.6689 19.4611L52.8579 18.1989L53.0197 11.7393Z" fill="#D8D8D8"/>
<path d="M63.2532 6.60547L65.0642 7.86772L63.6867 7.88229L61.8757 6.62004L63.2532 6.60547Z" fill="#D8D8D8"/>
<path d="M61.8757 6.62012L63.6866 7.88237L61.1982 15.6267L59.3872 14.3644L61.8757 6.62012Z" fill="#D8D8D8"/>
<path d="M59.3872 14.3643L61.1982 15.6265L56.1484 15.6821L54.3374 14.4199L59.3872 14.3643Z" fill="#D8D8D8"/>
<path d="M67.0143 6.65723L68.8253 7.91948L68.702 12.848L66.8923 11.5857L67.0143 6.65723Z" fill="#D8D8D8"/>
<path d="M70.8034 6.61426L72.6131 7.87651L68.8254 7.91889L67.0144 6.65664L70.8034 6.61426Z" fill="#D8D8D8"/>
<path d="M70.5197 18.0029L72.3294 19.2652L63.0332 19.3685L61.2222 18.1062L70.5197 18.0029Z" fill="#D8D8D8"/>
<path d="M99.0846 4.03809L100.896 5.30034L93.8253 5.37848L92.0156 4.11623L99.0846 4.03809Z" fill="#D8D8D8"/>
<path d="M91.1817 7.38826L85.6891 7.44918L85.7766 3.93263L80.1488 3.99488L80.044 8.18693L85.9291 8.12203L85.8469 11.4691L80.0241 11.4743L80.0162 11.7737L79.8518 18.3643L71.4717 18.4571L71.6361 11.8677L73.9031 11.8426L74.0251 6.94984L71.758 6.97501L71.9224 0.384278L74.1895 0.359112L91.4058 0.163086L91.1817 7.38826Z" fill="white"/>
<path d="M10.1619 0L10.0466 4.63311L8.11894 4.65563L7.8803 14.2331L11.7369 14.1894L11.8125 11.1205L21.3752 11.0132L21.2015 17.9219L0 18.1589L0.0954545 14.3192L2.49905 12.8053L2.70189 4.71523L0.334091 4.74172L0.450758 0.108609L10.1619 0Z" fill="white"/>
<path d="M43.1812 9.99895L29.1229 10.1552L29.0075 14.8043L31.4854 14.7765L31.5623 11.7089L43.1428 11.5804L43.0592 14.9222C43.0102 16.8997 41.3861 18.5222 39.4333 18.5434L25.3073 18.701C23.3545 18.7222 21.81 17.1368 21.859 15.1579L22.046 7.64001C22.1414 3.80028 25.2928 0.654581 29.0818 0.612197L36.5564 0.528753C40.3467 0.486369 43.3403 3.56452 43.2448 7.40293L43.1799 9.99763L43.1812 9.99895ZM29.335 5.31948L29.2952 6.89961L37.1914 6.8122L37.2312 5.23207L29.335 5.31948Z" fill="white"/>
<path d="M70.9651 0.104492L70.8033 6.61443L67.0143 6.65682L66.8924 11.5853L70.6787 11.5985L70.5196 18.0025L61.2221 18.1058L61.3812 11.7389L63.1259 11.7191L63.2531 6.60516L61.8757 6.61973L59.3872 14.3641L54.3374 14.4197L52.5132 6.63165L51.4102 6.64489L51.3744 11.7575L53.0196 11.7389L52.8579 18.1985L43.5352 18.3032L43.6956 11.8436L47.5416 11.7999L47.6662 6.77867L43.8215 6.82105L43.9819 0.405154L55.5266 0.276677L57.1242 9.46211L59.5013 0.231644L70.9651 0.104492Z" fill="white"/>
<path d="M99.18 0.224609L99.0846 4.03785L92.0156 4.116L92.1111 0.30408L99.18 0.224609Z" fill="white"/>
<path d="M99.0686 4.68164L98.8684 12.6922L103.143 14.3042L103.049 18.0671L87.8076 18.2367L87.9017 14.4737L91.7067 12.7717L91.9069 4.76111L99.0686 4.68164Z" fill="white"/>
<path d="M103.049 18.0674L104.86 19.3296L89.6186 19.4992L87.8076 18.2369L103.049 18.0674Z" fill="#D8D8D8"/>
<path d="M80.0241 11.4746L81.8337 12.7369L81.8271 13.0362L80.0161 11.7739L80.0241 11.4746Z" fill="#D8D8D8"/>
<path d="M79.8518 18.3643L81.6628 19.6265L73.2827 19.7192L71.4717 18.457L79.8518 18.3643Z" fill="#D8D8D8"/>
<path d="M80.0162 11.7734L81.8272 13.0357L81.6628 19.6265L79.8518 18.3642L80.0162 11.7734Z" fill="#D8D8D8"/>
<path d="M85.8467 11.4688L87.6563 12.731L81.8336 12.7363L80.0239 11.474L85.8467 11.4688Z" fill="#D8D8D8"/>
</g>
<defs>
<clipPath id="clip0_546_4119">
<rect width="105" height="20" fill="white"/>
</clipPath>
</defs>
</svg>
