<svg width="137" height="20" viewBox="0 0 137 20" fill="none" xmlns="http://www.w3.org/2000/svg">
<g clip-path="url(#clip0_2789_50)">
<path d="M103.072 0H107.19L94.0849 19.9981H89.9126L103.072 0Z" fill="white"/>
<path d="M95.6601 9.04091L90.0061 0H94.4884L96.7059 3.9738C97.3899 5.19995 97.3094 6.71125 96.4987 7.85658C96.2219 8.24764 95.9396 8.64521 95.6601 9.04091Z" fill="white"/>
<path d="M101.43 10.9355L107.097 19.9978H102.615L100.384 16.0018C99.6998 14.7774 99.7804 13.267 100.59 12.1227C100.868 11.7307 101.15 11.3313 101.43 10.9355Z" fill="white"/>
<path d="M108.232 20L108.23 0H115.88C117.315 0 118.51 0.225721 119.463 0.678092C120.418 1.13046 121.13 1.74725 121.603 2.5303C122.075 3.31336 122.312 4.19674 122.312 5.18136C122.312 5.996 122.159 6.69081 121.851 7.26859C121.543 7.84636 121.127 8.3136 120.601 8.67121C120.075 9.02884 119.487 9.28894 118.836 9.44963C118.836 9.44963 120.229 9.88992 120.876 10.2884C121.522 10.686 122.053 11.2433 122.468 11.9595C122.882 12.6748 123.09 13.5386 123.09 14.5501C123.09 15.5617 122.843 16.5166 122.347 17.335C121.853 18.1542 121.103 18.8026 120.1 19.281C119.097 19.7604 117.834 20 116.309 20H108.232ZM111.841 8.50959H115.425C116.041 8.50959 116.598 8.39348 117.097 8.16033C117.596 7.9281 117.991 7.59928 118.281 7.17384C118.57 6.74934 118.716 6.24587 118.716 5.66439C118.716 4.89526 118.444 4.25711 117.899 3.7518C117.356 3.24649 116.557 2.99382 115.506 2.99382H111.842L111.841 8.50959ZM111.841 16.9792L115.719 16.9782C117.029 16.9782 117.976 16.7229 118.56 16.2139C119.144 15.7039 119.437 15.0546 119.437 14.2677C119.437 13.6686 119.289 13.1318 118.995 12.6571C118.701 12.1834 118.284 11.8072 117.745 11.5294C117.205 11.2517 116.57 11.1142 115.839 11.1142H111.841V16.9792Z" fill="white"/>
<path d="M122.913 3.03284V0H135.891V3.03284H131.195V19.9981H127.624V3.03284H122.913Z" fill="white"/>
<path fill-rule="evenodd" clip-rule="evenodd" d="M30.9419 0H22.7307V19.999H27.5314V13.1523H29.8917L33.1798 19.3422C33.3863 19.7314 33.7899 19.9748 34.2294 19.9748H38.7839L34.6767 12.4284C34.7023 12.4171 34.7278 12.4057 34.7532 12.3942C35.8675 11.8889 36.7255 11.1532 37.3271 10.1863C37.9286 9.22021 38.2294 8.01634 38.2294 6.65646C38.2294 5.29653 37.9332 4.11779 37.34 3.12019C36.7477 2.12252 35.9074 1.3534 34.8198 0.81186C33.7324 0.270317 32.4394 0 30.9419 0ZM29.9119 9.34002H27.5314V3.90601H29.8979C30.6291 3.90601 31.2428 4.00632 31.737 4.20792C32.2322 4.40856 32.606 4.71321 32.8606 5.12005C33.1151 5.52694 33.2418 6.03876 33.2418 6.65646C33.2418 7.27416 33.1142 7.78132 32.8606 8.17986C32.606 8.57744 32.2322 8.87095 31.737 9.05856C31.2428 9.24624 30.6337 9.34002 29.9119 9.34002Z" fill="white"/>
<path d="M44.6838 0V18.8064C44.6838 19.465 44.1525 19.9981 43.4964 19.9981H39.8831V0H44.6838Z" fill="white"/>
<path d="M71.4838 19.9981L71.4829 0H85.3777V3.93294H76.2845V7.97269H84.6557V11.8109H76.2845V16.0653H85.3647V19.9981H71.4838Z" fill="white"/>
<path d="M20.5443 3.30871C19.952 2.2665 19.1116 1.45465 18.0241 0.872231C16.9357 0.290744 15.6437 0 14.1453 0H5.93408V7.57884H8.33765C9.66205 7.57884 10.7347 6.50133 10.7347 5.173V3.906H13.1012C13.8324 3.906 14.4451 4.02954 14.9403 4.2757C15.4355 4.52185 15.8094 4.87111 16.0638 5.32256C16.3175 5.77492 16.4452 6.31369 16.4452 6.93976C16.4452 7.56584 16.3184 8.08044 16.0638 8.53652C15.8094 8.99355 15.4355 9.34931 14.9403 9.60383C14.4451 9.85927 13.8371 9.98653 13.1152 9.98653H8.36171C7.02063 9.98653 5.93408 11.078 5.93408 12.423V19.9981H10.7347V13.7978H14.011C15.527 13.7978 16.8413 13.5135 17.9565 12.945C19.0708 12.3766 19.9288 11.5787 20.5304 10.5494C21.1319 9.52023 21.4327 8.31731 21.4327 6.93884C21.4327 5.56035 21.1375 4.35094 20.5443 3.30871Z" fill="white"/>
<path d="M57.2987 10.7473L52.9081 0H46.9441V19.9981H51.6382V7.6643L56.5731 19.8644H57.9299C59.3543 19.8644 60.3316 18.4246 59.8096 17.0944L57.2987 10.7473Z" fill="white"/>
<path d="M63.26 0L59.048 10.281C58.8102 10.8625 58.8102 11.5127 59.048 12.0942C59.6682 13.6093 60.4372 15.5144 60.8675 16.5826L64.5168 7.70331V19.9972H69.237V0H63.26Z" fill="white"/>
<path d="M2.40079 12.5828C3.7267 12.5828 4.80158 11.504 4.80158 10.1732C4.80158 8.84246 3.7267 7.76367 2.40079 7.76367C1.07487 7.76367 0 8.84246 0 10.1732C0 11.504 1.07487 12.5828 2.40079 12.5828Z" fill="white"/>
</g>
<defs>
<clipPath id="clip0_2789_50">
<rect width="137" height="20" fill="white"/>
</clipPath>
</defs>
</svg>
