<svg width="53" height="24" viewBox="0 0 53 24" fill="none" xmlns="http://www.w3.org/2000/svg">
<path d="M41.0005 2.90046C41.0041 2.84274 41.0239 2.78721 41.0577 2.74025C41.0914 2.6933 41.1377 2.65682 41.1912 2.635C41.2447 2.61319 41.3032 2.60693 41.3602 2.61695C41.4171 2.62696 41.47 2.65285 41.5128 2.69162L41.9924 3.12278C42.0435 3.16892 42.1087 3.1965 42.1775 3.20109L42.821 3.2432C42.8787 3.24681 42.9342 3.26664 42.9811 3.3004C43.028 3.33416 43.0644 3.38048 43.0862 3.43404C43.108 3.4876 43.1143 3.54623 43.1043 3.60319C43.0942 3.66015 43.0684 3.71313 43.0297 3.75604L42.5989 4.23604C42.5527 4.28721 42.525 4.35246 42.5203 4.4213L42.4786 5.06551C42.475 5.12323 42.4552 5.17876 42.4215 5.22572C42.3878 5.27268 42.3415 5.30916 42.288 5.33097C42.2345 5.35278 42.1759 5.35904 42.119 5.34903C42.0621 5.33901 42.0092 5.31313 41.9663 5.27436L41.4868 4.8432C41.4356 4.79705 41.3704 4.76947 41.3017 4.76488L40.6581 4.72278C40.6005 4.7191 40.5452 4.69926 40.4983 4.66552C40.4515 4.63179 40.4151 4.58552 40.3933 4.53204C40.3715 4.47855 40.3653 4.42001 40.3752 4.36311C40.3851 4.30622 40.4109 4.25328 40.4495 4.21036L40.8802 3.73036C40.9263 3.67913 40.9539 3.61388 40.9585 3.54509L41.0005 2.90046Z" fill="white"/>
<path fill-rule="evenodd" clip-rule="evenodd" d="M10.1432 0.895114C10.2171 0.993757 10.2708 1.10601 10.3014 1.22545C10.332 1.3449 10.3388 1.4692 10.3213 1.59127C10.3039 1.71333 10.2626 1.83077 10.1999 1.93687C10.1371 2.04297 10.0541 2.13566 9.95555 2.20964C9.39821 2.62817 7.86921 4.32038 6.79743 6.66269C6.00327 8.39911 5.82744 10.0311 6.05543 11.1621C6.28678 12.3094 6.82603 12.6732 7.34047 12.6732L7.37496 12.6736C7.71315 12.6863 8.01979 12.5642 8.34747 12.2602C8.69533 11.9381 9.02848 11.4433 9.36036 10.8008C9.6834 10.1747 9.97238 9.47617 10.2689 8.75953L10.2845 8.72164C10.454 8.31238 10.6282 7.89175 10.8103 7.49175C10.9365 7.20627 11.0749 6.92838 11.2225 6.66143C11.4248 6.29283 11.635 5.92868 11.853 5.56922C11.9288 5.44669 11.9931 5.34522 12.0444 5.27027C12.0684 5.2349 12.0987 5.19153 12.1311 5.15111C12.2414 5.00729 12.39 4.89743 12.5597 4.83406C12.6952 4.78392 12.8404 4.76571 12.984 4.78086C13.1277 4.79601 13.2659 4.84411 13.388 4.92142C13.5101 4.99872 13.6127 5.10315 13.6879 5.2266C13.7631 5.35005 13.8089 5.48919 13.8216 5.63322C13.8359 5.78732 13.8069 5.90817 13.7997 5.93764V5.9389C13.78 6.02017 13.7535 6.08375 13.7455 6.10185C13.7252 6.14896 13.7031 6.1953 13.6794 6.2408C13.6374 6.31996 13.5793 6.42353 13.507 6.54648C13.3631 6.79069 13.1452 7.14227 12.8483 7.59953C12.7383 7.8022 12.6283 8.02536 12.5181 8.26901C12.0659 9.29301 11.8232 10.3709 11.8673 11.2197C11.8947 11.7364 12.023 12.0901 12.1912 12.3082C12.3393 12.4997 12.5732 12.6618 13.0127 12.704C13.3282 12.7334 13.6799 12.6042 14.1156 12.1431C14.5594 11.6741 14.98 10.9713 15.3918 10.1347C15.6745 9.55953 15.929 8.97385 16.1788 8.39827C16.2933 8.13441 16.4077 7.87336 16.5221 7.61511C16.8565 6.8669 17.2414 6.05553 17.6952 5.5709C17.778 5.47956 17.8779 5.40543 17.9893 5.35274C18.1007 5.30006 18.2214 5.26986 18.3445 5.26385C18.4675 5.25785 18.5906 5.27617 18.7065 5.31777C18.8225 5.35936 18.9292 5.42341 19.0204 5.50627C19.1117 5.58913 19.1858 5.68917 19.2384 5.80067C19.291 5.91218 19.3212 6.03297 19.3272 6.15615C19.3332 6.27933 19.3149 6.40248 19.2733 6.51858C19.2318 6.63468 19.1678 6.74145 19.085 6.8328C18.6854 7.2888 18.5188 7.98859 18.6539 8.72332C18.7565 9.28122 19.0207 9.78732 19.4018 10.1477C19.7816 8.04711 21.3543 5.89932 23.9686 5.46985C25.1762 5.27111 26.3065 5.53301 26.9484 6.37301C27.6067 7.23617 27.48 8.34943 26.9076 9.23364C26.0314 10.5865 24.5789 11.5802 23.1353 12.1048C22.7685 12.2383 22.3841 12.3473 21.9945 12.4235C22.4156 12.6842 23.0625 12.8139 23.9854 12.5019C25.0707 12.1355 26.1937 11.1486 27.3883 9.89469C27.7063 9.56122 28.0328 9.20417 28.3625 8.84332C28.8997 8.25553 29.4448 7.65932 29.9748 7.14059C30.1322 6.96669 30.3039 6.80627 30.488 6.66101C30.5963 6.56529 30.7034 6.47448 30.8094 6.38859C31.6279 5.72627 32.4477 5.35448 33.2036 5.1928C33.2625 5.17876 33.3211 5.16599 33.3795 5.15448C34.2598 4.98269 34.9737 5.1309 35.5125 5.36206C36.0294 5.58276 36.4664 5.95637 36.7651 6.4328C37.2182 7.15785 37.3763 8.16038 36.9809 9.46269C36.7145 10.3426 36.434 11.2183 36.1397 12.0892C37.0516 11.1503 37.6729 10.277 37.9665 9.77553C38.2887 9.22606 38.5932 8.67406 38.8641 8.1848L38.8999 8.11953C39.1708 7.62985 39.4215 7.17638 39.6053 6.89217C39.6524 6.81848 39.705 6.74143 39.7592 6.67153C39.7992 6.61975 39.8938 6.49932 40.0314 6.40038C40.0945 6.3549 40.2636 6.24122 40.5109 6.21596C40.67 6.19946 40.8307 6.22306 40.9784 6.28462C41.126 6.34617 41.256 6.44372 41.3564 6.56838C41.512 6.76206 41.5511 6.96206 41.5633 7.03996C41.5789 7.13638 41.5789 7.22017 41.5768 7.2749C41.5701 7.46859 41.5187 7.70438 41.4653 7.92332C41.3853 8.24014 41.2984 8.55517 41.2045 8.86817C40.9479 9.7389 40.884 10.3823 40.9021 10.8273C41.1566 10.4749 41.4502 10.0534 41.7619 9.60543L41.7858 9.57132C42.3596 8.74606 42.9994 7.82564 43.4288 7.36206C44.7307 5.95575 45.9745 5.46143 47.0518 5.47196C47.621 5.47817 48.1794 5.62883 48.6746 5.90985L48.7002 5.9229C48.8269 5.99027 48.9341 6.05932 49.0132 6.11953C49.0313 6.13385 49.0632 6.15869 49.0982 6.19111C49.1108 6.20248 49.1528 6.24164 49.1983 6.29848C49.3233 6.45433 49.3951 6.64617 49.4031 6.84585C49.4131 7.07778 49.3369 7.30519 49.1893 7.48419C49.0416 7.66319 48.8329 7.78108 48.6035 7.81511C48.3936 7.84679 48.1792 7.80627 47.9953 7.70017C47.9643 7.68237 47.9341 7.66326 47.9048 7.6429L47.9019 7.6408C47.8605 7.61191 47.8182 7.58453 47.7748 7.55869C47.6257 7.48758 47.4663 7.44068 47.3025 7.41974C46.9092 7.37006 46.1811 7.42817 45.3049 8.48964C45.1063 8.73048 44.7236 9.44838 44.5128 10.296C44.2958 11.1722 44.3429 11.8593 44.5969 12.2362C44.8506 12.6122 45.1442 12.7212 45.4681 12.7044C45.8458 12.6854 46.3367 12.4816 46.8192 12.0568C47.0059 11.8923 47.2503 11.8087 47.4986 11.8245C47.7469 11.8404 47.9787 11.9543 48.1431 12.1412C48.3075 12.3282 48.391 12.5728 48.3751 12.8213C48.3593 13.0699 48.2455 13.3019 48.0588 13.4665C47.358 14.0842 46.4797 14.5339 45.5636 14.5802C44.5936 14.6299 43.669 14.2172 43.0414 13.2871C42.7314 12.8273 42.5775 12.3103 42.5224 11.789C42.1981 12.2421 41.8923 12.6471 41.6571 12.904C41.4628 13.1191 41.2011 13.2615 40.9151 13.3077C40.6363 13.3495 40.3515 13.2998 40.1033 13.1659C39.6692 12.9351 39.4 12.5107 39.246 12.0947C39.174 11.8977 39.1205 11.6945 39.0862 11.4875C38.2807 12.6185 36.8329 14.2833 34.8138 15.64C34.4222 16.5852 34.0087 17.4884 33.5759 18.3149C32.9071 19.5928 32.1659 20.7368 31.3507 21.5671C30.5431 22.3882 29.55 23.0147 28.3953 22.9772C26.81 22.9258 25.795 22.0109 25.4093 20.8753C25.0576 19.8395 25.2267 18.5877 25.9515 17.7595C26.3448 17.2534 26.8642 16.9149 27.5541 16.6151C28.2401 16.3174 29.1748 16.0256 30.4531 15.6547C31.4971 15.3515 32.4494 14.9023 33.3008 14.3802C33.4427 14.0251 33.5818 13.6644 33.7181 13.2981C33.2957 13.5507 32.8726 13.7587 32.4734 13.9191C31.8597 14.1658 31.23 14.3309 30.7147 14.3309C29.6943 14.3309 28.8959 13.8884 28.4765 13.0724C28.2713 12.6732 28.1808 12.2303 28.164 11.7869C27.1103 12.8332 25.9065 13.8357 24.5852 14.2816C22.9931 14.8193 21.5857 14.5545 20.6031 13.728C20.1731 13.365 19.8354 12.9051 19.6175 12.3861C19.3504 12.3113 19.0936 12.2039 18.8528 12.0661C18.1785 11.6757 17.6637 11.1111 17.3104 10.4715C17.2332 10.638 17.1547 10.8022 17.0748 10.9642C16.6424 11.8442 16.1216 12.7541 15.4785 13.4341C14.8278 14.1225 13.9465 14.6791 12.8352 14.5734C11.9325 14.4875 11.2027 14.0997 10.706 13.456C10.5559 13.2604 10.43 13.0475 10.3308 12.8218C10.1226 13.1172 9.8853 13.3909 9.62241 13.6387C9.02343 14.1936 8.25956 14.5806 7.32322 14.5515C5.5452 14.5423 4.53441 13.1145 4.21641 11.5334C3.89336 9.93132 4.17098 7.89301 5.09133 5.8808C6.26364 3.31827 7.97058 1.35238 8.82994 0.707325C9.02896 0.55791 9.27912 0.493755 9.5254 0.528972C9.77168 0.564189 9.99389 0.695895 10.1432 0.895114ZM31.3457 8.42438C31.1354 8.65722 30.9145 8.9709 30.7105 9.34648C30.4136 9.89469 30.1902 10.5065 30.0922 11.0593C29.9896 11.6374 30.0459 12.0197 30.1452 12.213C30.1965 12.3128 30.2899 12.453 30.7152 12.453C30.8876 12.453 31.2616 12.3823 31.7743 12.176C32.3321 11.9484 32.8596 11.6524 33.3445 11.2947C34.4104 10.5077 35.2126 9.4568 35.3072 8.23869C35.3459 7.74438 35.205 7.4829 35.0931 7.34185C35.0104 7.23676 34.905 7.15183 34.7848 7.09343L34.776 7.08922C34.5581 6.99574 34.1534 6.91617 33.6234 7.02311C33.1553 7.13764 32.515 7.43069 31.6898 8.10438C31.5762 8.20543 31.4615 8.3121 31.3457 8.42438ZM32.1041 17.0732C31.7398 17.2164 31.3638 17.3461 30.9768 17.4585C29.6833 17.8336 28.861 18.0955 28.3011 18.3385C27.7602 18.5734 27.5524 18.7541 27.4237 18.925C27.4069 18.9469 27.3893 18.968 27.3711 18.9882C27.1456 19.2374 27.0157 19.7688 27.186 20.2711C27.3278 20.6871 27.6744 21.0745 28.4563 21.0997C28.858 21.1128 29.3742 20.9002 30.0127 20.2501C30.6436 19.6084 31.2839 18.6475 31.9148 17.4429C31.9779 17.3219 32.041 17.1987 32.1041 17.0732ZM21.2223 10.6429C21.6571 10.594 22.0844 10.4922 22.4947 10.3397C23.6472 9.92038 24.727 9.14732 25.3331 8.21174C25.6078 7.78774 25.5005 7.57048 25.4572 7.51364C25.3966 7.43406 25.103 7.18648 24.2727 7.3229C22.5481 7.60627 21.4338 9.09638 21.2223 10.6429Z" fill="white"/>
<path fill-rule="evenodd" clip-rule="evenodd" d="M36.0963 16.9221C36.0989 16.6731 36.2003 16.4354 36.378 16.2612C36.5557 16.087 36.7953 15.9906 37.044 15.9932C41.6962 16.0416 46.3543 16.3696 51.0326 17.0837C51.2786 17.1213 51.4996 17.2552 51.647 17.4559C51.7944 17.6565 51.8561 17.9076 51.8186 18.1538C51.781 18.4001 51.6473 18.6213 51.4468 18.7688C51.2463 18.9164 50.9955 18.9782 50.7495 18.9406C46.1705 18.2416 41.6015 17.9191 37.0242 17.8711C36.901 17.8698 36.7793 17.8442 36.666 17.7958C36.5527 17.7474 36.45 17.6771 36.3639 17.589C36.2777 17.5008 36.2097 17.3966 36.1638 17.2822C36.1179 17.1677 36.0949 17.0454 36.0963 16.9221ZM24.6617 17.2164C24.6706 17.4652 24.5803 17.7074 24.4108 17.8897C24.2413 18.0719 24.0064 18.1793 23.7578 18.1882C10.8283 18.6513 4.56001 20.3322 1.79224 21.0745L1.47045 21.1604C1.35138 21.1921 1.22725 21.2 1.10513 21.1836C0.983018 21.1673 0.865313 21.127 0.758738 21.0651C0.652164 21.0033 0.558809 20.921 0.484002 20.823C0.409194 20.725 0.354401 20.6132 0.322749 20.4941C0.291097 20.3749 0.283207 20.2506 0.29953 20.1284C0.315852 20.0061 0.356068 19.8883 0.417879 19.7816C0.479691 19.675 0.561889 19.5815 0.65978 19.5066C0.75767 19.4317 0.869337 19.3769 0.988404 19.3452L1.3022 19.261C4.15074 18.4985 10.5587 16.7818 23.6909 16.3115C23.9395 16.3027 24.1815 16.393 24.3635 16.5627C24.5456 16.7324 24.6529 16.9675 24.6617 17.2164Z" fill="white"/>
</svg>
